<svg width="72" height="72" viewBox="0 0 72 72" fill="none" xmlns="http://www.w3.org/2000/svg">
<circle cx="36" cy="36" r="36" fill="#DDDFFF"/>
<path d="M33.3415 20.1666H38.8971C39.7756 20.1667 40.6232 20.4904 41.278 21.0761C41.9327 21.6618 42.3487 22.4682 42.4463 23.3412H45.2463C45.7153 23.3412 46.1797 23.4336 46.613 23.6131C47.0463 23.7926 47.44 24.0556 47.7717 24.3873C48.1033 24.7189 48.3664 25.1126 48.5459 25.5459C48.7254 25.9792 48.8177 26.4437 48.8177 26.9127V35.2428C46.6291 34.3298 44.1927 34.1986 41.9187 34.8713C39.6446 35.5441 37.6718 36.9796 36.3321 38.9364C34.9924 40.8932 34.3677 43.2518 34.5631 45.6152C34.7585 47.9786 35.7621 50.2025 37.405 51.9127H26.9923C26.0451 51.9127 25.1367 51.5364 24.4669 50.8666C23.7972 50.1968 23.4209 49.2884 23.4209 48.3412V26.9127C23.4209 25.9655 23.7972 25.057 24.4669 24.3873C25.1367 23.7175 26.0451 23.3412 26.9923 23.3412H29.7923C29.8899 22.4682 30.3059 21.6618 30.9607 21.0761C31.6154 20.4904 32.4631 20.1667 33.3415 20.1666ZM38.8971 22.5476H33.3415C33.0258 22.5476 32.723 22.673 32.4997 22.8963C32.2765 23.1195 32.1511 23.4223 32.1511 23.7381C32.1511 24.0538 32.2765 24.3566 32.4997 24.5798C32.723 24.8031 33.0258 24.9285 33.3415 24.9285H38.8971C39.2128 24.9285 39.5156 24.8031 39.7389 24.5798C39.9621 24.3566 40.0876 24.0538 40.0876 23.7381C40.0876 23.4223 39.9621 23.1195 39.7389 22.8963C39.5156 22.673 39.2128 22.5476 38.8971 22.5476Z" fill="url(#paint0_linear)"/>
<g clip-path="url(#clip0)">
<path fill-rule="evenodd" clip-rule="evenodd" d="M36.0005 44.75C36.0005 42.4294 36.9224 40.2038 38.5633 38.5628C40.2042 36.9219 42.4298 36 44.7505 36C47.0711 36 49.2967 36.9219 50.9377 38.5628C52.5786 40.2038 53.5005 42.4294 53.5005 44.75C53.5005 47.0706 52.5786 49.2962 50.9377 50.9372C49.2967 52.5781 47.0711 53.5 44.7505 53.5C42.4298 53.5 40.2042 52.5781 38.5633 50.9372C36.9224 49.2962 36.0005 47.0706 36.0005 44.75V44.75ZM44.2512 48.495L49.2888 42.1973L48.3788 41.4693L44.0832 46.8372L41.0405 44.302L40.2938 45.198L44.2512 48.4962V48.495Z" fill="url(#paint1_linear)"/>
</g>
<defs>
<linearGradient id="paint0_linear" x1="23.4209" y1="20.1666" x2="58.371" y2="69.5159" gradientUnits="userSpaceOnUse">
<stop stop-color="#8A90F8"/>
<stop offset="1" stop-color="#3B42BD"/>
</linearGradient>
<linearGradient id="paint1_linear" x1="36.0005" y1="36" x2="53.5202" y2="66.9222" gradientUnits="userSpaceOnUse">
<stop stop-color="#8A90F8"/>
<stop offset="1" stop-color="#3B42BD"/>
</linearGradient>
<clipPath id="clip0">
<rect width="17.5" height="17.5" fill="white" transform="translate(36.0005 36)"/>
</clipPath>
</defs>
</svg>
