<svg width="64" height="64" viewBox="0 0 64 64" fill="none" xmlns="http://www.w3.org/2000/svg">
<rect width="64" height="64" rx="8" fill="#C3F0FF"/>
<path d="M48.2443 34.942L46.8577 32.8618V31.1357L48.2431 29.0578C48.4479 28.7509 48.5828 28.4029 48.6383 28.0383C48.6939 27.6736 48.6687 27.3012 48.5647 26.9473C48.2402 25.8789 47.8127 24.8446 47.288 23.8589C47.113 23.5347 46.8683 23.2534 46.5714 23.0352C46.2746 22.8169 45.933 22.6672 45.5714 22.5968L43.1173 22.1062L41.8964 20.8853L41.4056 18.4314C41.3353 18.0693 41.1853 17.7274 40.9666 17.4303C40.7479 17.1333 40.4659 16.8885 40.1411 16.7138C39.1561 16.1903 38.1229 15.7633 37.0558 15.4386C36.7022 15.3328 36.3295 15.3067 35.9646 15.3621C35.5997 15.4174 35.2515 15.5529 34.9452 15.7589L32.8658 17.1453H31.1395L29.0589 15.759C28.7532 15.5527 28.4054 15.4169 28.0408 15.3615C27.6761 15.3061 27.3037 15.3324 26.9505 15.4386C25.8821 15.763 24.8477 16.1905 23.8619 16.715C23.5372 16.8894 23.2555 17.134 23.0372 17.4309C22.8188 17.7277 22.6694 18.0695 22.5997 18.4314L22.1089 20.8853L20.888 22.1061L18.4313 22.5968C18.0696 22.667 17.7279 22.8167 17.4312 23.0352C17.1345 23.2536 16.8902 23.5354 16.7159 23.86C16.1919 24.8452 15.7643 25.8787 15.4392 26.9461C15.3332 27.2995 15.3069 27.672 15.3623 28.0368C15.4177 28.4015 15.5534 28.7495 15.7596 29.0554L17.1474 31.1357V32.8618L15.7583 34.9433C15.5526 35.2492 15.4172 35.597 15.3621 35.9615C15.3069 36.326 15.3332 36.6983 15.4392 37.0514C15.7639 38.1182 16.1915 39.1509 16.7159 40.135C16.8898 40.4604 17.1342 40.7429 17.4311 40.9618C17.7281 41.1808 18.0702 41.3307 18.4325 41.4006L20.8878 41.8913L22.1087 43.1122L22.5995 45.5649C22.6685 45.9273 22.8176 46.2698 23.036 46.5673C23.2544 46.8647 23.5365 47.1095 23.8618 47.2838C24.8466 47.8078 25.8803 48.2344 26.9481 48.5577C27.3013 48.666 27.6744 48.6936 28.0397 48.6384C28.405 48.5831 28.7533 48.4465 29.0587 48.2386L31.1395 46.8521H32.8658L34.9452 48.2385C35.3577 48.5157 35.8431 48.6647 36.3402 48.6666C36.5827 48.6662 36.8239 48.6299 37.0558 48.5589C38.1226 48.2345 39.1555 47.8074 40.1398 47.2837C40.4653 47.1101 40.7479 46.8658 40.9667 46.5688C41.1855 46.2717 41.335 45.9295 41.4044 45.5672L41.8952 43.1122L43.1173 41.8914L45.5726 41.4006C45.9344 41.3299 46.2761 41.1798 46.5729 40.9612C46.8698 40.7426 47.1145 40.4608 47.2893 40.1362C47.8132 39.1516 48.2403 38.1185 48.5647 37.0514C48.6688 36.6978 48.6941 36.3256 48.6388 35.9611C48.5834 35.5967 48.4488 35.2488 48.2443 34.942ZM32.002 39.4256C30.533 39.4256 29.097 38.99 27.8755 38.174C26.6541 37.3579 25.7021 36.198 25.1399 34.841C24.5777 33.4839 24.4306 31.9907 24.7172 30.55C25.0038 29.1094 25.7112 27.7861 26.75 26.7474C27.7887 25.7088 29.1122 25.0015 30.553 24.7149C31.9938 24.4283 33.4872 24.5754 34.8444 25.1375C36.2016 25.6996 37.3616 26.6515 38.1778 27.8728C38.9939 29.0942 39.4296 30.53 39.4296 31.9989C39.4296 33.9686 38.647 35.8576 37.2541 37.2504C35.8612 38.6431 33.9719 39.4256 32.002 39.4256Z" fill="url(#paint0_linear)"/>
<defs>
<linearGradient id="paint0_linear" x1="8.74978" y1="12.0709" x2="51.9327" y2="54.3" gradientUnits="userSpaceOnUse">
<stop stop-color="#5AA6FF"/>
<stop offset="1" stop-color="#0874D8"/>
</linearGradient>
</defs>
</svg>
