<svg width="93" height="24" viewBox="0 0 93 24" fill="none" xmlns="http://www.w3.org/2000/svg">
<g opacity="0.8">
<g clip-path="url(#clip0_1016:783)">
<path d="M36.7018 14.0571L41.8335 20.5714H37.7812L33.2143 14.5886V20.5714H29.8928V3.42862H33.2143V13.5086L37.4325 8.57137H41.6673L36.7018 14.0571ZM23.416 8.22863C22.6888 8.23987 21.975 8.43288 21.3359 8.79113C20.6967 9.14939 20.1512 9.66221 19.746 10.2857V8.57137H16.6072V20.5714H19.9285V14.9657C19.8849 14.5588 19.9229 14.147 20.0401 13.7559C20.1573 13.3649 20.3513 13.0029 20.6099 12.6925C20.8685 12.3822 21.1862 12.1301 21.5432 11.9519C21.9003 11.7738 22.289 11.6734 22.6853 11.6571C24.6118 11.6571 24.9107 13.6114 24.9107 14.9657V20.5714H28.2322V14.2114C28.2322 10.44 27.0198 8.22863 23.4825 8.22863H23.416ZM53.1428 14.8457C53.1555 15.0969 53.1555 15.3487 53.1428 15.6H44.424V15.72C44.5656 16.4349 44.9492 17.0743 45.5062 17.5235C46.0632 17.9728 46.757 18.2025 47.4632 18.1714C48.0235 18.1965 48.5828 18.1047 49.1079 17.9015C49.633 17.6983 50.1129 17.3878 50.519 16.9886L52.7277 18.7029C52.0277 19.4404 51.1857 20.0181 50.256 20.399C49.3264 20.7799 48.3297 20.9555 47.3303 20.9143C46.5026 20.9683 45.6734 20.8383 44.8985 20.5331C44.1237 20.228 43.4214 19.7547 42.8389 19.1453C42.2564 18.5359 41.8075 17.8046 41.5223 17.0008C41.2371 16.1969 41.1223 15.3392 41.1857 14.4857C41.1687 13.6431 41.32 12.8059 41.6302 12.0263C41.9404 11.2467 42.4028 10.5414 42.9887 9.95434C43.5745 9.36731 44.2712 8.91113 45.0353 8.61422C45.7994 8.31732 46.6146 8.18606 47.43 8.22863C50.5522 8.22863 53.1428 10.5086 53.1428 14.8457ZM50.054 13.3714C50.0418 13.0318 49.9627 12.6984 49.8216 12.3914C49.6805 12.0844 49.4803 11.8103 49.2333 11.5857C48.9862 11.3612 48.6975 11.1909 48.3846 11.0853C48.0717 10.9797 47.7413 10.9409 47.4135 10.9714C45.9531 10.8084 44.6306 11.8703 44.424 13.3714H50.054ZM3.32148 3.42862H0V20.5714H9.96426V17.1431H3.32148V3.42862ZM63.1072 3.42862H66.4285V20.5714H63.2898V19.3714C62.8912 19.8783 62.3832 20.2818 61.8065 20.5497C61.2298 20.8177 60.6003 20.9425 59.9685 20.9143C59.1965 20.8939 58.4368 20.7106 57.736 20.376C57.0351 20.0413 56.408 19.5621 55.8932 18.9681C55.3783 18.374 54.9866 17.6775 54.7421 16.9214C54.4976 16.1653 54.4055 15.3656 54.4715 14.5714C54.3931 13.7761 54.4759 12.9726 54.7147 12.2121C54.9535 11.4517 55.343 10.7508 55.8585 10.1542C56.374 9.5576 57.0041 9.07829 57.7088 8.74678C58.4135 8.41526 59.1774 8.2388 59.9518 8.22863C60.5285 8.20254 61.1046 8.29521 61.6463 8.50123C62.1881 8.70725 62.6847 9.0225 63.1072 9.42863V3.42862ZM63.3562 14.5714C63.4085 14.1755 63.3779 13.7727 63.2665 13.3901C63.1551 13.0075 62.9655 12.654 62.7106 12.3534C62.4556 12.0529 62.1412 11.8123 61.7885 11.6478C61.4358 11.4833 61.053 11.3988 60.666 11.4C59.0772 11.5191 57.8732 12.9294 57.959 14.5714C57.8732 16.2133 59.0772 17.6239 60.666 17.7429C61.053 17.7441 61.4358 17.6596 61.7885 17.4951C62.1412 17.3307 62.4557 17.09 62.7106 16.7894C62.9656 16.4889 63.1552 16.1353 63.2665 15.7527C63.3779 15.3701 63.4085 14.9672 63.3562 14.5714ZM13.2857 3.08569C12.7516 3.0935 12.2403 3.31023 11.855 3.69211C11.4697 4.07398 11.2391 4.59256 11.2098 5.14313C11.2098 6.32644 12.1392 7.28588 13.2857 7.28588C14.4323 7.28588 15.3613 6.32625 15.3613 5.14313C15.332 4.59263 15.1014 4.07412 14.7162 3.69229C14.3309 3.31045 13.8196 3.09373 13.2856 3.08588L13.2857 3.08569ZM11.625 20.5714H14.9465V8.57137H11.625V20.5714ZM93 1.71431V22.2857C93 22.7404 92.825 23.1764 92.5136 23.4979C92.2021 23.8194 91.7797 24 91.3393 24H71.4107C70.9703 24 70.5479 23.8194 70.2364 23.4979C69.925 23.1764 69.75 22.7404 69.75 22.2857V1.71431C69.75 1.25965 69.925 0.823606 70.2364 0.50211C70.5479 0.180615 70.9703 0 71.4107 0L91.3393 0C91.7797 0 92.2021 0.180615 92.5136 0.50211C92.825 0.823606 93 1.25965 93 1.71431ZM76.3928 8.57137H73.0715V20.5714H76.3928V8.57137ZM76.808 5.14294C76.808 3.95944 75.8786 3 74.7322 3C73.5857 3 72.6562 3.95944 72.6562 5.14294C72.6562 6.32625 73.5857 7.28569 74.7322 7.28569C75.8786 7.28569 76.808 6.32625 76.808 5.14294ZM89.6785 14.2114C89.6785 10.44 88.4663 8.22863 84.929 8.22863C84.1904 8.22869 83.4633 8.41637 82.8116 8.77512C82.1599 9.13386 81.6038 9.65264 81.1923 10.2857V8.57137H78.0535V20.5714H81.375V14.9657C81.3314 14.5588 81.3694 14.147 81.4866 13.7559C81.6038 13.3649 81.7977 13.0029 82.0563 12.6925C82.3149 12.3822 82.6326 12.1301 82.9897 11.9519C83.3468 11.7738 83.7355 11.6734 84.1318 11.6571C86.0582 11.6571 86.3572 13.6114 86.3572 14.9657V20.5714H89.6785V14.2114Z" fill="white"/>
</g>
</g>
<defs>
<clipPath id="clip0_1016:783">
<rect width="93" height="24" fill="white"/>
</clipPath>
</defs>
</svg>
