<svg width="16" height="16" viewBox="0 0 16 16" fill="none" xmlns="http://www.w3.org/2000/svg">
<path d="M1.71436 5.78515L7.80236 8.95143C7.86342 8.98319 7.93124 8.99976 8.00007 8.99976C8.0689 8.99976 8.13672 8.98319 8.19778 8.95143L14.2858 5.78572V11.2857C14.2858 11.7601 14.1043 12.2165 13.7785 12.5613C13.4528 12.9061 13.0074 13.1131 12.5338 13.14L12.4286 13.1429H3.5715C3.09713 13.1429 2.64074 12.9614 2.29594 12.6356C1.95114 12.3098 1.74407 11.8645 1.71721 11.3909L1.71436 11.2857V5.78515ZM3.5715 2.85715H12.4286C12.903 2.85712 13.3594 3.03861 13.7042 3.36439C14.049 3.69017 14.2561 4.13554 14.2829 4.60915L14.2858 4.71429V4.81943L8.00007 8.088L1.71436 4.81943V4.71429C1.71432 4.23993 1.89581 3.78353 2.2216 3.43873C2.54738 3.09393 2.99275 2.88686 3.46636 2.86L3.5715 2.85715H12.4286H3.5715Z" fill="#FF529F"/>
</svg>
