<svg width="16" height="16" viewBox="0 0 16 16" fill="none" xmlns="http://www.w3.org/2000/svg">
<path d="M10.1651 10.74L11.2851 9.61999C11.4359 9.47101 11.6268 9.36903 11.8345 9.32643C12.0422 9.28382 12.2577 9.30243 12.4551 9.37999L13.8201 9.92499C14.0195 10.0059 14.1905 10.1441 14.3115 10.322C14.4325 10.5 14.4981 10.7098 14.5001 10.925V13.425C14.4989 13.5714 14.4681 13.716 14.4096 13.8502C14.3511 13.9844 14.266 14.1053 14.1595 14.2058C14.053 14.3062 13.9272 14.384 13.7899 14.4346C13.6525 14.4852 13.5063 14.5074 13.3601 14.5C3.79507 13.905 1.86507 5.80499 1.50007 2.70499C1.48312 2.55276 1.4986 2.39866 1.54549 2.25284C1.59238 2.10703 1.66961 1.97279 1.7721 1.85896C1.87459 1.74513 2.00003 1.65429 2.14015 1.59242C2.28027 1.53055 2.4319 1.49905 2.58507 1.49999H5.00007C5.21557 1.50063 5.42596 1.56572 5.60416 1.6869C5.78237 1.80809 5.92025 1.97981 6.00007 2.17999L6.54507 3.54499C6.62519 3.74152 6.64564 3.95731 6.60384 4.1654C6.56205 4.37348 6.45987 4.56464 6.31007 4.71499L5.19007 5.83499C5.19007 5.83499 5.83507 10.2 10.1651 10.74Z" fill="#FF529F"/>
</svg>
