<svg width="24" height="24" viewBox="0 0 24 24" fill="none" xmlns="http://www.w3.org/2000/svg">
<path d="M12 7.1928C9.33983 7.1928 7.19296 9.33967 7.19296 11.9998C7.19296 14.66 9.33983 16.8069 12 16.8069C14.6601 16.8069 16.807 14.66 16.807 11.9998C16.807 9.33967 14.6601 7.1928 12 7.1928ZM12 15.124C10.2797 15.124 8.87577 13.7201 8.87577 11.9998C8.87577 10.2795 10.2797 8.87561 12 8.87561C13.7203 8.87561 15.1242 10.2795 15.1242 11.9998C15.1242 13.7201 13.7203 15.124 12 15.124ZM17.0039 5.87561C16.3828 5.87561 15.8812 6.37717 15.8812 6.99827C15.8812 7.61936 16.3828 8.12092 17.0039 8.12092C17.625 8.12092 18.1266 7.62171 18.1266 6.99827C18.1267 6.85079 18.0978 6.70472 18.0415 6.56843C17.9851 6.43214 17.9024 6.3083 17.7981 6.20402C17.6939 6.09973 17.57 6.01705 17.4337 5.96069C17.2974 5.90434 17.1514 5.87543 17.0039 5.87561ZM21.3703 11.9998C21.3703 10.7061 21.382 9.42405 21.3094 8.13264C21.2367 6.63264 20.8945 5.30139 19.7976 4.20452C18.6984 3.1053 17.3695 2.76546 15.8695 2.6928C14.5758 2.62014 13.2937 2.63186 12.0023 2.63186C10.7086 2.63186 9.42655 2.62014 8.13515 2.6928C6.63515 2.76546 5.3039 3.10764 4.20702 4.20452C3.1078 5.30374 2.76796 6.63264 2.6953 8.13264C2.62265 9.42639 2.63436 10.7084 2.63436 11.9998C2.63436 13.2912 2.62265 14.5756 2.6953 15.867C2.76796 17.367 3.11015 18.6983 4.20702 19.7951C5.30624 20.8944 6.63515 21.2342 8.13515 21.3069C9.4289 21.3795 10.7109 21.3678 12.0023 21.3678C13.2961 21.3678 14.5781 21.3795 15.8695 21.3069C17.3695 21.2342 18.7008 20.892 19.7976 19.7951C20.8969 18.6959 21.2367 17.367 21.3094 15.867C21.3844 14.5756 21.3703 13.2936 21.3703 11.9998ZM19.3078 17.5264C19.1367 17.953 18.9305 18.2717 18.6 18.5998C18.2695 18.9303 17.9531 19.1365 17.5266 19.3076C16.2937 19.7975 13.3664 19.6873 12 19.6873C10.6336 19.6873 7.7039 19.7975 6.47108 19.31C6.04452 19.1389 5.72577 18.9326 5.39765 18.6022C5.06718 18.2717 4.86093 17.9553 4.68983 17.5287C4.20233 16.2936 4.31249 13.3662 4.31249 11.9998C4.31249 10.6334 4.20233 7.70374 4.68983 6.47092C4.86093 6.04436 5.06718 5.72561 5.39765 5.39749C5.72811 5.06936 6.04452 4.86077 6.47108 4.68967C7.7039 4.20217 10.6336 4.31233 12 4.31233C13.3664 4.31233 16.2961 4.20217 17.5289 4.68967C17.9555 4.86077 18.2742 5.06702 18.6023 5.39749C18.9328 5.72796 19.1391 6.04436 19.3101 6.47092C19.7976 7.70374 19.6875 10.6334 19.6875 11.9998C19.6875 13.3662 19.7976 16.2936 19.3078 17.5264Z" fill="white"/>
</svg>
