<svg width="40" height="40" viewBox="0 0 40 40" fill="none" xmlns="http://www.w3.org/2000/svg">
<g clip-path="url(#clip0)">
<path d="M35.761 36.0251L30.9455 34.9652L29.4529 39.677C29.3456 40.0157 28.8868 40.0654 28.7095 39.7574L22.7521 29.4086C25.6867 28.7728 28.2977 27.2658 30.3025 25.1714L36.2028 35.4224C36.3799 35.7299 36.1076 36.1014 35.761 36.0251Z" fill="#FD646F"/>
<path d="M35.7605 36.0251L31.3094 35.0454C31.103 35 30.896 35.1195 30.8322 35.321L29.4525 39.677C29.3451 40.0157 28.8863 40.0654 28.709 39.7574L23.6054 30.891L22.7516 29.4086C25.6862 28.7728 28.2972 27.2658 30.302 25.1714L31.1492 26.6422L36.2024 35.4224C36.3793 35.73 36.107 36.1014 35.7605 36.0251Z" fill="#FD646F"/>
<path d="M35.7603 36.0246L31.3094 35.0451C31.1028 35.0001 30.8961 35.1194 30.8323 35.3204L31.3114 33.8317C31.376 33.6309 31.583 33.5124 31.7889 33.5581L35.6189 34.4095L36.2022 35.4225C36.3795 35.7297 36.1066 36.1014 35.7603 36.0246Z" fill="#FC4755"/>
<path d="M17.3424 29.2843L11.2908 39.795C11.1135 40.103 10.6547 40.0533 10.5474 39.7145L9.16754 35.3585C9.10374 35.157 8.89672 35.0375 8.69036 35.0829L4.2393 36.0625C3.89275 36.1388 3.62045 35.7674 3.79749 35.4599L9.42578 25.6816C11.527 27.6737 14.3613 28.7934 17.3424 29.2843Z" fill="#FD646F"/>
<path d="M10.2226 27.136L5.20725 35.849L4.2398 36.0621C3.89325 36.1385 3.62087 35.7671 3.79791 35.4595L8.58874 27.136L9.88428 24.8794C10.2331 25.2096 10.5975 25.5235 10.9774 25.8185L10.2226 27.136Z" fill="#FC4755"/>
<path d="M11.8813 38.7687L11.2906 39.7949C11.1134 40.1028 10.655 40.0538 10.5472 39.7148L9.16735 35.3587C9.10363 35.1569 8.89694 35.0377 8.69025 35.0826L10.2163 34.7469C10.4227 34.7015 10.6296 34.821 10.6934 35.0224L11.8813 38.7687Z" fill="#FC4755"/>
<path d="M9.56195 25.4326L13.5421 27.2275L17.3424 29.284L16.3234 31.0528C13.482 30.4759 10.8456 29.1533 8.66681 27.2055C8.64066 27.1826 8.61452 27.1596 8.58838 27.1358L9.56195 25.4326Z" fill="#FC4755"/>
<path d="M31.1504 26.6418L30.3032 25.1709L25.8202 27.1496L22.7528 29.4081L23.0976 30.0067L23.9442 31.4771L28.7102 39.7568C28.8875 40.0648 29.3463 40.0152 29.4536 39.6764L29.7571 38.7182L25.02 30.4668C27.3133 29.6688 29.4009 28.3705 31.1504 26.6418Z" fill="#FC4755"/>
<path d="M34.8263 14.8718C34.8263 18.869 33.2536 22.499 30.6941 25.1712C28.6892 27.2657 26.0782 28.7727 23.1437 29.4085C22.1299 29.6281 21.0784 29.7436 19.9992 29.7436C19.1757 29.7436 18.3686 29.6764 17.5818 29.547C14.7535 29.0816 12.194 27.8131 10.145 25.9825C10.0339 25.8841 9.92526 25.7842 9.81742 25.6818C9.43509 25.3196 9.07236 24.9369 8.72923 24.5362C8.40081 24.1511 8.092 23.7488 7.80361 23.3309C6.93763 22.078 6.25874 20.6841 5.80696 19.1911C5.39439 17.8243 5.17218 16.3747 5.17218 14.8719C5.17218 6.65865 11.8108 0 19.9992 0C21.4967 0 22.9427 0.222867 24.3046 0.637557C25.7939 1.08909 27.1828 1.77003 28.4327 2.63944C28.8494 2.92873 29.2505 3.23844 29.6336 3.56865C30.1467 4.00785 30.6287 4.48234 31.0772 4.98706C33.4096 7.61498 34.8263 11.0778 34.8263 14.8718Z" fill="#FAA515"/>
<path d="M20.0004 25.5236C25.8656 25.5236 30.6203 20.7546 30.6203 14.8717C30.6203 8.98877 25.8656 4.21973 20.0004 4.21973C14.1352 4.21973 9.38055 8.98877 9.38055 14.8717C9.38055 20.7546 14.1352 25.5236 20.0004 25.5236Z" fill="#FAD207"/>
<path d="M30.6191 14.8716C30.6191 20.7543 25.8644 25.5234 19.9994 25.5234C14.1344 25.5234 9.3797 20.7543 9.3797 14.8716C9.3797 14.4274 9.40666 13.9899 9.45976 13.5605C10.1035 18.8254 14.5772 22.9012 19.9994 22.9012C25.4216 22.9012 29.8952 18.8254 30.539 13.5605C30.5921 13.9899 30.6191 14.4275 30.6191 14.8716Z" fill="#FAA515"/>
<path fill-rule="evenodd" clip-rule="evenodd" d="M19.9994 4.22021C14.1344 4.22021 9.3797 8.98931 9.3797 14.872C9.3797 20.7547 14.1344 25.5238 19.9994 25.5238C25.8644 25.5238 30.6191 20.7547 30.6191 14.872C30.6191 8.98931 25.8644 4.22021 19.9994 4.22021ZM19.9994 24.2946C14.819 24.2946 10.6051 20.068 10.6051 14.872C10.6051 9.67605 14.819 5.44942 19.9994 5.44942C25.1797 5.44942 29.3936 9.67605 29.3936 14.872C29.3936 20.068 25.1797 24.2946 19.9994 24.2946Z" fill="#FAF063"/>
<path d="M20.3675 8.98135L21.8264 11.9614C21.8858 12.0828 22.0014 12.1669 22.1352 12.1861L25.4138 12.6572C25.7493 12.7054 25.8835 13.1177 25.6406 13.3541L23.2627 15.6697C23.1661 15.7637 23.1222 15.8992 23.1451 16.032L23.7118 19.306C23.7697 19.6404 23.418 19.8955 23.118 19.7366L20.1919 18.186C20.0723 18.1226 19.929 18.1226 19.8094 18.186L16.8833 19.7366C16.5833 19.8956 16.2316 19.6405 16.2895 19.306L16.8562 16.032C16.8791 15.8992 16.8352 15.7637 16.7386 15.6697L14.3607 13.3541C14.1178 13.1176 14.252 12.7054 14.5875 12.6572L17.8661 12.1861C17.9998 12.1669 18.1154 12.0828 18.1749 11.9614L19.6338 8.98135C19.7832 8.67614 20.2181 8.67614 20.3675 8.98135Z" fill="#FAA515"/>
</g>
<defs>
<clipPath id="clip0">
<rect width="40" height="40" fill="white"/>
</clipPath>
</defs>
</svg>
