<svg width="28" height="28" viewBox="0 0 28 28" fill="none" xmlns="http://www.w3.org/2000/svg">
<path d="M14.0001 8.39124C10.8966 8.39124 8.39193 10.8959 8.39193 13.9994C8.39193 17.103 10.8966 19.6076 14.0001 19.6076C17.1036 19.6076 19.6083 17.103 19.6083 13.9994C19.6083 10.8959 17.1036 8.39124 14.0001 8.39124ZM14.0001 17.6444C11.9931 17.6444 10.3552 16.0065 10.3552 13.9994C10.3552 11.9924 11.9931 10.3545 14.0001 10.3545C16.0072 10.3545 17.6451 11.9924 17.6451 13.9994C17.6451 16.0065 16.0072 17.6444 14.0001 17.6444ZM19.838 6.85452C19.1134 6.85452 18.5283 7.43968 18.5283 8.16429C18.5283 8.8889 19.1134 9.47406 19.838 9.47406C20.5626 9.47406 21.1478 8.89163 21.1478 8.16429C21.148 7.99223 21.1143 7.82181 21.0485 7.66281C20.9828 7.5038 20.8863 7.35933 20.7646 7.23766C20.643 7.116 20.4985 7.01953 20.3395 6.95378C20.1805 6.88804 20.0101 6.85431 19.838 6.85452ZM24.9322 13.9994C24.9322 12.4901 24.9458 10.9944 24.8611 9.48773C24.7763 7.73773 24.3771 6.1846 23.0974 4.90491C21.815 3.62249 20.2646 3.22601 18.5146 3.14124C17.0052 3.05648 15.5095 3.07015 14.0029 3.07015C12.4935 3.07015 10.9978 3.05648 9.49115 3.14124C7.74115 3.22601 6.18802 3.62523 4.90833 4.90491C3.62591 6.18734 3.22943 7.73773 3.14466 9.48773C3.0599 10.9971 3.07357 12.4928 3.07357 13.9994C3.07357 15.5061 3.0599 17.0045 3.14466 18.5112C3.22943 20.2612 3.62865 21.8143 4.90833 23.094C6.19075 24.3764 7.74115 24.7729 9.49115 24.8576C11.0005 24.9424 12.4962 24.9287 14.0029 24.9287C15.5122 24.9287 17.0079 24.9424 18.5146 24.8576C20.2646 24.7729 21.8177 24.3737 23.0974 23.094C24.3798 21.8116 24.7763 20.2612 24.8611 18.5112C24.9486 17.0045 24.9322 15.5088 24.9322 13.9994ZM22.5259 20.4471C22.3263 20.9448 22.0857 21.3166 21.7001 21.6994C21.3146 22.085 20.9454 22.3256 20.4478 22.5252C19.0095 23.0967 15.5943 22.9682 14.0001 22.9682C12.406 22.9682 8.98802 23.0967 7.54974 22.528C7.05208 22.3284 6.68021 22.0877 6.2974 21.7022C5.91185 21.3166 5.67122 20.9475 5.47161 20.4498C4.90286 19.0088 5.03138 15.5936 5.03138 13.9994C5.03138 12.4053 4.90286 8.98734 5.47161 7.54906C5.67122 7.0514 5.91185 6.67952 6.2974 6.29671C6.68294 5.9139 7.05208 5.67054 7.54974 5.47093C8.98802 4.90218 12.406 5.0307 14.0001 5.0307C15.5943 5.0307 19.0122 4.90218 20.4505 5.47093C20.9482 5.67054 21.3201 5.91116 21.7029 6.29671C22.0884 6.68226 22.329 7.0514 22.5286 7.54906C23.0974 8.98734 22.9689 12.4053 22.9689 13.9994C22.9689 15.5936 23.0974 19.0088 22.5259 20.4471Z" fill="#F8569E"/>
</svg>
