<svg width="28" height="28" viewBox="0 0 28 28" fill="none" xmlns="http://www.w3.org/2000/svg">
<path d="M5.81341 8.39684C7.22321 8.39684 8.36608 7.25397 8.36608 5.84417C8.36608 4.43437 7.22321 3.2915 5.81341 3.2915C4.40361 3.2915 3.26074 4.43437 3.26074 5.84417C3.26074 7.25397 4.40361 8.39684 5.81341 8.39684Z" fill="#F8569E"/>
<path d="M10.777 10.3305V24.4926H15.1742V17.4891C15.1742 15.6411 15.5218 13.8515 17.8132 13.8515C20.073 13.8515 20.101 15.9643 20.101 17.6058V24.4938H24.5005V16.7273C24.5005 12.9123 23.6792 9.98047 19.2202 9.98047C17.0793 9.98047 15.6443 11.1553 15.0575 12.2671H14.998V10.3305H10.777ZM3.61133 10.3305H8.01549V24.4926H3.61133V10.3305Z" fill="#F8569E"/>
</svg>
