<svg width="28" height="28" viewBox="0 0 28 28" fill="none" xmlns="http://www.w3.org/2000/svg">
<path d="M25.2297 7.30004C25.0147 5.9462 23.777 4.76309 22.4072 4.60614C16.8173 3.99699 11.1777 3.99717 5.58776 4.60669C4.22287 4.76309 2.98519 5.94598 2.76917 7.30497C2.08971 11.744 2.08997 16.2606 2.76994 20.6996C2.98508 22.0534 4.22287 23.2364 5.59236 23.3932C8.38449 23.6977 11.1911 23.8503 13.9998 23.8501C16.8085 23.8503 19.6151 23.6977 22.4072 23.3932L22.4117 23.3927C23.7767 23.2365 25.0146 22.0535 25.2305 20.6944C25.91 16.2555 25.9097 11.7389 25.2297 7.30004ZM17.9851 14.7277L12.7351 18.2277C12.6033 18.3155 12.4502 18.366 12.292 18.3736C12.1338 18.3812 11.9765 18.3458 11.8369 18.2711C11.6973 18.1964 11.5806 18.0851 11.4992 17.9493C11.4178 17.8134 11.3748 17.6581 11.3748 17.4997V10.4997C11.3748 10.3413 11.4178 10.1859 11.4992 10.0501C11.5806 9.91419 11.6973 9.80296 11.837 9.72823C11.9766 9.65351 12.1339 9.61808 12.2921 9.62574C12.4503 9.63339 12.6034 9.68384 12.7352 9.7717L17.9852 13.2717C18.105 13.3516 18.2033 13.4599 18.2713 13.5869C18.3392 13.7139 18.3748 13.8557 18.3748 13.9997C18.3748 14.1437 18.3392 14.2855 18.2713 14.4125C18.2033 14.5395 18.105 14.6478 17.9852 14.7277H17.9851Z" fill="#F8569E"/>
</svg>
