<svg width="20" height="20" viewBox="0 0 20 20" fill="none" xmlns="http://www.w3.org/2000/svg">
<path fill-rule="evenodd" clip-rule="evenodd" d="M1 2.53167C1 2.12545 1.16137 1.73586 1.44862 1.44862C1.73586 1.16137 2.12544 1 2.53167 1H17.8C18.0013 0.999673 18.2007 1.03905 18.3868 1.11589C18.5729 1.19273 18.7419 1.30551 18.8844 1.44778C19.0268 1.59005 19.1398 1.75902 19.2168 1.94501C19.2938 2.131 19.3334 2.33036 19.3333 2.53167V17.8C19.3336 18.0014 19.2941 18.2008 19.2171 18.3869C19.1402 18.5729 19.0274 18.742 18.885 18.8844C18.7427 19.0268 18.5737 19.1398 18.3876 19.2168C18.2016 19.2939 18.0022 19.3334 17.8008 19.3333H2.53167C2.33046 19.3333 2.13122 19.2937 1.94533 19.2167C1.75945 19.1396 1.59056 19.0267 1.44832 18.8844C1.30608 18.7421 1.19328 18.5732 1.11635 18.3872C1.03943 18.2013 0.999891 18.002 1 17.8008V2.53167ZM8.25667 7.99H10.7392V9.23667C11.0975 8.52 12.0142 7.875 13.3917 7.875C16.0325 7.875 16.6583 9.3025 16.6583 11.9217V16.7733H13.9858V12.5183C13.9858 11.0267 13.6275 10.185 12.7175 10.185C11.455 10.185 10.93 11.0925 10.93 12.5183V16.7733H8.25667V7.99ZM3.67333 16.6592H6.34667V7.875H3.67333V16.6583V16.6592ZM6.72917 5.01C6.73421 5.2389 6.69348 5.46649 6.60937 5.67943C6.52526 5.89237 6.39946 6.08636 6.23936 6.25003C6.07926 6.41369 5.88808 6.54373 5.67705 6.63251C5.46601 6.72129 5.23937 6.76702 5.01042 6.76702C4.78147 6.76702 4.55482 6.72129 4.34379 6.63251C4.13275 6.54373 3.94157 6.41369 3.78147 6.25003C3.62137 6.08636 3.49558 5.89237 3.41147 5.67943C3.32736 5.46649 3.28663 5.2389 3.29167 5.01C3.30156 4.56071 3.48699 4.13316 3.80824 3.81891C4.12949 3.50465 4.56102 3.32868 5.01042 3.32868C5.45981 3.32868 5.89135 3.50465 6.2126 3.81891C6.53385 4.13316 6.71927 4.56071 6.72917 5.01Z" fill="#200E32"/>
</svg>
