<svg width="20" height="20" viewBox="0 0 20 20" fill="none" xmlns="http://www.w3.org/2000/svg">
<path d="M6.2825 18.7501C13.83 18.7501 17.9587 12.4964 17.9587 7.08263C17.9587 6.90763 17.9587 6.73013 17.9513 6.55513C18.7551 5.97324 19.4488 5.25282 20 4.42763C19.2491 4.7587 18.4535 4.97689 17.6388 5.07513C18.4969 4.56218 19.1397 3.75509 19.4475 2.80388C18.6412 3.28154 17.7588 3.61685 16.8387 3.79513C16.2202 3.13641 15.4018 2.70003 14.5101 2.55358C13.6185 2.40713 12.7034 2.55879 11.9067 2.98506C11.1099 3.41133 10.476 4.08842 10.1031 4.91146C9.73012 5.7345 9.63897 6.65755 9.84375 7.53763C8.21218 7.45582 6.61602 7.03197 5.1588 6.29356C3.70159 5.55516 2.41586 4.51869 1.385 3.25138C0.861675 4.15524 0.701967 5.22438 0.938308 6.24172C1.17465 7.25905 1.78932 8.1483 2.6575 8.72888C2.00692 8.70678 1.37065 8.53208 0.8 8.21888V8.27513C0.801122 9.22198 1.12913 10.1394 1.72859 10.8723C2.32805 11.6053 3.16218 12.1087 4.09 12.2976C3.73783 12.3947 3.37404 12.443 3.00875 12.4414C2.75123 12.4422 2.49423 12.4183 2.24125 12.3701C2.50348 13.1852 3.01409 13.8978 3.70156 14.4082C4.38903 14.9186 5.21892 15.2012 6.075 15.2164C4.62069 16.3586 2.82425 16.9781 0.975 16.9751C0.649151 16.9765 0.323529 16.9577 0 16.9189C1.87689 18.1155 4.05662 18.7508 6.2825 18.7501Z" fill="#200E32"/>
</svg>
