<svg width="24" height="24" viewBox="0 0 24 24" fill="none" xmlns="http://www.w3.org/2000/svg">
<path d="M21.6254 6.25736C21.4411 5.09693 20.3803 4.08283 19.2061 3.9483C14.4148 3.42617 9.58082 3.42633 4.78946 3.94877C3.61955 4.08283 2.55868 5.09674 2.37352 6.26158C1.79113 10.0665 1.79135 13.9379 2.37418 17.7427C2.55859 18.9031 3.61955 19.9171 4.7934 20.0515C7.18665 20.3125 9.59232 20.4433 11.9998 20.4431C14.4072 20.4433 16.8129 20.3125 19.2061 20.0515L19.21 20.0511C20.38 19.9172 21.4411 18.9032 21.6261 17.7383C22.2085 13.9334 22.2082 10.0621 21.6254 6.25736ZM15.4157 12.6239L10.9157 15.6239C10.8028 15.6992 10.6715 15.7424 10.536 15.749C10.4004 15.7555 10.2656 15.7252 10.1459 15.6611C10.0262 15.5971 9.92616 15.5017 9.8564 15.3853C9.78664 15.2689 9.74979 15.1357 9.74977 14.9999V8.99993C9.74978 8.86417 9.78662 8.73097 9.85639 8.61451C9.92615 8.49806 10.0262 8.40272 10.1459 8.33867C10.2656 8.27462 10.4004 8.24425 10.536 8.25082C10.6716 8.25738 10.8029 8.30062 10.9158 8.37593L15.4158 11.3759C15.5186 11.4444 15.6028 11.5372 15.661 11.6461C15.7193 11.7549 15.7498 11.8765 15.7498 11.9999C15.7498 12.1234 15.7193 12.2449 15.661 12.3538C15.6028 12.4626 15.5186 12.5554 15.4158 12.6239H15.4157Z" fill="white"/>
</svg>
