<svg width="64" height="64" viewBox="0 0 64 64" fill="none" xmlns="http://www.w3.org/2000/svg">
<rect width="64" height="64" rx="8" fill="#FFDBEB"/>
<path d="M46.912 22.1L32.4675 15.4333C32.3213 15.3656 32.162 15.3306 32.0009 15.3306C31.8397 15.3306 31.6805 15.3656 31.5342 15.4333L17.0898 22.1C16.8969 22.1892 16.7337 22.3319 16.6194 22.5112C16.5052 22.6904 16.4448 22.8986 16.4453 23.1111V42C16.4448 42.2125 16.5052 42.4207 16.6194 42.5999C16.7337 42.7791 16.8969 42.9218 17.0898 43.0111L31.5342 49.6778C31.6805 49.7454 31.8397 49.7805 32.0009 49.7805C32.162 49.7805 32.3213 49.7454 32.4675 49.6778L46.912 43.0111C47.1049 42.9218 47.2681 42.7791 47.3823 42.5999C47.4965 42.4207 47.557 42.2125 47.5564 42V23.1111C47.557 22.8986 47.4965 22.6904 47.3823 22.5112C47.2681 22.3319 47.1049 22.1892 46.912 22.1ZM32.0009 28.5555L20.212 23.1111L32.0009 17.6667L43.7898 23.1111L32.0009 28.5555ZM45.3342 41.2889L33.112 46.9333V30.4889L45.3342 24.8444V41.2889Z" fill="url(#paint0_linear)"/>
<defs>
<linearGradient id="paint0_linear" x1="16.4453" y1="15.3306" x2="50.717" y2="46.2807" gradientUnits="userSpaceOnUse">
<stop stop-color="#FF8BBE"/>
<stop offset="1" stop-color="#DA347E"/>
</linearGradient>
</defs>
</svg>
