<svg width="64" height="64" viewBox="0 0 64 64" fill="none" xmlns="http://www.w3.org/2000/svg">
<rect width="64" height="64" rx="8" fill="#DDDFFF"/>
<path d="M29.3406 16.1667H34.8961C35.7746 16.1668 36.6222 16.4906 37.277 17.0762C37.9318 17.6619 38.3477 18.4683 38.4453 19.3414H41.2453C41.7143 19.3414 42.1787 19.4337 42.6121 19.6132C43.0454 19.7927 43.4391 20.0558 43.7707 20.3874C44.1023 20.719 44.3654 21.1127 44.5449 21.5461C44.7244 21.9794 44.8168 22.4438 44.8168 22.9128V31.2429C42.6281 30.3299 40.1917 30.1987 37.9177 30.8715C35.6437 31.5442 33.6708 32.9798 32.3311 34.9365C30.9914 36.8933 30.3667 39.2519 30.5621 41.6153C30.7576 43.9787 31.7612 46.2026 33.4041 47.9128H22.9914C22.0441 47.9128 21.1357 47.5365 20.466 46.8667C19.7962 46.197 19.4199 45.2886 19.4199 44.3414V22.9128C19.4199 21.9656 19.7962 21.0572 20.466 20.3874C21.1357 19.7176 22.0441 19.3414 22.9914 19.3414H25.7914C25.889 18.4683 26.3049 17.6619 26.9597 17.0762C27.6144 16.4906 28.4621 16.1668 29.3406 16.1667ZM34.8961 18.5477H29.3406C29.0248 18.5477 28.722 18.6731 28.4988 18.8964C28.2755 19.1196 28.1501 19.4224 28.1501 19.7382C28.1501 20.0539 28.2755 20.3567 28.4988 20.58C28.722 20.8032 29.0248 20.9287 29.3406 20.9287H34.8961C35.2119 20.9287 35.5147 20.8032 35.7379 20.58C35.9612 20.3567 36.0866 20.0539 36.0866 19.7382C36.0866 19.4224 35.9612 19.1196 35.7379 18.8964C35.5147 18.6731 35.2119 18.5477 34.8961 18.5477Z" fill="url(#paint0_linear)"/>
<g clip-path="url(#clip0)">
<path fill-rule="evenodd" clip-rule="evenodd" d="M32 40.75C32 38.4294 32.9219 36.2038 34.5628 34.5628C36.2038 32.9219 38.4294 32 40.75 32C43.0706 32 45.2962 32.9219 46.9372 34.5628C48.5781 36.2038 49.5 38.4294 49.5 40.75C49.5 43.0706 48.5781 45.2962 46.9372 46.9372C45.2962 48.5781 43.0706 49.5 40.75 49.5C38.4294 49.5 36.2038 48.5781 34.5628 46.9372C32.9219 45.2962 32 43.0706 32 40.75V40.75ZM40.2507 44.495L45.2883 38.1973L44.3783 37.4693L40.0827 42.8372L37.04 40.302L36.2933 41.198L40.2507 44.4962V44.495Z" fill="url(#paint1_linear)"/>
</g>
<defs>
<linearGradient id="paint0_linear" x1="19.4199" y1="16.1667" x2="54.37" y2="65.516" gradientUnits="userSpaceOnUse">
<stop stop-color="#8A90F8"/>
<stop offset="1" stop-color="#3B42BD"/>
</linearGradient>
<linearGradient id="paint1_linear" x1="32" y1="32" x2="49.5198" y2="62.9222" gradientUnits="userSpaceOnUse">
<stop stop-color="#8A90F8"/>
<stop offset="1" stop-color="#3B42BD"/>
</linearGradient>
<clipPath id="clip0">
<rect width="17.5" height="17.5" fill="white" transform="translate(32 32)"/>
</clipPath>
</defs>
</svg>
