<svg width="72" height="72" viewBox="0 0 72 72" fill="none" xmlns="http://www.w3.org/2000/svg">
<circle cx="36" cy="36" r="36" fill="#C3F0FF"/>
<circle cx="36" cy="36" r="36" fill="#DDDFFF"/>
<path d="M39.5 39.9999C40.2957 39.9999 41.0587 40.316 41.6213 40.8786C42.1839 41.4412 42.5 42.2043 42.5 42.9999V43.9999C42.5 47.9419 38.78 51.9999 32.5 51.9999C26.22 51.9999 22.5 47.9419 22.5 43.9999V42.9999C22.5 42.2043 22.8161 41.4412 23.3787 40.8786C23.9413 40.316 24.7044 39.9999 25.5 39.9999H39.5ZM32.5 26.9999C33.9587 26.9999 35.3576 27.5794 36.3891 28.6109C37.4205 29.6423 38 31.0412 38 32.4999C38 33.9586 37.4205 35.3576 36.3891 36.389C35.3576 37.4205 33.9587 37.9999 32.5 37.9999C31.0413 37.9999 29.6424 37.4205 28.6109 36.389C27.5795 35.3576 27 33.9586 27 32.4999C27 31.0412 27.5795 29.6423 28.6109 28.6109C29.6424 27.5794 31.0413 26.9999 32.5 26.9999V26.9999ZM50.5 19.9999C51.5088 20.0001 52.4803 20.3815 53.2198 21.0676C53.9594 21.7537 54.4123 22.694 54.488 23.6999L54.5 23.9999V27.9999C54.5003 29.0091 54.1192 29.9811 53.433 30.721C52.7468 31.461 51.8063 31.9143 50.8 31.9899L50.5 31.9999H47.498L45.102 35.1999C44.042 36.6119 41.894 36.0399 41.548 34.4479L41.514 34.2259L41.5 33.9999V31.8699L41.344 31.8299C40.6251 31.6121 39.9819 31.1966 39.4879 30.6308C38.9939 30.065 38.6689 29.3716 38.55 28.6299L38.51 28.2979L38.5 27.9999V23.9999C38.4997 22.9908 38.8808 22.0188 39.567 21.2788C40.2532 20.5389 41.1937 20.0856 42.2 20.0099L42.5 19.9999H50.5Z" fill="url(#paint0_linear)"/>
<defs>
<linearGradient id="paint0_linear" x1="22.5" y1="19.9999" x2="54.5361" y2="76.5434" gradientUnits="userSpaceOnUse">
<stop stop-color="#8A90F8"/>
<stop offset="1" stop-color="#3B42BD"/>
</linearGradient>
</defs>
</svg>
