<svg width="72" height="72" viewBox="0 0 72 72" fill="none" xmlns="http://www.w3.org/2000/svg">
<circle cx="36" cy="36" r="36" fill="#FFEBCD"/>
<path fill-rule="evenodd" clip-rule="evenodd" d="M23.565 52.6667H29.3333L31.6767 46.5034L26.7333 44.83L23.565 52.6667ZM40.3233 46.5034L42.6667 52.6667H48.435L45.2667 44.83L40.3233 46.5034V46.5034ZM49.3333 22.6667H38.5L37.6667 19.3334H34.3333L33.5 22.6667H22.6667C22.2246 22.6667 21.8007 22.8423 21.4882 23.1549C21.1756 23.4674 21 23.8913 21 24.3334V42.6667C21 43.1087 21.1756 43.5327 21.4882 43.8452C21.8007 44.1578 22.2246 44.3334 22.6667 44.3334H49.3333C49.7754 44.3334 50.1993 44.1578 50.5118 43.8452C50.8244 43.5327 51 43.1087 51 42.6667V24.3334C51 23.8913 50.8244 23.4674 50.5118 23.1549C50.1993 22.8423 49.7754 22.6667 49.3333 22.6667V22.6667Z" fill="url(#paint0_linear)"/>
<defs>
<linearGradient id="paint0_linear" x1="21" y1="19.3334" x2="55.1433" y2="60.189" gradientUnits="userSpaceOnUse">
<stop stop-color="#FF996D"/>
<stop offset="1" stop-color="#DB2F17"/>
</linearGradient>
</defs>
</svg>
