<svg width="72" height="72" viewBox="0 0 72 72" fill="none" xmlns="http://www.w3.org/2000/svg">
<circle cx="36" cy="36" r="36" fill="#FFEBCD"/>
<path d="M33.3415 20.1666H38.8971C39.7756 20.1667 40.6232 20.4904 41.278 21.0761C41.9327 21.6618 42.3487 22.4682 42.4463 23.3412H45.2463C45.7153 23.3412 46.1797 23.4336 46.613 23.6131C47.0463 23.7926 47.44 24.0556 47.7717 24.3873C48.1033 24.7189 48.3664 25.1126 48.5459 25.5459C48.7253 25.9792 48.8177 26.4437 48.8177 26.9127V35.2428C46.6291 34.3298 44.1927 34.1986 41.9187 34.8713C39.6446 35.5441 37.6718 36.9796 36.3321 38.9364C34.9924 40.8932 34.3677 43.2518 34.5631 45.6152C34.7585 47.9786 35.7621 50.2025 37.405 51.9127H26.9923C26.0451 51.9127 25.1367 51.5364 24.4669 50.8666C23.7972 50.1968 23.4209 49.2884 23.4209 48.3412V26.9127C23.4209 25.9655 23.7972 25.057 24.4669 24.3873C25.1367 23.7175 26.0451 23.3412 26.9923 23.3412H29.7923C29.8899 22.4682 30.3059 21.6618 30.9606 21.0761C31.6154 20.4904 32.4631 20.1667 33.3415 20.1666V20.1666ZM38.8971 22.5476H33.3415C33.0258 22.5476 32.723 22.673 32.4997 22.8963C32.2765 23.1195 32.1511 23.4223 32.1511 23.7381C32.1511 24.0538 32.2765 24.3566 32.4997 24.5798C32.723 24.8031 33.0258 24.9285 33.3415 24.9285H38.8971C39.2128 24.9285 39.5156 24.8031 39.7389 24.5798C39.9621 24.3566 40.0876 24.0538 40.0876 23.7381C40.0876 23.4223 39.9621 23.1195 39.7389 22.8963C39.5156 22.673 39.2128 22.5476 38.8971 22.5476ZM53.5796 44.7698C53.5796 47.0852 52.6598 49.3057 51.0226 50.943C49.3854 52.5802 47.1649 53.5 44.8495 53.5C42.5341 53.5 40.3135 52.5802 38.6763 50.943C37.0391 49.3057 36.1193 47.0852 36.1193 44.7698C36.1193 42.4544 37.0391 40.2339 38.6763 38.5966C40.3135 36.9594 42.5341 36.0396 44.8495 36.0396C47.1649 36.0396 49.3854 36.9594 51.0226 38.5966C52.6598 40.2339 53.5796 42.4544 53.5796 44.7698V44.7698ZM44.8495 39.2142C44.639 39.2142 44.4371 39.2979 44.2883 39.4467C44.1394 39.5955 44.0558 39.7974 44.0558 40.0079V46.3571C44.0558 46.5676 44.1394 46.7695 44.2883 46.9183C44.4371 47.0671 44.639 47.1508 44.8495 47.1508C45.06 47.1508 45.2618 47.0671 45.4107 46.9183C45.5595 46.7695 45.6431 46.5676 45.6431 46.3571V40.0079C45.6431 39.7974 45.5595 39.5955 45.4107 39.4467C45.2618 39.2979 45.06 39.2142 44.8495 39.2142ZM44.8495 50.5238C45.1126 50.5238 45.3649 50.4192 45.551 50.2332C45.737 50.0472 45.8415 49.7948 45.8415 49.5317C45.8415 49.2686 45.737 49.0163 45.551 48.8302C45.3649 48.6442 45.1126 48.5396 44.8495 48.5396C44.5864 48.5396 44.334 48.6442 44.148 48.8302C43.9619 49.0163 43.8574 49.2686 43.8574 49.5317C43.8574 49.7948 43.9619 50.0472 44.148 50.2332C44.334 50.4192 44.5864 50.5238 44.8495 50.5238V50.5238Z" fill="url(#paint0_linear)"/>
<defs>
<linearGradient id="paint0_linear" x1="23.4209" y1="20.1666" x2="57.5318" y2="61.1994" gradientUnits="userSpaceOnUse">
<stop stop-color="#FF996D"/>
<stop offset="1" stop-color="#DB2F17"/>
</linearGradient>
</defs>
</svg>
