<svg width="30" height="73" viewBox="0 0 30 73" fill="none" xmlns="http://www.w3.org/2000/svg">
<path d="M14.9231 71H13.4231V72.5H14.9231V71ZM28.2671 71V72.5H29.7671V71H28.2671ZM28.2671 1.88H29.7671V0.379997H28.2671V1.88ZM14.9231 1.88V0.379997H14.5076L14.1514 0.593758L14.9231 1.88ZM1.96313 9.65599L1.19138 8.36975L0.463125 8.80671V9.65599H1.96313ZM1.96313 24.056H0.463125V26.739L2.74874 25.3338L1.96313 24.056ZM14.9231 16.088H16.4231V13.405L14.1375 14.8102L14.9231 16.088ZM14.9231 72.5H28.2671V69.5H14.9231V72.5ZM29.7671 71V1.88H26.7671V71H29.7671ZM28.2671 0.379997H14.9231V3.38H28.2671V0.379997ZM14.1514 0.593758L1.19138 8.36975L2.73487 10.9422L15.6949 3.16624L14.1514 0.593758ZM0.463125 9.65599V24.056H3.46313V9.65599H0.463125ZM2.74874 25.3338L15.7087 17.3658L14.1375 14.8102L1.17751 22.7782L2.74874 25.3338ZM13.4231 16.088V71H16.4231V16.088H13.4231Z" fill="url(#paint0_linear)"/>
<defs>
<linearGradient id="paint0_linear" x1="-12.6911" y1="-43.8209" x2="87.9623" y2="-10.7603" gradientUnits="userSpaceOnUse">
<stop stop-color="#5AA6FF"/>
<stop offset="1" stop-color="#0874D8"/>
</linearGradient>
</defs>
</svg>
