<svg width="52" height="75" viewBox="0 0 52 75" fill="none" xmlns="http://www.w3.org/2000/svg">
<path d="M1.83125 72.904H0.33125V74.404H1.83125V72.904ZM50.2153 72.904V74.404H51.7153V72.904H50.2153ZM50.2153 60.616H51.7153V59.116H50.2153V60.616ZM22.0873 60.616L21.099 59.4876L18.0977 62.116H22.0873V60.616ZM37.5433 47.08L36.5574 45.9495L36.555 45.9516L37.5433 47.08ZM44.5033 40.648L45.5639 41.7087L45.5728 41.6997L44.5033 40.648ZM48.7753 34.408L50.154 34.9989L50.157 34.9918L48.7753 34.408ZM38.6953 5.41599L37.9638 6.72556L37.9708 6.72946L37.9778 6.73329L38.6953 5.41599ZM13.6393 5.272L14.3193 6.609L14.3193 6.609L13.6393 5.272ZM4.95125 13.288L6.23644 14.0615L6.23644 14.0615L4.95125 13.288ZM1.83125 25.576H0.33125V27.076H1.83125V25.576ZM15.2713 25.576V27.076H16.8221L16.7704 25.526L15.2713 25.576ZM16.5673 20.248L17.8712 20.9895L17.8773 20.9786L16.5673 20.248ZM20.4553 16.264L21.2234 17.5524L21.2306 17.5481L20.4553 16.264ZM33.8953 17.848L32.7846 18.8562L32.7927 18.8651L32.8009 18.8739L33.8953 17.848ZM35.4313 30.424L34.105 29.7233L34.105 29.7233L35.4313 30.424ZM30.8233 35.848L29.8308 34.7232L29.8276 34.7261L30.8233 35.848ZM1.83125 61.576L0.835627 60.4541L0.33125 60.9017V61.576H1.83125ZM1.83125 74.404H50.2153V71.404H1.83125V74.404ZM51.7153 72.904V60.616H48.7153V72.904H51.7153ZM50.2153 59.116H22.0873V62.116H50.2153V59.116ZM23.0755 61.7444L38.5315 48.2084L36.555 45.9516L21.099 59.4876L23.0755 61.7444ZM38.5291 48.2105C41.2982 45.7956 43.6449 43.6277 45.5639 41.7087L43.4426 39.5873C41.5856 41.4443 39.2923 43.5644 36.5574 45.9495L38.5291 48.2105ZM45.5728 41.6997C47.5779 39.6606 49.1131 37.4275 50.154 34.9989L47.3965 33.8171C46.5174 35.8685 45.2046 37.7954 43.4337 39.5963L45.5728 41.6997ZM50.157 34.9918C51.2191 32.4782 51.7153 29.4159 51.7153 25.864H48.7153C48.7153 29.1601 48.2515 31.7938 47.3935 33.8242L50.157 34.9918ZM51.7153 25.864C51.7153 20.9966 50.6388 16.6491 48.4398 12.8697L45.8467 14.3783C47.7438 17.6388 48.7153 21.4514 48.7153 25.864H51.7153ZM48.4398 12.8697C46.2535 9.11206 43.237 6.18159 39.4127 4.0987L37.9778 6.73329C41.3215 8.5544 43.937 11.0959 45.8467 14.3783L48.4398 12.8697ZM39.4267 4.10643C35.6275 1.98435 31.3388 0.939999 26.5993 0.939999V3.94C30.8837 3.94 34.659 4.87965 37.9638 6.72556L39.4267 4.10643ZM26.5993 0.939999C21.478 0.939999 16.9172 1.92188 12.9592 3.935L14.3193 6.609C17.7853 4.84612 21.8645 3.94 26.5993 3.94V0.939999ZM12.9592 3.935C9.00525 5.94607 5.89588 8.80958 3.66606 12.5145L6.23644 14.0615C8.16663 10.8544 10.8492 8.37392 14.3193 6.609L12.9592 3.935ZM3.66606 12.5145C1.42267 16.242 0.33125 20.6154 0.33125 25.576H3.33125C3.33125 21.0646 4.31983 17.246 6.23644 14.0615L3.66606 12.5145ZM1.83125 27.076H15.2713V24.076H1.83125V27.076ZM16.7704 25.526C16.7154 23.876 17.0834 22.3749 17.8712 20.9894L15.2633 19.5065C14.1951 21.3851 13.6991 23.436 13.7721 25.626L16.7704 25.526ZM17.8773 20.9786C18.6746 19.549 19.7819 18.4117 21.2233 17.5524L19.6872 14.9756C17.8006 16.1003 16.3159 17.619 15.2572 19.5174L17.8773 20.9786ZM21.2306 17.5481C22.6665 16.6811 24.3444 16.228 26.3113 16.228V13.228C23.8621 13.228 21.636 13.7989 19.6799 14.9799L21.2306 17.5481ZM26.3113 16.228C29.1161 16.228 31.2188 17.1311 32.7846 18.8562L35.0059 16.8398C32.7957 14.4049 29.8424 13.228 26.3113 13.228V16.228ZM32.8009 18.8739C34.4263 20.6076 35.2753 22.8322 35.2753 25.672H38.2753C38.2753 22.1758 37.2042 19.1844 34.9896 16.8221L32.8009 18.8739ZM35.2753 25.672C35.2753 26.837 34.9203 28.1799 34.105 29.7233L36.7575 31.1247C37.7342 29.2761 38.2753 27.451 38.2753 25.672H35.2753ZM34.105 29.7233C33.3255 31.1987 31.9335 32.868 29.8308 34.7232L31.8157 36.9728C34.065 34.988 35.745 33.0413 36.7575 31.1247L34.105 29.7233ZM29.8276 34.7261L0.835627 60.4541L2.82687 62.6979L31.8189 36.9699L29.8276 34.7261ZM0.33125 61.576V72.904H3.33125V61.576H0.33125Z" fill="url(#paint0_linear)"/>
<defs>
<linearGradient id="paint0_linear" x1="-3" y1="-29" x2="116.216" y2="41.177" gradientUnits="userSpaceOnUse">
<stop stop-color="#FF996D"/>
<stop offset="1" stop-color="#DB2F17"/>
</linearGradient>
</defs>
</svg>
