<svg width="51" height="74" viewBox="0 0 51 74" fill="none" xmlns="http://www.w3.org/2000/svg">
<path d="M37.0206 69.224L37.7462 70.5369L37.7549 70.532L37.0206 69.224ZM45.8046 60.968L47.0687 61.7756L47.072 61.7703L45.8046 60.968ZM47.3406 40.04L45.9458 40.5918L45.9495 40.6011L45.9533 40.6103L47.3406 40.04ZM42.2046 32.456L41.1671 33.5393L41.1751 33.5469L42.2046 32.456ZM33.8526 27.752L32.8087 26.6749L30.9558 28.4706L33.4332 29.1922L33.8526 27.752ZM47.8686 14.168L48.9126 15.2451L49.3686 14.8031V14.168H47.8686ZM47.8686 1.88H49.3686V0.379997H47.8686V1.88ZM4.66863 1.88V0.379997H3.16863V1.88H4.66863ZM4.66863 14.168H3.16863V15.668H4.66863V14.168ZM32.4126 14.168L33.3706 15.3223L36.5689 12.668H32.4126V14.168ZM13.7886 29.624L12.8307 28.4697L11.8622 29.2735L12.4855 30.3669L13.7886 29.624ZM19.6446 39.896L18.3415 40.6389L19.097 41.9641L20.4093 41.1864L19.6446 39.896ZM32.7966 41.576L31.7038 42.6035L31.7117 42.6119L31.7198 42.6202L32.7966 41.576ZM34.3806 54.632L33.0988 53.8529L33.0932 53.8621L33.0877 53.8715L34.3806 54.632ZM30.4446 58.52L29.695 57.2207L29.6841 57.2271L30.4446 58.52ZM18.5886 57.896L17.7111 59.1125L17.7224 59.1207L17.7338 59.1286L18.5886 57.896ZM14.6526 51.992L16.1023 51.6066L15.7172 50.1579L14.2682 50.5421L14.6526 51.992ZM1.98063 55.352L1.59618 53.9021L0.112827 54.2954L0.539874 55.7694L1.98063 55.352ZM6.92463 64.28L5.81596 65.2904L5.82296 65.298L6.92463 64.28ZM15.1326 70.184L14.5182 71.5525L14.5299 71.5576L15.1326 70.184ZM25.0206 73.748C29.6148 73.748 33.8661 72.6811 37.7462 70.5369L36.2951 67.9111C32.8792 69.7989 29.1305 70.748 25.0206 70.748V73.748ZM37.7549 70.532C41.6135 68.3658 44.7252 65.4437 47.0687 61.7756L44.5406 60.1604C42.4681 63.4043 39.7238 65.9862 36.2863 67.916L37.7549 70.532ZM47.072 61.7703C49.4404 58.029 50.6166 53.8279 50.6166 49.208H47.6166C47.6166 53.2921 46.5849 56.931 44.5372 60.1657L47.072 61.7703ZM50.6166 49.208C50.6166 45.7879 49.9892 42.5375 48.728 39.4696L45.9533 40.6103C47.0601 43.3025 47.6166 46.1641 47.6166 49.208H50.6166ZM48.7354 39.4882C47.5028 36.3724 45.6663 33.6602 43.2341 31.3651L41.1751 33.5469C43.2869 35.5398 44.8744 37.8836 45.9458 40.5918L48.7354 39.4882ZM43.2422 31.3727C40.7803 29.0149 37.7782 27.333 34.2721 26.3118L33.4332 29.1922C36.519 30.0909 39.085 31.5451 41.1671 33.5393L43.2422 31.3727ZM34.8966 28.8291L48.9126 15.2451L46.8247 13.0909L32.8087 26.6749L34.8966 28.8291ZM49.3686 14.168V1.88H46.3686V14.168H49.3686ZM47.8686 0.379997H4.66863V3.38H47.8686V0.379997ZM3.16863 1.88V14.168H6.16863V1.88H3.16863ZM4.66863 15.668H32.4126V12.668H4.66863V15.668ZM31.4547 13.0137L12.8307 28.4697L14.7466 30.7783L33.3706 15.3223L31.4547 13.0137ZM12.4855 30.3669L18.3415 40.6389L20.9477 39.1531L15.0917 28.8811L12.4855 30.3669ZM20.4093 41.1864C21.9255 40.2879 23.4557 39.86 25.0206 39.86V36.86C22.8735 36.86 20.8197 37.456 18.8799 38.6056L20.4093 41.1864ZM25.0206 39.86C27.8101 39.86 29.9947 40.7858 31.7038 42.6035L33.8894 40.5485C31.5666 38.0782 28.5671 36.86 25.0206 36.86V39.86ZM31.7198 42.6202C33.4929 44.4487 34.3686 46.6168 34.3686 49.208H37.3686C37.3686 45.8472 36.1964 42.9272 33.8735 40.5318L31.7198 42.6202ZM34.3686 49.208C34.3686 50.9284 33.9424 52.4651 33.0988 53.8529L35.6624 55.4111C36.8028 53.5349 37.3686 51.4556 37.3686 49.208H34.3686ZM33.0877 53.8715C32.2612 55.2765 31.1378 56.3883 29.695 57.2207L31.1942 59.8193C33.0794 58.7317 34.58 57.2515 35.6735 55.3925L33.0877 53.8715ZM29.6841 57.2271C28.2938 58.0449 26.7505 58.46 25.0206 58.46V61.46C27.2587 61.46 29.3314 60.9151 31.2052 59.8129L29.6841 57.2271ZM25.0206 58.46C23.0373 58.46 21.1892 57.8742 19.4435 56.6634L17.7338 59.1286C19.9561 60.6698 22.3959 61.46 25.0206 61.46V58.46ZM19.4661 56.6795C17.8202 55.4922 16.6936 53.831 16.1023 51.6066L13.203 52.3774C13.9557 55.209 15.4531 57.4838 17.7111 59.1125L19.4661 56.6795ZM14.2682 50.5421L1.59618 53.9021L2.36507 56.8019L15.0371 53.4419L14.2682 50.5421ZM0.539874 55.7694C1.59297 59.4043 3.35079 62.5855 5.81599 65.2904L8.03326 63.2696C5.89046 60.9185 4.35228 58.1477 3.42138 54.9346L0.539874 55.7694ZM5.82296 65.298C8.29593 67.9742 11.1976 70.0615 14.5182 71.5524L15.747 68.8156C12.7956 67.4905 10.2253 65.6418 8.0263 63.262L5.82296 65.298ZM14.5299 71.5576C17.8577 73.0177 21.3591 73.748 25.0206 73.748V70.748C21.7701 70.748 18.6795 70.1023 15.7353 68.8104L14.5299 71.5576Z" fill="url(#paint0_linear)"/>
<defs>
<linearGradient id="paint0_linear" x1="-2" y1="-31" x2="93.8527" y2="10.7069" gradientUnits="userSpaceOnUse">
<stop stop-color="#FF8BBE"/>
<stop offset="1" stop-color="#DA347E"/>
</linearGradient>
</defs>
</svg>
