<svg width="54" height="73" viewBox="0 0 54 73" fill="none" xmlns="http://www.w3.org/2000/svg">
<path d="M32.3168 71H30.8168V72.5H32.3168V71ZM45.5648 71V72.5H47.0648V71H45.5648ZM45.5648 60.248V58.748H44.0648V60.248H45.5648ZM51.7087 60.248V61.748H53.2087V60.248H51.7087ZM51.7087 48.056H53.2087V46.556H51.7087V48.056ZM45.5648 48.056H44.0648V49.556H45.5648V48.056ZM45.5648 30.776H47.0648V29.276H45.5648V30.776ZM32.3168 30.776V29.276H30.8168V30.776H32.3168ZM32.3168 48.056V49.556H33.8168V48.056H32.3168ZM17.2448 48.056L15.8882 47.4158L14.8782 49.556H17.2448V48.056ZM39.0368 1.88L40.3933 2.52019L41.4033 0.379997H39.0368V1.88ZM24.0608 1.88V0.379997H23.11L22.7042 1.23981L24.0608 1.88ZM2.26875 48.056L0.912226 47.4158L0.76875 47.7198V48.056H2.26875ZM2.26875 60.248H0.76875V61.748H2.26875V60.248ZM32.3168 60.248H33.8168V58.748H32.3168V60.248ZM32.3168 72.5H45.5648V69.5H32.3168V72.5ZM47.0648 71V60.248H44.0648V71H47.0648ZM45.5648 61.748H51.7087V58.748H45.5648V61.748ZM53.2087 60.248V48.056H50.2087V60.248H53.2087ZM51.7087 46.556H45.5648V49.556H51.7087V46.556ZM47.0648 48.056V30.776H44.0648V48.056H47.0648ZM45.5648 29.276H32.3168V32.276H45.5648V29.276ZM30.8168 30.776V48.056H33.8168V30.776H30.8168ZM32.3168 46.556H17.2448V49.556H32.3168V46.556ZM18.6013 48.6962L40.3933 2.52019L37.6802 1.23981L15.8882 47.4158L18.6013 48.6962ZM39.0368 0.379997H24.0608V3.38H39.0368V0.379997ZM22.7042 1.23981L0.912226 47.4158L3.62527 48.6962L25.4173 2.52019L22.7042 1.23981ZM0.76875 48.056V60.248H3.76875V48.056H0.76875ZM2.26875 61.748H32.3168V58.748H2.26875V61.748ZM30.8168 60.248V71H33.8168V60.248H30.8168Z" fill="url(#paint0_linear)"/>
<defs>
<linearGradient id="paint0_linear" x1="-3" y1="-31" x2="146.495" y2="89.851" gradientUnits="userSpaceOnUse">
<stop stop-color="#8A90F8"/>
<stop offset="1" stop-color="#3B42BD"/>
</linearGradient>
</defs>
</svg>
