<svg width="42" height="42" viewBox="0 0 42 42" fill="none" xmlns="http://www.w3.org/2000/svg">
<path fill-rule="evenodd" clip-rule="evenodd" d="M15.75 33.25C14 33.25 8.74998 28 8.74998 26.25C8.74998 25.6673 9.33273 24.5 10.5 22.75L5.90973 21.602C5.63755 21.5341 5.38568 21.4018 5.17535 21.2162C4.96502 21.0305 4.80239 20.7971 4.70118 20.5355C4.59996 20.2738 4.56312 19.9917 4.59376 19.7129C4.6244 19.434 4.72162 19.1667 4.87723 18.9333L6.31573 16.7755C6.5161 16.4752 6.80444 16.2442 7.14124 16.1142C7.47803 15.9841 7.8468 15.9615 8.19698 16.0493L14 17.5C21 7 31.5 3.5 38.5 3.5C38.5 10.5 35 21 24.5 28L25.9525 33.803C26.0401 34.1534 26.0172 34.5223 25.8868 34.8591C25.7565 35.1959 25.5251 35.4841 25.2245 35.6843L23.0667 37.1228C22.8333 37.2784 22.5659 37.3756 22.2871 37.4062C22.0083 37.4369 21.7261 37.4 21.4645 37.2988C21.2029 37.1976 20.9694 37.035 20.7838 36.8246C20.5982 36.6143 20.4659 36.3624 20.398 36.0903L19.25 31.5C17.5 32.6673 16.3327 33.25 15.75 33.25ZM27.125 17.5C27.8212 17.5 28.4889 17.2234 28.9811 16.7312C29.4734 16.2389 29.75 15.5712 29.75 14.875C29.75 14.1788 29.4734 13.5111 28.9811 13.0188C28.4889 12.5266 27.8212 12.25 27.125 12.25C26.4288 12.25 25.7611 12.5266 25.2688 13.0188C24.7765 13.5111 24.5 14.1788 24.5 14.875C24.5 15.5712 24.7765 16.2389 25.2688 16.7312C25.7611 17.2234 26.4288 17.5 27.125 17.5V17.5ZM6.99998 28L8.74998 30.625C7.58273 31.7923 6.99998 33.25 6.99998 35C8.74998 35 10.2077 34.4173 11.375 33.25L14 35C12.005 36.995 9.15598 38.1378 5.45473 38.4265C5.20266 38.4462 4.9493 38.4111 4.7121 38.3236C4.47491 38.236 4.2595 38.0981 4.08071 37.9193C3.90192 37.7405 3.764 37.5251 3.67643 37.2879C3.58887 37.0507 3.55375 36.7973 3.57348 36.5453C3.86223 32.844 5.00498 29.995 6.99998 28Z" fill="white"/>
</svg>
