<svg width="88" height="88" viewBox="0 0 88 88" fill="none" xmlns="http://www.w3.org/2000/svg">
<circle cx="44" cy="44" r="44" fill="#C3F0FF"/>
<path d="M30.2 29.05C30.2 28.135 30.5635 27.2575 31.2105 26.6105C31.8575 25.9635 32.735 25.6 33.65 25.6H47.45C48.365 25.6 49.2425 25.9635 49.8895 26.6105C50.5365 27.2575 50.9 28.135 50.9 29.05V39.4H54.35C55.265 39.4 56.1425 39.7635 56.7895 40.4105C57.4365 41.0575 57.8 41.935 57.8 42.85V61.25C57.8 61.555 57.6789 61.8475 57.4632 62.0631C57.2475 62.2788 56.955 62.4 56.65 62.4H50.9V54.35C50.9 54.045 50.7789 53.7525 50.5632 53.5368C50.3475 53.3211 50.055 53.2 49.75 53.2H38.25C37.945 53.2 37.6525 53.3211 37.4368 53.5368C37.2212 53.7525 37.1 54.045 37.1 54.35V62.4H31.35C31.045 62.4 30.7525 62.2788 30.5368 62.0631C30.3212 61.8475 30.2 61.555 30.2 61.25V29.05ZM36.525 35.95C36.9825 35.95 37.4213 35.7682 37.7448 35.4447C38.0683 35.1212 38.25 34.6825 38.25 34.225C38.25 33.7675 38.0683 33.3287 37.7448 33.0052C37.4213 32.6817 36.9825 32.5 36.525 32.5C36.0675 32.5 35.6288 32.6817 35.3053 33.0052C34.9818 33.3287 34.8 33.7675 34.8 34.225C34.8 34.6825 34.9818 35.1212 35.3053 35.4447C35.6288 35.7682 36.0675 35.95 36.525 35.95ZM38.25 41.125C38.25 40.6675 38.0683 40.2287 37.7448 39.9052C37.4213 39.5817 36.9825 39.4 36.525 39.4C36.0675 39.4 35.6288 39.5817 35.3053 39.9052C34.9818 40.2287 34.8 40.6675 34.8 41.125C34.8 41.5825 34.9818 42.0212 35.3053 42.3447C35.6288 42.6682 36.0675 42.85 36.525 42.85C36.9825 42.85 37.4213 42.6682 37.7448 42.3447C38.0683 42.0212 38.25 41.5825 38.25 41.125ZM36.525 49.75C36.7515 49.75 36.9759 49.7054 37.1851 49.6187C37.3944 49.532 37.5846 49.4049 37.7448 49.2447C37.905 49.0845 38.032 48.8944 38.1187 48.6851C38.2054 48.4758 38.25 48.2515 38.25 48.025C38.25 47.7984 38.2054 47.5741 38.1187 47.3648C38.032 47.1556 37.905 46.9654 37.7448 46.8052C37.5846 46.645 37.3944 46.518 37.1851 46.4313C36.9759 46.3446 36.7515 46.3 36.525 46.3C36.0675 46.3 35.6288 46.4817 35.3053 46.8052C34.9818 47.1287 34.8 47.5675 34.8 48.025C34.8 48.4825 34.9818 48.9212 35.3053 49.2447C35.6288 49.5682 36.0675 49.75 36.525 49.75V49.75ZM45.15 34.225C45.15 33.7675 44.9683 33.3287 44.6448 33.0052C44.3213 32.6817 43.8825 32.5 43.425 32.5C42.9675 32.5 42.5288 32.6817 42.2053 33.0052C41.8818 33.3287 41.7 33.7675 41.7 34.225C41.7 34.6825 41.8818 35.1212 42.2053 35.4447C42.5288 35.7682 42.9675 35.95 43.425 35.95C43.8825 35.95 44.3213 35.7682 44.6448 35.4447C44.9683 35.1212 45.15 34.6825 45.15 34.225ZM43.425 42.85C43.8825 42.85 44.3213 42.6682 44.6448 42.3447C44.9683 42.0212 45.15 41.5825 45.15 41.125C45.15 40.6675 44.9683 40.2287 44.6448 39.9052C44.3213 39.5817 43.8825 39.4 43.425 39.4C42.9675 39.4 42.5288 39.5817 42.2053 39.9052C41.8818 40.2287 41.7 40.6675 41.7 41.125C41.7 41.5825 41.8818 42.0212 42.2053 42.3447C42.5288 42.6682 42.9675 42.85 43.425 42.85ZM45.15 48.025C45.15 47.5675 44.9683 47.1287 44.6448 46.8052C44.3213 46.4817 43.8825 46.3 43.425 46.3C42.9675 46.3 42.5288 46.4817 42.2053 46.8052C41.8818 47.1287 41.7 47.5675 41.7 48.025C41.7 48.4825 41.8818 48.9212 42.2053 49.2447C42.5288 49.5682 42.9675 49.75 43.425 49.75C43.8825 49.75 44.3213 49.5682 44.6448 49.2447C44.9683 48.9212 45.15 48.4825 45.15 48.025ZM50.325 49.75C50.5515 49.75 50.7759 49.7054 50.9851 49.6187C51.1944 49.532 51.3846 49.4049 51.5448 49.2447C51.705 49.0845 51.832 48.8944 51.9187 48.6851C52.0054 48.4758 52.05 48.2515 52.05 48.025C52.05 47.7984 52.0054 47.5741 51.9187 47.3648C51.832 47.1556 51.705 46.9654 51.5448 46.8052C51.3846 46.645 51.1944 46.518 50.9851 46.4313C50.7759 46.3446 50.5515 46.3 50.325 46.3C49.8675 46.3 49.4288 46.4817 49.1053 46.8052C48.7818 47.1287 48.6 47.5675 48.6 48.025C48.6 48.4825 48.7818 48.9212 49.1053 49.2447C49.4288 49.5682 49.8675 49.75 50.325 49.75V49.75Z" fill="url(#paint0_linear)"/>
<path d="M48.6 55.5V62.4H45.15V55.5H48.6Z" fill="url(#paint1_linear)"/>
<path d="M42.85 55.5H39.4V62.4H42.85V55.5Z" fill="url(#paint2_linear)"/>
<defs>
<linearGradient id="paint0_linear" x1="24.7483" y1="21.9984" x2="70.2308" y2="55.3568" gradientUnits="userSpaceOnUse">
<stop stop-color="#5AA6FF"/>
<stop offset="1" stop-color="#0874D8"/>
</linearGradient>
<linearGradient id="paint1_linear" x1="44.4686" y1="54.8247" x2="51.5251" y2="58.275" gradientUnits="userSpaceOnUse">
<stop stop-color="#5AA6FF"/>
<stop offset="1" stop-color="#0874D8"/>
</linearGradient>
<linearGradient id="paint2_linear" x1="38.7186" y1="54.8247" x2="45.7751" y2="58.275" gradientUnits="userSpaceOnUse">
<stop stop-color="#5AA6FF"/>
<stop offset="1" stop-color="#0874D8"/>
</linearGradient>
</defs>
</svg>
