<svg width="88" height="88" viewBox="0 0 88 88" fill="none" xmlns="http://www.w3.org/2000/svg">
<circle cx="44" cy="44" r="44" fill="#DDDFFF"/>
<path d="M58.5564 31.9686L44.6193 27.2189C44.4512 27.1615 44.2256 27.1328 44 27.1328C43.7744 27.1328 43.5488 27.1615 43.3807 27.2189L29.4436 31.9686C29.1031 32.0834 28.8242 32.4771 28.8242 32.8381V52.624C28.8242 52.985 29.058 53.4607 29.341 53.6863L43.4791 64.7031C43.6227 64.8139 43.8072 64.8713 43.9959 64.8713C44.1846 64.8713 44.3732 64.8139 44.5127 64.7031L58.6508 53.6863C58.9338 53.4648 59.1676 52.9891 59.1676 52.624V32.8381C59.1758 32.4771 58.8969 32.0875 58.5564 31.9686V31.9686ZM51.4853 38.974L42.7654 50.9793C42.7041 51.0632 42.6239 51.1315 42.5312 51.1785C42.4386 51.2256 42.3361 51.2501 42.2322 51.2501C42.1283 51.2501 42.0259 51.2256 41.9332 51.1785C41.8406 51.1315 41.7603 51.0632 41.699 50.9793L36.5146 43.8426C36.3588 43.6252 36.5146 43.3217 36.7812 43.3217H39.0453C39.2545 43.3217 39.4555 43.4242 39.5785 43.5924L42.2322 47.2428L48.4215 38.7197C48.5445 38.5516 48.7414 38.449 48.9547 38.449H51.2187C51.4853 38.4531 51.6412 38.7566 51.4853 38.974V38.974Z" fill="url(#paint0_linear)"/>
<defs>
<linearGradient id="paint0_linear" x1="28.8242" y1="27.1328" x2="70.3015" y2="85.9948" gradientUnits="userSpaceOnUse">
<stop stop-color="#8A90F8"/>
<stop offset="1" stop-color="#3B42BD"/>
</linearGradient>
</defs>
</svg>
