<svg width="88" height="88" viewBox="0 0 88 88" fill="none" xmlns="http://www.w3.org/2000/svg">
<circle cx="44" cy="44" r="44" fill="#FFDBEB"/>
<path d="M63.4924 47.5305L61.8285 45.0342V42.9629L63.4909 40.4694C63.7366 40.1012 63.8985 39.6836 63.9652 39.246C64.0319 38.8084 64.0017 38.3616 63.8768 37.9369C63.4875 36.6548 62.9744 35.4136 62.3449 34.2308C62.1348 33.8418 61.8411 33.5042 61.4849 33.2423C61.1287 32.9804 60.7188 32.8008 60.2849 32.7163L57.34 32.1276L55.8749 30.6625L55.2859 27.7178C55.2015 27.2833 55.0216 26.8729 54.7592 26.5165C54.4967 26.16 54.1584 25.8663 53.7685 25.6567C52.5866 25.0285 51.3467 24.516 50.0662 24.1264C49.6419 23.9995 49.1947 23.9681 48.7567 24.0346C48.3188 24.101 47.901 24.2636 47.5334 24.5107L45.0382 26.1745H42.9666L40.4699 24.5109C40.103 24.2633 39.6857 24.1004 39.2481 24.0339C38.8106 23.9674 38.3637 23.999 37.9399 24.1264C36.6577 24.5157 35.4164 25.0287 34.2335 25.6582C33.8439 25.8674 33.5058 26.1609 33.2438 26.5171C32.9818 26.8734 32.8025 27.2835 32.7189 27.7178L32.1299 30.6625L30.6648 32.1274L27.7168 32.7163C27.2827 32.8004 26.8728 32.9801 26.5167 33.2423C26.1607 33.5045 25.8674 33.8426 25.6582 34.2321C25.0294 35.4143 24.5164 36.6545 24.1263 37.9354C23.999 38.3595 23.9675 38.8065 24.034 39.2442C24.1005 39.6819 24.2633 40.0995 24.5107 40.4666L26.1761 42.9629V45.0342L24.5092 47.532C24.2623 47.8992 24.0999 48.3165 24.0337 48.7539C23.9675 49.1913 23.9991 49.638 24.1263 50.0617C24.5159 51.3419 25.029 52.5812 25.6582 53.7621C25.867 54.1526 26.1602 54.4915 26.5166 54.7543C26.873 55.017 27.2835 55.1969 27.7183 55.2809L30.6646 55.8696L32.1297 57.3347L32.7187 60.2779C32.8014 60.7129 32.9803 61.1239 33.2424 61.4808C33.5044 61.8377 33.843 62.1315 34.2333 62.3407C35.4152 62.9694 36.6556 63.4814 37.9369 63.8693C38.3608 63.9993 38.8085 64.0324 39.2469 63.9661C39.6853 63.8999 40.1032 63.7359 40.4697 63.4864L42.9666 61.8227H45.0382L47.5334 63.4863C48.0285 63.819 48.6109 63.9977 49.2074 64C49.4985 63.9995 49.7879 63.956 50.0662 63.8708C51.3464 63.4815 52.5858 62.969 53.767 62.3405C54.1576 62.1322 54.4967 61.839 54.7592 61.4826C55.0218 61.1262 55.2013 60.7155 55.2844 60.2807L55.8735 57.3347L57.34 55.8698L60.2863 55.2809C60.7206 55.196 61.1305 55.0159 61.4868 54.7535C61.843 54.4912 62.1366 54.1531 62.3464 53.7636C62.9751 52.582 63.4876 51.3423 63.8768 50.0617C64.0018 49.6374 64.0321 49.1908 63.9657 48.7535C63.8993 48.3161 63.7377 47.8987 63.4924 47.5305V47.5305ZM44.0017 52.9108C42.2388 52.9108 40.5156 52.3881 39.0498 51.4089C37.5841 50.4296 36.4417 49.0377 35.7671 47.4093C35.0925 45.7808 34.916 43.9889 35.2599 42.2601C35.6038 40.5313 36.4527 38.9434 37.6992 37.697C38.9457 36.4506 40.5338 35.6018 42.2628 35.258C43.9918 34.9141 45.7839 35.0906 47.4125 35.7651C49.0412 36.4396 50.4332 37.5819 51.4126 39.0475C52.392 40.5131 52.9147 42.2361 52.9147 43.9988C52.9147 46.3624 51.9756 48.6292 50.3041 50.3005C48.6326 51.9719 46.3655 52.9108 44.0017 52.9108Z" fill="url(#paint0_linear)"/>
<defs>
<linearGradient id="paint0_linear" x1="24" y1="24" x2="64" y2="64" gradientUnits="userSpaceOnUse">
<stop stop-color="#FF8BBE"/>
<stop offset="1" stop-color="#DA347E"/>
</linearGradient>
</defs>
</svg>
