<svg width="88" height="88" viewBox="0 0 88 88" fill="none" xmlns="http://www.w3.org/2000/svg">
<circle cx="44" cy="44" r="44" fill="#C3F0FF"/>
<path d="M44 24C32.972 24 24 32.972 24 44C24 55.028 32.972 64 44 64C55.028 64 64 55.028 64 44C64 32.972 55.028 24 44 24ZM28 44C28 42.202 28.312 40.476 28.862 38.862L32 42L36 46V50L40 54L42 56V59.862C34.122 58.872 28 52.144 28 44ZM56.66 53.746C55.354 52.694 53.374 52 52 52V50C52 48.9391 51.5786 47.9217 50.8284 47.1716C50.0783 46.4214 49.0609 46 48 46H40V40C41.0609 40 42.0783 39.5786 42.8284 38.8284C43.5786 38.0783 44 37.0609 44 36V34H46C47.0609 34 48.0783 33.5786 48.8284 32.8284C49.5786 32.0783 50 31.0609 50 30V29.178C55.856 31.556 60 37.3 60 44C59.9996 47.5294 58.8245 50.9583 56.66 53.746V53.746Z" fill="url(#paint0_linear)"/>
<defs>
<linearGradient id="paint0_linear" x1="16.099" y1="20.0852" x2="67.9184" y2="70.7601" gradientUnits="userSpaceOnUse">
<stop stop-color="#5AA6FF"/>
<stop offset="1" stop-color="#0874D8"/>
</linearGradient>
</defs>
</svg>
