<svg width="42" height="42" viewBox="0 0 42 42" fill="none" xmlns="http://www.w3.org/2000/svg">
<path d="M21 7.875C12.25 7.875 4.7775 13.3175 1.75 21C4.7775 28.6825 12.25 34.125 21 34.125C29.75 34.125 37.2225 28.6825 40.25 21C37.2225 13.3175 29.75 7.875 21 7.875ZM21 29.75C16.17 29.75 12.25 25.83 12.25 21C12.25 16.17 16.17 12.25 21 12.25C25.83 12.25 29.75 16.17 29.75 21C29.75 25.83 25.83 29.75 21 29.75ZM21 15.75C18.095 15.75 15.75 18.095 15.75 21C15.75 23.905 18.095 26.25 21 26.25C23.905 26.25 26.25 23.905 26.25 21C26.25 18.095 23.905 15.75 21 15.75Z" fill="white"/>
</svg>
