<svg width="88" height="88" viewBox="0 0 88 88" fill="none" xmlns="http://www.w3.org/2000/svg">
<circle cx="44" cy="44" r="44" fill="#FFEBCD"/>
<path d="M44 32C47.1826 32 50.2348 33.2643 52.4853 35.5147C54.7357 37.7652 56 40.8174 56 44C56 48.44 53.58 52.32 50 54.4V58C50 58.5304 49.7893 59.0391 49.4142 59.4142C49.0391 59.7893 48.5304 60 48 60H40C39.4696 60 38.9609 59.7893 38.5858 59.4142C38.2107 59.0391 38 58.5304 38 58V54.4C34.42 52.32 32 48.44 32 44C32 40.8174 33.2643 37.7652 35.5147 35.5147C37.7652 33.2643 40.8174 32 44 32ZM48 62V64C48 64.5304 47.7893 65.0391 47.4142 65.4142C47.0391 65.7893 46.5304 66 46 66H42C41.4696 66 40.9609 65.7893 40.5858 65.4142C40.2107 65.0391 40 64.5304 40 64V62H48ZM60 42H66V46H60V42ZM22 42H28V46H22V42ZM46 22V28H42V22H46ZM29.84 27L34.1 31.28L31.26 34.1L27 29.86L29.84 27ZM53.9 31.26L58.14 27L61 29.86L56.74 34.1L53.9 31.26Z" fill="url(#paint0_linear)"/>
<defs>
<linearGradient id="paint0_linear" x1="22" y1="22" x2="66" y2="80.5" gradientUnits="userSpaceOnUse">
<stop stop-color="#FF996D"/>
<stop offset="1" stop-color="#DB2F17"/>
</linearGradient>
</defs>
</svg>
