<svg width="1354" height="618" viewBox="0 0 1354 618" fill="none" xmlns="http://www.w3.org/2000/svg">
<rect x="143" y="303" width="232" height="10" rx="5" fill="#C3F0FF"/>
<rect x="422" y="303" width="232" height="10" rx="5" fill="#FFEBCD"/>
<rect x="701" y="303" width="232" height="10" rx="5" fill="#FFDBEB"/>
<rect x="980" y="303" width="232" height="10" rx="5" fill="#DDDFFF"/>
<circle cx="119" cy="308" r="10" fill="#2083E3"/>
<circle cx="398" cy="308" r="10" fill="#EC5F3E"/>
<circle cx="1235" cy="308" r="10" fill="#2083E3"/>
<circle cx="677" cy="308" r="10" fill="#EB5B9B"/>
<circle cx="956" cy="308" r="10" fill="#5B63D6"/>
<path d="M371.091 275.976H382.983V273.252H375.567L379.995 269.328C380.651 268.752 381.199 268.228 381.639 267.756C382.087 267.276 382.423 266.76 382.647 266.208C382.871 265.648 382.983 264.956 382.983 264.132C382.983 263.004 382.727 262.008 382.215 261.144C381.711 260.272 381.023 259.592 380.151 259.104C379.279 258.608 378.287 258.36 377.175 258.36C375.983 258.36 374.931 258.596 374.019 259.068C373.107 259.54 372.395 260.204 371.883 261.06C371.371 261.916 371.115 262.92 371.115 264.072H374.091C374.075 263.544 374.195 263.052 374.451 262.596C374.707 262.14 375.063 261.776 375.519 261.504C375.983 261.224 376.515 261.084 377.115 261.084C377.971 261.084 378.667 261.372 379.203 261.948C379.747 262.516 380.019 263.232 380.019 264.096C380.019 264.52 379.903 264.96 379.671 265.416C379.447 265.872 379.051 266.356 378.483 266.868L371.091 273.456V275.976ZM392.084 276.36C393.316 276.36 394.396 276.1 395.324 275.58C396.26 275.052 396.988 274.32 397.508 273.384C398.036 272.448 398.299 271.368 398.299 270.144V264.576C398.299 263.344 398.036 262.264 397.508 261.336C396.988 260.4 396.26 259.672 395.324 259.152C394.396 258.624 393.316 258.36 392.084 258.36C390.852 258.36 389.768 258.624 388.832 259.152C387.904 259.672 387.176 260.4 386.648 261.336C386.128 262.264 385.868 263.344 385.868 264.576V270.144C385.868 271.368 386.128 272.448 386.648 273.384C387.176 274.32 387.904 275.052 388.832 275.58C389.768 276.1 390.852 276.36 392.084 276.36ZM392.084 273.612C391.476 273.612 390.924 273.468 390.428 273.18C389.94 272.884 389.548 272.492 389.252 272.004C388.964 271.508 388.82 270.956 388.82 270.348V264.36C388.82 263.744 388.964 263.192 389.252 262.704C389.548 262.208 389.94 261.816 390.428 261.528C390.924 261.232 391.476 261.084 392.084 261.084C392.692 261.084 393.24 261.232 393.728 261.528C394.224 261.816 394.616 262.208 394.904 262.704C395.2 263.192 395.348 263.744 395.348 264.36V270.348C395.348 270.956 395.2 271.508 394.904 272.004C394.616 272.492 394.224 272.884 393.728 273.18C393.24 273.468 392.692 273.612 392.084 273.612ZM404.664 276H407.616V258.72H404.664L401.424 260.664V263.856L404.664 261.876V276ZM419.364 276H422.292V273.144H423.912V270.444H422.292V265.944H419.364V270.444H415.008L420.54 258.72H417.24L411.708 270.444V273.144H419.364V276Z" fill="#200E32"/>
<path d="M929.044 275.976H940.936V273.252H933.52L937.948 269.328C938.604 268.752 939.152 268.228 939.592 267.756C940.04 267.276 940.376 266.76 940.6 266.208C940.824 265.648 940.936 264.956 940.936 264.132C940.936 263.004 940.68 262.008 940.168 261.144C939.664 260.272 938.976 259.592 938.104 259.104C937.232 258.608 936.24 258.36 935.128 258.36C933.936 258.36 932.884 258.596 931.972 259.068C931.06 259.54 930.348 260.204 929.836 261.06C929.324 261.916 929.068 262.92 929.068 264.072H932.044C932.028 263.544 932.148 263.052 932.404 262.596C932.66 262.14 933.016 261.776 933.472 261.504C933.936 261.224 934.468 261.084 935.068 261.084C935.924 261.084 936.62 261.372 937.156 261.948C937.7 262.516 937.972 263.232 937.972 264.096C937.972 264.52 937.856 264.96 937.624 265.416C937.4 265.872 937.004 266.356 936.436 266.868L929.044 273.456V275.976ZM950.037 276.36C951.269 276.36 952.349 276.1 953.277 275.58C954.213 275.052 954.941 274.32 955.461 273.384C955.989 272.448 956.253 271.368 956.253 270.144V264.576C956.253 263.344 955.989 262.264 955.461 261.336C954.941 260.4 954.213 259.672 953.277 259.152C952.349 258.624 951.269 258.36 950.037 258.36C948.805 258.36 947.721 258.624 946.785 259.152C945.857 259.672 945.129 260.4 944.601 261.336C944.081 262.264 943.821 263.344 943.821 264.576V270.144C943.821 271.368 944.081 272.448 944.601 273.384C945.129 274.32 945.857 275.052 946.785 275.58C947.721 276.1 948.805 276.36 950.037 276.36ZM950.037 273.612C949.429 273.612 948.877 273.468 948.381 273.18C947.893 272.884 947.501 272.492 947.205 272.004C946.917 271.508 946.773 270.956 946.773 270.348V264.36C946.773 263.744 946.917 263.192 947.205 262.704C947.501 262.208 947.893 261.816 948.381 261.528C948.877 261.232 949.429 261.084 950.037 261.084C950.645 261.084 951.193 261.232 951.681 261.528C952.177 261.816 952.569 262.208 952.857 262.704C953.153 263.192 953.301 263.744 953.301 264.36V270.348C953.301 270.956 953.153 271.508 952.857 272.004C952.569 272.492 952.177 272.884 951.681 273.18C951.193 273.468 950.645 273.612 950.037 273.612ZM962.618 276H965.57V258.72H962.618L959.378 260.664V263.856L962.618 261.876V276ZM975.793 276.36C976.945 276.36 977.965 276.128 978.853 275.664C979.749 275.2 980.449 274.556 980.953 273.732C981.465 272.908 981.721 271.964 981.721 270.9C981.721 270.076 981.553 269.3 981.217 268.572C980.881 267.836 980.397 267.22 979.765 266.724C980.757 265.772 981.253 264.612 981.253 263.244C981.253 262.252 981.017 261.392 980.545 260.664C980.081 259.936 979.437 259.372 978.613 258.972C977.797 258.564 976.857 258.36 975.793 258.36C974.729 258.36 973.785 258.564 972.961 258.972C972.145 259.372 971.505 259.936 971.041 260.664C970.577 261.392 970.345 262.252 970.345 263.244C970.345 263.94 970.473 264.58 970.729 265.164C970.993 265.74 971.369 266.26 971.857 266.724C971.209 267.228 970.721 267.844 970.393 268.572C970.065 269.3 969.901 270.076 969.901 270.9C969.901 271.972 970.153 272.92 970.657 273.744C971.161 274.56 971.857 275.2 972.745 275.664C973.633 276.128 974.649 276.36 975.793 276.36ZM975.793 265.404C975.089 265.404 974.513 265.228 974.065 264.876C973.625 264.516 973.405 263.972 973.405 263.244C973.405 262.516 973.625 261.976 974.065 261.624C974.513 261.264 975.089 261.084 975.793 261.084C976.505 261.084 977.081 261.264 977.521 261.624C977.969 261.976 978.193 262.516 978.193 263.244C978.193 263.972 977.969 264.516 977.521 264.876C977.081 265.228 976.505 265.404 975.793 265.404ZM975.793 273.636C974.945 273.636 974.261 273.404 973.741 272.94C973.221 272.476 972.961 271.796 972.961 270.9C972.961 270.012 973.221 269.332 973.741 268.86C974.261 268.388 974.945 268.152 975.793 268.152C976.649 268.152 977.341 268.388 977.869 268.86C978.397 269.332 978.661 270.012 978.661 270.9C978.661 271.796 978.397 272.476 977.869 272.94C977.341 273.404 976.649 273.636 975.793 273.636Z" fill="#200E32"/>
<path d="M89.3016 363.976H101.194V361.252H93.7776L98.2056 357.328C98.8616 356.752 99.4096 356.228 99.8496 355.756C100.298 355.276 100.634 354.76 100.858 354.208C101.082 353.648 101.194 352.956 101.194 352.132C101.194 351.004 100.938 350.008 100.426 349.144C99.9216 348.272 99.2336 347.592 98.3616 347.104C97.4896 346.608 96.4976 346.36 95.3856 346.36C94.1936 346.36 93.1416 346.596 92.2296 347.068C91.3176 347.54 90.6056 348.204 90.0936 349.06C89.5816 349.916 89.3256 350.92 89.3256 352.072H92.3016C92.2856 351.544 92.4056 351.052 92.6616 350.596C92.9176 350.14 93.2736 349.776 93.7296 349.504C94.1936 349.224 94.7256 349.084 95.3256 349.084C96.1816 349.084 96.8776 349.372 97.4136 349.948C97.9576 350.516 98.2296 351.232 98.2296 352.096C98.2296 352.52 98.1136 352.96 97.8816 353.416C97.6576 353.872 97.2616 354.356 96.6936 354.868L89.3016 361.456V363.976ZM110.294 364.36C111.526 364.36 112.606 364.1 113.534 363.58C114.47 363.052 115.198 362.32 115.718 361.384C116.246 360.448 116.51 359.368 116.51 358.144V352.576C116.51 351.344 116.246 350.264 115.718 349.336C115.198 348.4 114.47 347.672 113.534 347.152C112.606 346.624 111.526 346.36 110.294 346.36C109.062 346.36 107.978 346.624 107.042 347.152C106.114 347.672 105.386 348.4 104.858 349.336C104.338 350.264 104.078 351.344 104.078 352.576V358.144C104.078 359.368 104.338 360.448 104.858 361.384C105.386 362.32 106.114 363.052 107.042 363.58C107.978 364.1 109.062 364.36 110.294 364.36ZM110.294 361.612C109.686 361.612 109.134 361.468 108.638 361.18C108.15 360.884 107.758 360.492 107.462 360.004C107.174 359.508 107.03 358.956 107.03 358.348V352.36C107.03 351.744 107.174 351.192 107.462 350.704C107.758 350.208 108.15 349.816 108.638 349.528C109.134 349.232 109.686 349.084 110.294 349.084C110.902 349.084 111.45 349.232 111.938 349.528C112.434 349.816 112.826 350.208 113.114 350.704C113.41 351.192 113.558 351.744 113.558 352.36V358.348C113.558 358.956 113.41 359.508 113.114 360.004C112.826 360.492 112.434 360.884 111.938 361.18C111.45 361.468 110.902 361.612 110.294 361.612ZM126.091 364.36C127.323 364.36 128.403 364.1 129.331 363.58C130.267 363.052 130.995 362.32 131.515 361.384C132.043 360.448 132.307 359.368 132.307 358.144V352.576C132.307 351.344 132.043 350.264 131.515 349.336C130.995 348.4 130.267 347.672 129.331 347.152C128.403 346.624 127.323 346.36 126.091 346.36C124.859 346.36 123.775 346.624 122.839 347.152C121.911 347.672 121.183 348.4 120.655 349.336C120.135 350.264 119.875 351.344 119.875 352.576V358.144C119.875 359.368 120.135 360.448 120.655 361.384C121.183 362.32 121.911 363.052 122.839 363.58C123.775 364.1 124.859 364.36 126.091 364.36ZM126.091 361.612C125.483 361.612 124.931 361.468 124.435 361.18C123.947 360.884 123.555 360.492 123.259 360.004C122.971 359.508 122.827 358.956 122.827 358.348V352.36C122.827 351.744 122.971 351.192 123.259 350.704C123.555 350.208 123.947 349.816 124.435 349.528C124.931 349.232 125.483 349.084 126.091 349.084C126.699 349.084 127.247 349.232 127.735 349.528C128.231 349.816 128.623 350.208 128.911 350.704C129.207 351.192 129.355 351.744 129.355 352.36V358.348C129.355 358.956 129.207 359.508 128.911 360.004C128.623 360.492 128.231 360.884 127.735 361.18C127.247 361.468 126.699 361.612 126.091 361.612ZM141.648 364.36C142.736 364.36 143.732 364.104 144.636 363.592C145.54 363.072 146.264 362.376 146.808 361.504C147.36 360.624 147.636 359.644 147.636 358.564C147.636 357.476 147.396 356.508 146.916 355.66C146.444 354.804 145.788 354.132 144.948 353.644C144.116 353.148 143.156 352.9 142.068 352.9C140.764 352.9 139.616 353.332 138.624 354.196V352.444C138.624 351.86 138.764 351.312 139.044 350.8C139.324 350.288 139.712 349.876 140.208 349.564C140.712 349.244 141.3 349.084 141.972 349.084C142.444 349.084 142.9 349.188 143.34 349.396C143.78 349.604 144.152 349.888 144.456 350.248L146.544 348.22C145.936 347.58 145.24 347.116 144.456 346.828C143.68 346.532 142.852 346.384 141.972 346.384C140.716 346.384 139.616 346.652 138.672 347.188C137.728 347.716 136.992 348.464 136.464 349.432C135.936 350.392 135.672 351.528 135.672 352.84V358.096C135.672 359.32 135.936 360.404 136.464 361.348C136.992 362.292 137.704 363.032 138.6 363.568C139.504 364.096 140.52 364.36 141.648 364.36ZM141.648 361.588C141.088 361.588 140.58 361.452 140.124 361.18C139.668 360.9 139.304 360.532 139.032 360.076C138.76 359.612 138.624 359.108 138.624 358.564C138.624 358.004 138.76 357.492 139.032 357.028C139.312 356.564 139.68 356.196 140.136 355.924C140.6 355.644 141.112 355.504 141.672 355.504C142.232 355.504 142.74 355.644 143.196 355.924C143.66 356.196 144.028 356.564 144.3 357.028C144.572 357.492 144.708 358.004 144.708 358.564C144.708 359.124 144.568 359.632 144.288 360.088C144.016 360.544 143.648 360.908 143.184 361.18C142.72 361.452 142.208 361.588 141.648 361.588Z" fill="#200E32"/>
<path d="M650.36 363.976H662.252V361.252H654.836L659.264 357.328C659.92 356.752 660.468 356.228 660.908 355.756C661.356 355.276 661.692 354.76 661.916 354.208C662.14 353.648 662.252 352.956 662.252 352.132C662.252 351.004 661.996 350.008 661.484 349.144C660.98 348.272 660.292 347.592 659.42 347.104C658.548 346.608 657.556 346.36 656.444 346.36C655.252 346.36 654.2 346.596 653.288 347.068C652.376 347.54 651.664 348.204 651.152 349.06C650.64 349.916 650.384 350.92 650.384 352.072H653.36C653.344 351.544 653.464 351.052 653.72 350.596C653.976 350.14 654.332 349.776 654.788 349.504C655.252 349.224 655.784 349.084 656.384 349.084C657.24 349.084 657.936 349.372 658.472 349.948C659.016 350.516 659.288 351.232 659.288 352.096C659.288 352.52 659.172 352.96 658.94 353.416C658.716 353.872 658.32 354.356 657.752 354.868L650.36 361.456V363.976ZM671.353 364.36C672.585 364.36 673.665 364.1 674.593 363.58C675.529 363.052 676.257 362.32 676.777 361.384C677.305 360.448 677.569 359.368 677.569 358.144V352.576C677.569 351.344 677.305 350.264 676.777 349.336C676.257 348.4 675.529 347.672 674.593 347.152C673.665 346.624 672.585 346.36 671.353 346.36C670.121 346.36 669.037 346.624 668.101 347.152C667.173 347.672 666.445 348.4 665.917 349.336C665.397 350.264 665.137 351.344 665.137 352.576V358.144C665.137 359.368 665.397 360.448 665.917 361.384C666.445 362.32 667.173 363.052 668.101 363.58C669.037 364.1 670.121 364.36 671.353 364.36ZM671.353 361.612C670.745 361.612 670.193 361.468 669.697 361.18C669.209 360.884 668.817 360.492 668.521 360.004C668.233 359.508 668.089 358.956 668.089 358.348V352.36C668.089 351.744 668.233 351.192 668.521 350.704C668.817 350.208 669.209 349.816 669.697 349.528C670.193 349.232 670.745 349.084 671.353 349.084C671.961 349.084 672.509 349.232 672.997 349.528C673.493 349.816 673.885 350.208 674.173 350.704C674.469 351.192 674.617 351.744 674.617 352.36V358.348C674.617 358.956 674.469 359.508 674.173 360.004C673.885 360.492 673.493 360.884 672.997 361.18C672.509 361.468 671.961 361.612 671.353 361.612ZM683.934 364H686.886V346.72H683.934L680.694 348.664V351.856L683.934 349.876V364ZM696.581 364.36C697.669 364.36 698.669 364.1 699.581 363.58C700.501 363.06 701.241 362.364 701.801 361.492C702.361 360.612 702.641 359.632 702.641 358.552C702.641 357.472 702.401 356.508 701.921 355.66C701.449 354.804 700.793 354.132 699.953 353.644C699.121 353.156 698.165 352.912 697.085 352.912C696.645 352.912 696.189 352.976 695.717 353.104C695.253 353.232 694.813 353.424 694.397 353.68L694.661 349.432H701.477V346.72H692.093L691.565 355.864L694.037 356.656C694.269 356.384 694.601 356.128 695.033 355.888C695.473 355.648 696.025 355.528 696.689 355.528C697.241 355.528 697.749 355.664 698.213 355.936C698.677 356.208 699.045 356.572 699.317 357.028C699.597 357.484 699.737 357.992 699.737 358.552C699.737 359.104 699.601 359.612 699.329 360.076C699.057 360.532 698.689 360.9 698.225 361.18C697.769 361.452 697.257 361.588 696.689 361.588C696.041 361.588 695.433 361.388 694.865 360.988C694.305 360.58 693.937 360.028 693.761 359.332L690.977 360.076C691.217 360.924 691.609 361.672 692.153 362.32C692.705 362.96 693.361 363.46 694.121 363.82C694.889 364.18 695.709 364.36 696.581 364.36Z" fill="#200E32"/>
<path d="M1206.53 363.976H1218.42V361.252H1211.01L1215.44 357.328C1216.09 356.752 1216.64 356.228 1217.08 355.756C1217.53 355.276 1217.86 354.76 1218.09 354.208C1218.31 353.648 1218.42 352.956 1218.42 352.132C1218.42 351.004 1218.17 350.008 1217.66 349.144C1217.15 348.272 1216.46 347.592 1215.59 347.104C1214.72 346.608 1213.73 346.36 1212.62 346.36C1211.42 346.36 1210.37 346.596 1209.46 347.068C1208.55 347.54 1207.84 348.204 1207.32 349.06C1206.81 349.916 1206.56 350.92 1206.56 352.072H1209.53C1209.52 351.544 1209.64 351.052 1209.89 350.596C1210.15 350.14 1210.5 349.776 1210.96 349.504C1211.42 349.224 1211.96 349.084 1212.56 349.084C1213.41 349.084 1214.11 349.372 1214.64 349.948C1215.19 350.516 1215.46 351.232 1215.46 352.096C1215.46 352.52 1215.34 352.96 1215.11 353.416C1214.89 353.872 1214.49 354.356 1213.92 354.868L1206.53 361.456V363.976ZM1227.52 364.36C1228.76 364.36 1229.84 364.1 1230.76 363.58C1231.7 363.052 1232.43 362.32 1232.95 361.384C1233.48 360.448 1233.74 359.368 1233.74 358.144V352.576C1233.74 351.344 1233.48 350.264 1232.95 349.336C1232.43 348.4 1231.7 347.672 1230.76 347.152C1229.84 346.624 1228.76 346.36 1227.52 346.36C1226.29 346.36 1225.21 346.624 1224.27 347.152C1223.34 347.672 1222.62 348.4 1222.09 349.336C1221.57 350.264 1221.31 351.344 1221.31 352.576V358.144C1221.31 359.368 1221.57 360.448 1222.09 361.384C1222.62 362.32 1223.34 363.052 1224.27 363.58C1225.21 364.1 1226.29 364.36 1227.52 364.36ZM1227.52 361.612C1226.92 361.612 1226.36 361.468 1225.87 361.18C1225.38 360.884 1224.99 360.492 1224.69 360.004C1224.4 359.508 1224.26 358.956 1224.26 358.348V352.36C1224.26 351.744 1224.4 351.192 1224.69 350.704C1224.99 350.208 1225.38 349.816 1225.87 349.528C1226.36 349.232 1226.92 349.084 1227.52 349.084C1228.13 349.084 1228.68 349.232 1229.17 349.528C1229.66 349.816 1230.06 350.208 1230.34 350.704C1230.64 351.192 1230.79 351.744 1230.79 352.36V358.348C1230.79 358.956 1230.64 359.508 1230.34 360.004C1230.06 360.492 1229.66 360.884 1229.17 361.18C1228.68 361.468 1228.13 361.612 1227.52 361.612ZM1236.63 363.976H1248.52V361.252H1241.1L1245.53 357.328C1246.19 356.752 1246.73 356.228 1247.17 355.756C1247.62 355.276 1247.96 354.76 1248.18 354.208C1248.41 353.648 1248.52 352.956 1248.52 352.132C1248.52 351.004 1248.26 350.008 1247.75 349.144C1247.25 348.272 1246.56 347.592 1245.69 347.104C1244.81 346.608 1243.82 346.36 1242.71 346.36C1241.52 346.36 1240.47 346.596 1239.55 347.068C1238.64 347.54 1237.93 348.204 1237.42 349.06C1236.91 349.916 1236.65 350.92 1236.65 352.072H1239.63C1239.61 351.544 1239.73 351.052 1239.99 350.596C1240.24 350.14 1240.6 349.776 1241.05 349.504C1241.52 349.224 1242.05 349.084 1242.65 349.084C1243.51 349.084 1244.2 349.372 1244.74 349.948C1245.28 350.516 1245.55 351.232 1245.55 352.096C1245.55 352.52 1245.44 352.96 1245.21 353.416C1244.98 353.872 1244.59 354.356 1244.02 354.868L1236.63 361.456V363.976ZM1256.35 364.324C1257.43 364.324 1258.41 364.076 1259.3 363.58C1260.19 363.076 1260.91 362.392 1261.43 361.528C1261.97 360.664 1262.24 359.688 1262.24 358.6C1262.24 357.728 1262.07 356.916 1261.75 356.164C1261.42 355.412 1260.94 354.776 1260.32 354.256C1259.69 353.736 1258.94 353.384 1258.05 353.2L1261.95 349.456V346.72H1251.35V349.444H1258.51L1253.51 353.716L1254.83 355.996C1255.33 355.724 1255.83 355.588 1256.33 355.588C1257.21 355.588 1257.92 355.876 1258.47 356.452C1259.02 357.028 1259.3 357.744 1259.3 358.6C1259.3 359.448 1259.01 360.156 1258.45 360.724C1257.89 361.292 1257.18 361.58 1256.33 361.588C1255.7 361.596 1255.12 361.416 1254.58 361.048C1254.05 360.672 1253.68 360.14 1253.48 359.452L1250.68 360.208C1250.93 361.04 1251.33 361.768 1251.89 362.392C1252.46 363.008 1253.13 363.484 1253.9 363.82C1254.67 364.156 1255.48 364.324 1256.35 364.324Z" fill="#200E32"/>
<circle cx="119" cy="277" r="2" fill="#C4C4C4"/>
<circle cx="119" cy="265" r="2" fill="#C4C4C4"/>
<circle cx="119" cy="253" r="2" fill="#C4C4C4"/>
<circle cx="119" cy="241" r="2" fill="#C4C4C4"/>
<circle cx="119" cy="229" r="2" fill="#C4C4C4"/>
<circle cx="677" cy="277" r="2" fill="#C4C4C4"/>
<circle cx="677" cy="265" r="2" fill="#C4C4C4"/>
<circle cx="677" cy="253" r="2" fill="#C4C4C4"/>
<circle cx="677" cy="241" r="2" fill="#C4C4C4"/>
<circle cx="677" cy="229" r="2" fill="#C4C4C4"/>
<circle cx="1235" cy="277" r="2" fill="#C4C4C4"/>
<circle cx="1235" cy="265" r="2" fill="#C4C4C4"/>
<circle cx="1235" cy="253" r="2" fill="#C4C4C4"/>
<circle cx="1235" cy="241" r="2" fill="#C4C4C4"/>
<circle cx="1235" cy="229" r="2" fill="#C4C4C4"/>
<circle cx="398" cy="390" r="2" fill="#C4C4C4"/>
<circle cx="398" cy="378" r="2" fill="#C4C4C4"/>
<circle cx="398" cy="366" r="2" fill="#C4C4C4"/>
<circle cx="398" cy="354" r="2" fill="#C4C4C4"/>
<circle cx="398" cy="342" r="2" fill="#C4C4C4"/>
<circle cx="956" cy="389" r="2" fill="#C4C4C4"/>
<circle cx="956" cy="377" r="2" fill="#C4C4C4"/>
<circle cx="956" cy="365" r="2" fill="#C4C4C4"/>
<circle cx="956" cy="353" r="2" fill="#C4C4C4"/>
<circle cx="956" cy="341" r="2" fill="#C4C4C4"/>
</svg>
