<svg width="1070" height="649" viewBox="0 0 1070 649" fill="none" xmlns="http://www.w3.org/2000/svg">
<line x1="77" y1="486.5" x2="988" y2="486.5" stroke="#22BDEF" stroke-dasharray="5 5"/>
<line x1="82" y1="647.5" x2="528" y2="647.5" stroke="#22BDEF" stroke-dasharray="5 5"/>
<path d="M988 486C1009.48 486 1030.09 477.466 1045.28 462.276C1060.47 447.085 1069 426.483 1069 405C1069 383.517 1060.47 362.915 1045.28 347.724C1030.09 332.534 1009.48 324 988 324" stroke="#22BDEF" stroke-dasharray="5 5"/>
<path d="M82 648C60.5175 648 39.9148 639.466 24.7244 624.276C9.53391 609.085 1.00001 588.483 1 567C1 545.517 9.5339 524.915 24.7243 509.724C39.9148 494.534 60.5174 486 82 486" stroke="#22BDEF" stroke-dasharray="5 5"/>
<line x1="158" y1="0.5" x2="988" y2="0.5" stroke="#22BDEF" stroke-dasharray="5 5"/>
<line x1="77" y1="163.5" x2="988" y2="163.5" stroke="#22BDEF" stroke-dasharray="5 5"/>
<line x1="82" y1="324.5" x2="988" y2="324.5" stroke="#22BDEF" stroke-dasharray="5 5"/>
<path d="M988 163C1009.48 163 1030.09 154.466 1045.28 139.276C1060.47 124.085 1069 103.483 1069 82C1069 60.5175 1060.47 39.9148 1045.28 24.7244C1030.09 9.53391 1009.48 1 988 0.999996" stroke="#22BDEF" stroke-dasharray="5 5"/>
<path d="M82 325C60.5175 325 39.9148 316.466 24.7244 301.276C9.53391 286.085 1.00001 265.483 1 244C1 222.517 9.5339 201.915 24.7243 186.724C39.9148 171.534 60.5174 163 82 163" stroke="#22BDEF" stroke-dasharray="5 5"/>
</svg>
