<svg width="1040" height="254" viewBox="0 0 1040 254" fill="none" xmlns="http://www.w3.org/2000/svg">
<line x1="40" y1="0.5" x2="954" y2="0.5" stroke="#22BDEF" stroke-dasharray="5 5"/>
<line x1="48" y1="163.5" x2="951" y2="163.5" stroke="#22BDEF" stroke-dasharray="5 5"/>
<line x1="52" y1="252.5" x2="898" y2="252.5" stroke="#22BDEF" stroke-dasharray="5 5"/>
<path d="M958 163C979.483 163 1000.09 154.466 1015.28 139.276C1030.47 124.085 1039 103.483 1039 82C1039 60.5175 1030.47 39.9148 1015.28 24.7244C1000.09 9.53391 979.483 1 958 0.999996" stroke="#22BDEF" stroke-dasharray="5 5"/>
<path d="M45 253C33.3305 253 22.1389 248.312 13.8873 239.966C5.6357 231.621 1 220.302 1 208.5C1 196.698 5.6357 185.379 13.8873 177.034C22.1389 168.688 33.3305 164 45 164" stroke="#22BDEF" stroke-dasharray="5 5"/>
</svg>
