<svg width="48" height="48" viewBox="0 0 48 48" fill="none" xmlns="http://www.w3.org/2000/svg">
<circle cx="24" cy="24" r="24" fill="#FFDBEB"/>
<g clip-path="url(#clip0)">
<path d="M34.8309 25.4612L33.9064 24.0744V22.9236L34.83 21.5383C34.9665 21.3338 35.0565 21.1018 35.0935 20.8587C35.1306 20.6156 35.1138 20.3673 35.0444 20.1314C34.8281 19.4191 34.5431 18.7296 34.1933 18.0724C34.0767 17.8563 33.9135 17.6688 33.7156 17.5233C33.5177 17.3778 33.29 17.278 33.0489 17.2311L31.4129 16.904L30.5989 16.09L30.2717 14.4541C30.2248 14.2127 30.1249 13.9847 29.9791 13.7867C29.8333 13.5887 29.6453 13.4255 29.4287 13.309C28.7721 12.9601 28.0833 12.6754 27.3719 12.4589C27.1361 12.3884 26.8877 12.371 26.6444 12.4079C26.4011 12.4448 26.169 12.5351 25.9648 12.6724L24.5785 13.5967H23.4276L22.0405 12.6725C21.8367 12.535 21.6049 12.4445 21.3618 12.4075C21.1187 12.3706 20.8705 12.3881 20.635 12.4589C19.9227 12.6752 19.2331 12.9602 18.5759 13.3099C18.3595 13.4261 18.1716 13.5891 18.0261 13.7871C17.8805 13.985 17.7809 14.2129 17.7344 14.4541L17.4072 16.09L16.5933 16.9039L14.9555 17.2311C14.7143 17.2778 14.4866 17.3776 14.2888 17.5233C14.091 17.6689 13.9281 17.8568 13.8119 18.0732C13.4625 18.7299 13.1775 19.419 12.9608 20.1306C12.8901 20.3662 12.8726 20.6145 12.9095 20.8577C12.9464 21.1009 13.0369 21.3328 13.1743 21.5368L14.0996 22.9236V24.0744L13.1735 25.462C13.0363 25.666 12.9461 25.8978 12.9093 26.1408C12.8726 26.3839 12.8901 26.632 12.9608 26.8674C13.1772 27.5786 13.4623 28.2671 13.8119 28.9232C13.9278 29.1401 14.0907 29.3284 14.2887 29.4744C14.4867 29.6203 14.7148 29.7203 14.9563 29.7669L16.5932 30.094L17.4071 30.908L17.7343 32.5431C17.7803 32.7847 17.8797 33.0131 18.0253 33.2113C18.1709 33.4096 18.359 33.5728 18.5758 33.6891C19.2324 34.0384 19.9215 34.3228 20.6333 34.5383C20.8688 34.6105 21.1175 34.6289 21.3611 34.5921C21.6047 34.5553 21.8368 34.4642 22.0404 34.3256L23.4276 33.4013H24.5785L25.9648 34.3255C26.2398 34.5103 26.5634 34.6096 26.8947 34.6109C27.0565 34.6106 27.2172 34.5864 27.3719 34.5391C28.0831 34.3228 28.7716 34.0381 29.4278 33.689C29.6449 33.5732 29.8332 33.4104 29.9791 33.2123C30.125 33.0143 30.2247 32.7862 30.2709 32.5446L30.5981 30.908L31.4129 30.0941L33.0497 29.7669C33.2909 29.7198 33.5187 29.6197 33.7166 29.474C33.9145 29.3282 34.0776 29.1404 34.1942 28.924C34.5434 28.2676 34.8282 27.5788 35.0444 26.8674C35.1138 26.6317 35.1307 26.3836 35.0938 26.1406C35.0569 25.8976 34.9672 25.6657 34.8309 25.4612ZM24.0027 28.4502C23.0233 28.4502 22.0659 28.1599 21.2516 27.6158C20.4373 27.0718 19.8027 26.2985 19.4279 25.3938C19.0531 24.4891 18.955 23.4936 19.1461 22.5332C19.3372 21.5728 19.8088 20.6905 20.5013 19.9981C21.1938 19.3057 22.0761 18.8341 23.0366 18.6431C23.9972 18.4521 24.9928 18.5501 25.8976 18.9248C26.8024 19.2996 27.5757 19.9342 28.1198 20.7484C28.6639 21.5626 28.9543 22.5199 28.9543 23.4991C28.9543 24.8122 28.4326 26.0716 27.504 27.0001C26.5754 27.9286 25.3159 28.4502 24.0027 28.4502Z" fill="url(#paint0_linear)"/>
</g>
<defs>
<linearGradient id="paint0_linear" x1="12.8906" y1="12.3887" x2="35.1128" y2="34.6109" gradientUnits="userSpaceOnUse">
<stop stop-color="#FF8BBE"/>
<stop offset="1" stop-color="#DA347E"/>
</linearGradient>
<clipPath id="clip0">
<rect width="23.1884" height="23.1884" fill="white" transform="translate(12.4062 11.9053)"/>
</clipPath>
</defs>
</svg>
