<svg width="48" height="48" viewBox="0 0 48 48" fill="none" xmlns="http://www.w3.org/2000/svg">
<circle cx="24" cy="24" r="24" fill="#C3F0FF"/>
<path d="M14 16.1667V31.3333C14 31.908 14.2283 32.4591 14.6346 32.8654C15.0409 33.2717 15.592 33.5 16.1667 33.5H31.3333C31.908 33.5 32.4591 33.2717 32.8654 32.8654C33.2717 32.4591 33.5 31.908 33.5 31.3333V16.1667C33.5 15.592 33.2717 15.0409 32.8654 14.6346C32.4591 14.2283 31.908 14 31.3333 14H16.1667C15.592 14 15.0409 14.2283 14.6346 14.6346C14.2283 15.0409 14 15.592 14 16.1667ZM21.5833 18.3333H30.25V20.5H21.5833V18.3333ZM21.5833 22.6667H30.25V24.8333H21.5833V22.6667ZM21.5833 27H30.25V29.1667H21.5833V27ZM17.25 18.3333H19.4167V20.5H17.25V18.3333ZM17.25 22.6667H19.4167V24.8333H17.25V22.6667ZM17.25 27H19.4167V29.1667H17.25V27Z" fill="url(#paint0_linear)"/>
<defs>
<linearGradient id="paint0_linear" x1="10.1482" y1="12.0915" x2="35.4102" y2="36.7956" gradientUnits="userSpaceOnUse">
<stop stop-color="#5AA6FF"/>
<stop offset="1" stop-color="#0874D8"/>
</linearGradient>
</defs>
</svg>
