<svg width="48" height="49" viewBox="0 0 48 49" fill="none" xmlns="http://www.w3.org/2000/svg">
<circle cx="24" cy="24.5" r="24" fill="#DDDFFF"/>
<path d="M22.2309 13.9448H25.9347C26.5203 13.9448 27.0854 14.1607 27.5219 14.5511C27.9584 14.9416 28.2357 15.4792 28.3008 16.0612H30.1675C30.4801 16.0612 30.7897 16.1228 31.0786 16.2425C31.3675 16.3621 31.63 16.5375 31.851 16.7586C32.0721 16.9797 32.2475 17.2422 32.3672 17.531C32.4868 17.8199 32.5484 18.1295 32.5484 18.4422V23.9956C31.0893 23.3869 29.4651 23.2995 27.949 23.748C26.433 24.1965 25.1178 25.1535 24.2246 26.458C23.3315 27.7625 22.9151 29.3349 23.0453 30.9105C23.1756 32.4861 23.8447 33.9687 24.9399 35.1088H17.9981C17.3667 35.1088 16.7611 34.858 16.3146 34.4115C15.868 33.965 15.6172 33.3594 15.6172 32.7279V18.4422C15.6172 17.8107 15.868 17.2051 16.3146 16.7586C16.7611 16.3121 17.3667 16.0612 17.9981 16.0612H19.8648C19.9299 15.4792 20.2072 14.9416 20.6437 14.5511C21.0802 14.1607 21.6453 13.9448 22.2309 13.9448ZM25.9347 15.5321H22.2309C22.0205 15.5321 21.8186 15.6157 21.6698 15.7646C21.5209 15.9134 21.4373 16.1153 21.4373 16.3258C21.4373 16.5363 21.5209 16.7381 21.6698 16.887C21.8186 17.0358 22.0205 17.1194 22.2309 17.1194H25.9347C26.1451 17.1194 26.347 17.0358 26.4958 16.887C26.6447 16.7381 26.7283 16.5363 26.7283 16.3258C26.7283 16.1153 26.6447 15.9134 26.4958 15.7646C26.347 15.6157 26.1451 15.5321 25.9347 15.5321Z" fill="url(#paint0_linear)"/>
<g clip-path="url(#clip0)">
<path fill-rule="evenodd" clip-rule="evenodd" d="M24.0039 30.3338C24.0039 28.7867 24.6185 27.303 25.7124 26.209C26.8064 25.1151 28.2901 24.5005 29.8372 24.5005C31.3843 24.5005 32.8681 25.1151 33.962 26.209C35.056 27.303 35.6706 28.7867 35.6706 30.3338C35.6706 31.8809 35.056 33.3646 33.962 34.4586C32.8681 35.5526 31.3843 36.1672 29.8372 36.1672C28.2901 36.1672 26.8064 35.5526 25.7124 34.4586C24.6185 33.3646 24.0039 31.8809 24.0039 30.3338V30.3338ZM29.5044 32.8305L32.8628 28.632L32.2561 28.1467L29.3924 31.7253L27.3639 30.0352L26.8661 30.6325L29.5044 32.8313V32.8305Z" fill="url(#paint1_linear)"/>
</g>
<defs>
<linearGradient id="paint0_linear" x1="15.6172" y1="13.9448" x2="38.9172" y2="46.8443" gradientUnits="userSpaceOnUse">
<stop stop-color="#8A90F8"/>
<stop offset="1" stop-color="#3B42BD"/>
</linearGradient>
<linearGradient id="paint1_linear" x1="24.0039" y1="24.5005" x2="35.6837" y2="45.1153" gradientUnits="userSpaceOnUse">
<stop stop-color="#8A90F8"/>
<stop offset="1" stop-color="#3B42BD"/>
</linearGradient>
<clipPath id="clip0">
<rect width="11.6667" height="11.6667" fill="white" transform="translate(24.0039 24.5005)"/>
</clipPath>
</defs>
</svg>
