<svg width="48" height="49" viewBox="0 0 48 49" fill="none" xmlns="http://www.w3.org/2000/svg">
<circle cx="24" cy="24.5" r="24" fill="#C3F0FF"/>
<path d="M35.7723 30.4119H34.2445V28.9146C34.2445 27.444 33.0441 26.2675 31.5435 26.2675H24.6957V23.1926C24.6411 23.1926 24.6139 23.1926 24.5593 23.1926H23.3589C23.3043 23.1926 23.277 23.1926 23.2225 23.1926V26.2675H16.3746C14.8741 26.2675 13.6737 27.444 13.6737 28.9146V30.4119H12.1459C11.5184 30.4119 11 30.9199 11 31.5349V34.8504C11 35.4654 11.5184 35.9734 12.1459 35.9734H16.702C17.3295 35.9734 17.8478 35.4654 17.8478 34.8504V31.5349C17.8478 30.9199 17.3295 30.4119 16.702 30.4119H15.1742V28.9146C15.1742 28.2461 15.7198 27.7113 16.4019 27.7113H23.2497V30.3851H21.7219C21.0944 30.3851 20.5761 30.8932 20.5761 31.5081V34.8236C20.5761 35.4386 21.0944 35.9466 21.7219 35.9466H26.2781C26.9056 35.9466 27.4239 35.4386 27.4239 34.8236V31.5349C27.4239 30.9199 26.9056 30.4119 26.2781 30.4119H24.7503V27.7381H31.5981C32.2802 27.7381 32.8258 28.2728 32.8258 28.9413V30.4386H31.298C30.6705 30.4386 30.1521 30.9466 30.1521 31.5616V34.8771C30.1521 35.4921 30.6705 36.0001 31.298 36.0001H35.8541C36.4816 36.0001 37 35.4921 37 34.8771V31.5349C36.9182 30.9199 36.3998 30.4119 35.7723 30.4119Z" fill="url(#paint0_linear)"/>
<path d="M18.8036 17.631L19.8404 17.7647C19.9768 18.0588 20.0041 18.139 20.1405 18.4599L19.513 19.262C19.3493 19.4759 19.3766 19.7701 19.5675 19.984L20.4133 20.8128C20.6043 21 20.9317 21.0267 21.1499 20.8663L21.9684 20.2513C22.2685 20.385 22.3503 20.4118 22.6777 20.5455L22.8141 21.5615C22.8414 21.8289 23.087 22.016 23.3598 22.016H24.5602C24.833 22.016 25.0786 21.8289 25.1058 21.5615L25.2423 20.5455C25.5424 20.4118 25.6242 20.385 25.9516 20.2513L26.7701 20.8663C26.9883 21.0267 27.2884 21 27.5067 20.8128L28.3524 19.984C28.5434 19.7968 28.5707 19.4759 28.407 19.262L27.7795 18.4599C27.9159 18.1658 27.9432 18.0856 28.0796 17.7647L29.1163 17.631C29.3892 17.6043 29.5801 17.3636 29.5801 17.0963V15.9198C29.5801 15.6524 29.3892 15.4118 29.1163 15.385L28.0796 15.2513C27.9432 14.9572 27.9159 14.877 27.7795 14.5561L28.407 13.754C28.5707 13.5401 28.5434 13.246 28.3524 13.0321L27.5067 12.2032C27.3157 12.016 26.9883 11.9893 26.7701 12.1497L25.9516 12.7647C25.6515 12.631 25.5696 12.6043 25.2423 12.4706L25.1058 11.4545C25.0786 11.1872 24.833 11 24.5602 11H23.3598C23.087 11 22.8414 11.1872 22.8141 11.4545L22.6777 12.4706C22.3776 12.6043 22.2958 12.631 21.9684 12.7647L21.1499 12.1497C20.9044 11.9893 20.6043 12.016 20.4133 12.2032L19.5675 13.0321C19.3766 13.2193 19.3493 13.5401 19.513 13.754L20.1405 14.5561C20.0041 14.8503 19.9768 14.9305 19.8404 15.2513L18.8036 15.385C18.5308 15.4118 18.3398 15.6524 18.3398 15.9198V17.0963C18.3398 17.3636 18.5308 17.6043 18.8036 17.631ZM23.96 14.5294C25.0786 14.5294 25.9789 15.4118 25.9789 16.508C25.9789 17.6043 25.0786 18.4866 23.96 18.4866C22.8414 18.4866 21.9411 17.6043 21.9411 16.508C21.9411 15.4118 22.8414 14.5294 23.96 14.5294Z" fill="url(#paint1_linear)"/>
<defs>
<linearGradient id="paint0_linear" x1="5.86432" y1="21.9392" x2="19.2001" y2="48.4137" gradientUnits="userSpaceOnUse">
<stop stop-color="#5AA6FF"/>
<stop offset="1" stop-color="#0874D8"/>
</linearGradient>
<linearGradient id="paint1_linear" x1="16.1196" y1="9.92187" x2="30.3942" y2="24.1654" gradientUnits="userSpaceOnUse">
<stop stop-color="#5AA6FF"/>
<stop offset="1" stop-color="#0874D8"/>
</linearGradient>
</defs>
</svg>
