<svg width="48" height="48" viewBox="0 0 48 48" fill="none" xmlns="http://www.w3.org/2000/svg">
<circle cx="24" cy="24" r="24" fill="#DDDFFF"/>
<path d="M26.9835 20.8333C28.03 20.8333 28.8793 21.6826 28.8793 22.7291V26.2499H28.875V27.3333H19.125V24.0833H19.1272V22.7291C19.1272 21.6826 19.9754 20.8333 21.023 20.8333H26.9835Z" fill="url(#paint0_linear)"/>
<path d="M34.8333 22.7291C34.8333 22.2263 34.6336 21.7441 34.2781 21.3885C33.9225 21.033 33.4403 20.8333 32.9375 20.8333H29.2812C29.707 21.3478 29.9627 22.0087 29.9627 22.7291V24.0833H29.9583V27.3333H34.0208C34.2363 27.3333 34.443 27.2477 34.5954 27.0953C34.7477 26.9429 34.8333 26.7362 34.8333 26.5208V22.7291Z" fill="url(#paint1_linear)"/>
<path d="M18.043 26.2499H18.0451V22.7291L18.0549 22.4908C18.1036 21.8624 18.3474 21.2904 18.7266 20.8333H15.0638L14.9078 20.8398C14.4336 20.8789 13.9915 21.0949 13.6692 21.4449C13.3469 21.7949 13.168 22.2533 13.168 22.7291V26.5208C13.168 26.9693 13.532 27.3333 13.9805 27.3333H18.043V26.2499Z" fill="url(#paint2_linear)"/>
<path d="M24 13.25C24.862 13.25 25.6886 13.5924 26.2981 14.2019C26.9076 14.8114 27.25 15.638 27.25 16.5C27.25 17.362 26.9076 18.1886 26.2981 18.7981C25.6886 19.4076 24.862 19.75 24 19.75C23.138 19.75 22.3114 19.4076 21.7019 18.7981C21.0924 18.1886 20.75 17.362 20.75 16.5C20.75 15.638 21.0924 14.8114 21.7019 14.2019C22.3114 13.5924 23.138 13.25 24 13.25Z" fill="url(#paint3_linear)"/>
<path d="M31.0443 14.3333C31.7626 14.3333 32.4514 14.6186 32.9594 15.1265C33.4673 15.6344 33.7526 16.3233 33.7526 17.0416C33.7526 17.7599 33.4673 18.4488 32.9594 18.9567C32.4514 19.4646 31.7626 19.7499 31.0443 19.7499C30.326 19.7499 29.6371 19.4646 29.1292 18.9567C28.6213 18.4488 28.3359 17.7599 28.3359 17.0416C28.3359 16.3233 28.6213 15.6344 29.1292 15.1265C29.6371 14.6186 30.326 14.3333 31.0443 14.3333Z" fill="url(#paint4_linear)"/>
<path d="M16.9583 14.3333C17.6766 14.3333 18.3655 14.6186 18.8734 15.1265C19.3813 15.6344 19.6667 16.3233 19.6667 17.0416C19.6667 17.7599 19.3813 18.4488 18.8734 18.9567C18.3655 19.4646 17.6766 19.7499 16.9583 19.7499C16.24 19.7499 15.5512 19.4646 15.0433 18.9567C14.5353 18.4488 14.25 17.7599 14.25 17.0416C14.25 16.3233 14.5353 15.6344 15.0433 15.1265C15.5512 14.6186 16.24 14.3333 16.9583 14.3333Z" fill="url(#paint5_linear)"/>
<path d="M13.168 29.2292C13.168 29.0138 13.2536 28.8071 13.4059 28.6547C13.5583 28.5023 13.765 28.4167 13.9805 28.4167H34.0221C34.2376 28.4167 34.4443 28.5023 34.5967 28.6547C34.749 28.8071 34.8346 29.0138 34.8346 29.2292V29.7709C34.8346 30.8484 34.4066 31.8817 33.6448 32.6435C32.8829 33.4054 31.8496 33.8334 30.7721 33.8334H17.2305C16.153 33.8334 15.1197 33.4054 14.3578 32.6435C13.596 31.8817 13.168 30.8484 13.168 29.7709V29.2292Z" fill="url(#paint6_linear)"/>
<defs>
<linearGradient id="paint0_linear" x1="19.125" y1="20.8333" x2="24.1386" y2="34.1127" gradientUnits="userSpaceOnUse">
<stop stop-color="#8A90F8"/>
<stop offset="1" stop-color="#3B42BD"/>
</linearGradient>
<linearGradient id="paint1_linear" x1="29.2812" y1="20.8333" x2="36.2702" y2="31.3697" gradientUnits="userSpaceOnUse">
<stop stop-color="#8A90F8"/>
<stop offset="1" stop-color="#3B42BD"/>
</linearGradient>
<linearGradient id="paint2_linear" x1="13.168" y1="20.8333" x2="20.1537" y2="31.3773" gradientUnits="userSpaceOnUse">
<stop stop-color="#8A90F8"/>
<stop offset="1" stop-color="#3B42BD"/>
</linearGradient>
<linearGradient id="paint3_linear" x1="20.75" y1="13.25" x2="27.2573" y2="24.7354" gradientUnits="userSpaceOnUse">
<stop stop-color="#8A90F8"/>
<stop offset="1" stop-color="#3B42BD"/>
</linearGradient>
<linearGradient id="paint4_linear" x1="28.3359" y1="14.3333" x2="33.7587" y2="23.9044" gradientUnits="userSpaceOnUse">
<stop stop-color="#8A90F8"/>
<stop offset="1" stop-color="#3B42BD"/>
</linearGradient>
<linearGradient id="paint5_linear" x1="14.25" y1="14.3333" x2="19.6728" y2="23.9044" gradientUnits="userSpaceOnUse">
<stop stop-color="#8A90F8"/>
<stop offset="1" stop-color="#3B42BD"/>
</linearGradient>
<linearGradient id="paint6_linear" x1="13.168" y1="28.4167" x2="14.9236" y2="40.8116" gradientUnits="userSpaceOnUse">
<stop stop-color="#8A90F8"/>
<stop offset="1" stop-color="#3B42BD"/>
</linearGradient>
</defs>
</svg>
