<svg width="48" height="48" viewBox="0 0 48 48" fill="none" xmlns="http://www.w3.org/2000/svg">
<circle cx="24" cy="24" r="24" fill="#DDDFFF"/>
<path d="M26.6361 15.8016C26.2299 15.3952 25.6789 15.1669 25.1043 15.1667H17.3346C16.76 15.1667 16.2089 15.395 15.8026 15.8013C15.3962 16.2077 15.168 16.7588 15.168 17.3334V25.1031C15.1681 25.6777 15.3964 26.2287 15.8028 26.6349L24.4695 35.3016C24.8758 35.7078 25.4268 35.936 26.0013 35.936C26.5758 35.936 27.1268 35.7078 27.5331 35.3016L35.3028 27.5319C35.709 27.1256 35.9372 26.5746 35.9372 26.0001C35.9372 25.4256 35.709 24.8746 35.3028 24.4682L26.6361 15.8016ZM20.5846 22.7501C20.0099 22.7499 19.4587 22.5215 19.0523 22.1149C18.646 21.7084 18.4178 21.1571 18.418 20.5823C18.4181 20.0076 18.6466 19.4564 19.0531 19.05C19.4596 18.6437 20.0109 18.4155 20.5857 18.4157C21.1605 18.4158 21.7117 18.6443 22.118 19.0508C22.5243 19.4573 22.7525 20.0086 22.7524 20.5834C22.7522 21.1582 22.5238 21.7094 22.1172 22.1157C21.7107 22.522 21.1594 22.7502 20.5846 22.7501Z" fill="url(#paint0_linear)"/>
<defs>
<linearGradient id="paint0_linear" x1="15.168" y1="15.1667" x2="35.9606" y2="51.8656" gradientUnits="userSpaceOnUse">
<stop stop-color="#8A90F8"/>
<stop offset="1" stop-color="#3B42BD"/>
</linearGradient>
</defs>
</svg>
