<svg width="48" height="49" viewBox="0 0 48 49" fill="none" xmlns="http://www.w3.org/2000/svg">
<circle cx="24" cy="24.5" r="24" fill="#C3F0FF"/>
<path d="M14.9 23.1875C16.3341 23.1875 17.5 22.0104 17.5 20.5625C17.5 19.1146 16.3341 17.9375 14.9 17.9375C13.4659 17.9375 12.3 19.1146 12.3 20.5625C12.3 22.0104 13.4659 23.1875 14.9 23.1875ZM33.1 23.1875C34.5341 23.1875 35.7 22.0104 35.7 20.5625C35.7 19.1146 34.5341 17.9375 33.1 17.9375C31.6659 17.9375 30.5 19.1146 30.5 20.5625C30.5 22.0104 31.6659 23.1875 33.1 23.1875ZM34.4 24.5H31.8C31.085 24.5 30.4391 24.7912 29.9678 25.2629C31.605 26.1693 32.7669 27.8059 33.0187 29.75H35.7C36.4191 29.75 37 29.1635 37 28.4375V27.125C37 25.6771 35.8341 24.5 34.4 24.5ZM24 24.5C26.5147 24.5 28.55 22.4451 28.55 19.9062C28.55 17.3674 26.5147 15.3125 24 15.3125C21.4853 15.3125 19.45 17.3674 19.45 19.9062C19.45 22.4451 21.4853 24.5 24 24.5ZM27.12 25.8125H26.7828C25.9378 26.2227 24.9994 26.4688 24 26.4688C23.0006 26.4688 22.0662 26.2227 21.2172 25.8125H20.88C18.2962 25.8125 16.2 27.9289 16.2 30.5375V31.7188C16.2 32.8057 17.0734 33.6875 18.15 33.6875H29.85C30.9266 33.6875 31.8 32.8057 31.8 31.7188V30.5375C31.8 27.9289 29.7037 25.8125 27.12 25.8125ZM18.0322 25.2629C17.5609 24.7912 16.915 24.5 16.2 24.5H13.6C12.1659 24.5 11 25.6771 11 27.125V28.4375C11 29.1635 11.5809 29.75 12.3 29.75H14.9772C15.2331 27.8059 16.395 26.1693 18.0322 25.2629Z" fill="url(#paint0_linear)"/>
<defs>
<linearGradient id="paint0_linear" x1="5.86432" y1="13.5142" x2="28.472" y2="44.7967" gradientUnits="userSpaceOnUse">
<stop stop-color="#5AA6FF"/>
<stop offset="1" stop-color="#0874D8"/>
</linearGradient>
</defs>
</svg>
