<svg width="48" height="48" viewBox="0 0 48 48" fill="none" xmlns="http://www.w3.org/2000/svg">
<circle cx="24" cy="24" r="24" fill="#FFDBEB"/>
<path d="M31.2028 14.0876L31.8636 18.2692L35.6661 20.2084L33.7486 24.0001L35.677 27.7917L31.842 29.7309L31.1811 33.9126L26.967 33.2517L23.9661 36.2417L20.9545 33.2084L16.7728 33.9017L16.1011 29.6876L12.3203 27.7592L14.2486 23.9676L12.3311 20.2084L16.1336 18.2476L16.7945 14.0984L20.987 14.7917L23.9986 11.7476L26.9995 14.7484L31.2028 14.0876ZM21.2903 18.5834C20.8593 18.5834 20.446 18.7546 20.1413 19.0593C19.8365 19.3641 19.6653 19.7774 19.6653 20.2084C19.6653 20.6394 19.8365 21.0527 20.1413 21.3574C20.446 21.6622 20.8593 21.8334 21.2903 21.8334C21.7213 21.8334 22.1346 21.6622 22.4394 21.3574C22.7441 21.0527 22.9153 20.6394 22.9153 20.2084C22.9153 19.7774 22.7441 19.3641 22.4394 19.0593C22.1346 18.7546 21.7213 18.5834 21.2903 18.5834ZM26.707 26.1667C26.276 26.1667 25.8627 26.3379 25.5579 26.6427C25.2532 26.9474 25.082 27.3607 25.082 27.7917C25.082 28.2227 25.2532 28.636 25.5579 28.9408C25.8627 29.2455 26.276 29.4167 26.707 29.4167C27.138 29.4167 27.5513 29.2455 27.856 28.9408C28.1608 28.636 28.332 28.2227 28.332 27.7917C28.332 27.3607 28.1608 26.9474 27.856 26.6427C27.5513 26.3379 27.138 26.1667 26.707 26.1667ZM20.1095 29.4167L29.4153 20.1109L27.8878 18.5834L18.582 27.8892L20.1095 29.4167Z" fill="url(#paint0_linear)"/>
<defs>
<linearGradient id="paint0_linear" x1="12.3203" y1="11.7476" x2="36.7868" y2="35.0778" gradientUnits="userSpaceOnUse">
<stop stop-color="#FF8BBE"/>
<stop offset="1" stop-color="#DA347E"/>
</linearGradient>
</defs>
</svg>
