<svg width="48" height="48" viewBox="0 0 48 48" fill="none" xmlns="http://www.w3.org/2000/svg">
<circle cx="24" cy="24" r="24" fill="#FFDBEB"/>
<path d="M32.668 14.25H15.3346C14.76 14.25 14.2089 14.4783 13.8026 14.8846C13.3962 15.2909 13.168 15.842 13.168 16.4167V20.75C13.168 21.3246 13.3962 21.8757 13.8026 22.2821C14.2089 22.6884 14.76 22.9167 15.3346 22.9167H32.668C33.2426 22.9167 33.7937 22.6884 34.2 22.2821C34.6064 21.8757 34.8346 21.3246 34.8346 20.75V16.4167C34.8346 15.842 34.6064 15.2909 34.2 14.8846C33.7937 14.4783 33.2426 14.25 32.668 14.25ZM27.2513 19.6667H25.0846V17.5H27.2513V19.6667ZM31.5846 19.6667H29.418V17.5H31.5846V19.6667ZM32.668 25.0833H15.3346C14.76 25.0833 14.2089 25.3116 13.8026 25.7179C13.3962 26.1243 13.168 26.6754 13.168 27.25V31.5833C13.168 32.158 13.3962 32.7091 13.8026 33.1154C14.2089 33.5217 14.76 33.75 15.3346 33.75H32.668C33.2426 33.75 33.7937 33.5217 34.2 33.1154C34.6064 32.7091 34.8346 32.158 34.8346 31.5833V27.25C34.8346 26.6754 34.6064 26.1243 34.2 25.7179C33.7937 25.3116 33.2426 25.0833 32.668 25.0833ZM27.2513 30.5H25.0846V28.3333H27.2513V30.5ZM31.5846 30.5H29.418V28.3333H31.5846V30.5Z" fill="url(#paint0_linear)"/>
<defs>
<linearGradient id="paint0_linear" x1="13.168" y1="14.25" x2="32.5602" y2="35.797" gradientUnits="userSpaceOnUse">
<stop stop-color="#FF8BBE"/>
<stop offset="1" stop-color="#DA347E"/>
</linearGradient>
</defs>
</svg>
