<svg width="48" height="48" viewBox="0 0 48 48" fill="none" xmlns="http://www.w3.org/2000/svg">
<circle cx="24" cy="24" r="24" fill="#FFEBCD"/>
<path d="M17.5016 15.5499C17.5016 15.3775 17.57 15.2122 17.6919 15.0903C17.8138 14.9684 17.9792 14.8999 18.1516 14.8999H22.0516C22.224 14.8999 22.3893 14.9684 22.5112 15.0903C22.6331 15.2122 22.7016 15.3775 22.7016 15.5499V19.4499C22.7016 19.6223 22.6331 19.7876 22.5112 19.9095C22.3893 20.0314 22.224 20.0999 22.0516 20.0999H18.1516C17.9792 20.0999 17.8138 20.0314 17.6919 19.9095C17.57 19.7876 17.5016 19.6223 17.5016 19.4499V15.5499ZM25.9516 14.8999C25.7792 14.8999 25.6138 14.9684 25.4919 15.0903C25.37 15.2122 25.3016 15.3775 25.3016 15.5499V19.4499C25.3016 19.6223 25.37 19.7876 25.4919 19.9095C25.6138 20.0314 25.7792 20.0999 25.9516 20.0999H29.8516C30.024 20.0999 30.1893 20.0314 30.3112 19.9095C30.4331 19.7876 30.5016 19.6223 30.5016 19.4499V15.5499C30.5016 15.3775 30.4331 15.2122 30.3112 15.0903C30.1893 14.9684 30.024 14.8999 29.8516 14.8999H25.9516ZM26.6016 18.7999V16.1999H29.2016V18.7999H26.6016ZM13.6016 26.5999C13.6016 25.2208 14.1494 23.8981 15.1246 22.9229C16.0998 21.9478 17.4224 21.3999 18.8016 21.3999H29.2016C30.5807 21.3999 31.9033 21.9478 32.8785 22.9229C33.8537 23.8981 34.4016 25.2208 34.4016 26.5999C34.4016 27.979 33.8537 29.3017 32.8785 30.2769C31.9033 31.252 30.5807 31.7999 29.2016 31.7999H18.8016C17.4224 31.7999 16.0998 31.252 15.1246 30.2769C14.1494 29.3017 13.6016 27.979 13.6016 26.5999ZM20.1016 26.5999C20.1016 26.2551 19.9646 25.9245 19.7208 25.6807C19.477 25.4369 19.1463 25.2999 18.8016 25.2999C18.4568 25.2999 18.1261 25.4369 17.8823 25.6807C17.6385 25.9245 17.5016 26.2551 17.5016 26.5999C17.5016 26.9447 17.6385 27.2753 17.8823 27.5191C18.1261 27.7629 18.4568 27.8999 18.8016 27.8999C19.1463 27.8999 19.477 27.7629 19.7208 27.5191C19.9646 27.2753 20.1016 26.9447 20.1016 26.5999ZM25.3016 26.5999C25.3016 26.2551 25.1646 25.9245 24.9208 25.6807C24.677 25.4369 24.3463 25.2999 24.0016 25.2999C23.6568 25.2999 23.3261 25.4369 23.0823 25.6807C22.8385 25.9245 22.7016 26.2551 22.7016 26.5999C22.7016 26.9447 22.8385 27.2753 23.0823 27.5191C23.3261 27.7629 23.6568 27.8999 24.0016 27.8999C24.3463 27.8999 24.677 27.7629 24.9208 27.5191C25.1646 27.2753 25.3016 26.9447 25.3016 26.5999ZM29.2016 27.8999C29.5463 27.8999 29.877 27.7629 30.1208 27.5191C30.3646 27.2753 30.5016 26.9447 30.5016 26.5999C30.5016 26.2551 30.3646 25.9245 30.1208 25.6807C29.877 25.4369 29.5463 25.2999 29.2016 25.2999C28.8568 25.2999 28.5261 25.4369 28.2823 25.6807C28.0385 25.9245 27.9016 26.2551 27.9016 26.5999C27.9016 26.9447 28.0385 27.2753 28.2823 27.5191C28.5261 27.7629 28.8568 27.8999 29.2016 27.8999Z" fill="url(#paint0_linear)"/>
<defs>
<linearGradient id="paint0_linear" x1="13.6016" y1="14.8999" x2="29.2549" y2="40.5144" gradientUnits="userSpaceOnUse">
<stop stop-color="#FF996D"/>
<stop offset="1" stop-color="#DB2F17"/>
</linearGradient>
</defs>
</svg>
