<svg width="48" height="48" viewBox="0 0 48 48" fill="none" xmlns="http://www.w3.org/2000/svg">
<circle cx="24" cy="24" r="24" fill="#FFEBCD"/>
<path d="M33.9439 17.9002L24.3143 13.4557C24.2168 13.4106 24.1106 13.3872 24.0032 13.3872C23.8957 13.3872 23.7896 13.4106 23.6921 13.4557L14.0624 17.9002C13.9339 17.9597 13.8251 18.0548 13.7489 18.1743C13.6728 18.2937 13.6325 18.4325 13.6328 18.5742V31.1668C13.6325 31.3085 13.6728 31.4473 13.7489 31.5668C13.8251 31.6863 13.9339 31.7814 14.0624 31.8409L23.6921 36.2853C23.7896 36.3305 23.8957 36.3538 24.0032 36.3538C24.1106 36.3538 24.2168 36.3305 24.3143 36.2853L33.9439 31.8409C34.0725 31.7814 34.1813 31.6863 34.2575 31.5668C34.3336 31.4473 34.3739 31.3085 34.3736 31.1668V18.5742C34.3739 18.4325 34.3336 18.2937 34.2575 18.1743C34.1813 18.0548 34.0725 17.9597 33.9439 17.9002ZM24.0032 22.2039L16.1439 18.5742L24.0032 14.9446L31.8624 18.5742L24.0032 22.2039ZM32.8921 30.6927L24.7439 34.4557V23.4927L32.8921 19.7298V30.6927Z" fill="url(#paint0_linear)"/>
<defs>
<linearGradient id="paint0_linear" x1="13.6328" y1="13.3872" x2="37.1431" y2="41.6157" gradientUnits="userSpaceOnUse">
<stop stop-color="#FF996D"/>
<stop offset="1" stop-color="#DB2F17"/>
</linearGradient>
</defs>
</svg>
