<svg width="48" height="48" viewBox="0 0 48 48" fill="none" xmlns="http://www.w3.org/2000/svg">
<circle cx="24" cy="24" r="24" fill="#FFEBCD"/>
<path d="M30.3946 24.4165C29.6469 23.8269 28.5247 23.3557 27.0282 23.0037L25.88 22.7328V17.8292L26.0355 17.8926C27.01 18.3861 27.5336 19.32 27.6054 20.36H31.5137C31.4424 18.28 30.6739 16.7419 29.208 15.6551C28.234 14.9328 27.1233 14.4684 25.88 14.2344V11.52H22.24V14.1512C20.5568 14.3592 19.2219 14.9011 18.2417 15.7819C16.9584 16.9353 16.3172 18.383 16.3172 20.126C16.3172 22.036 16.9729 23.44 18.2844 24.338C19.0186 24.8471 20.342 25.3198 22.24 25.7576V31.0699C21.5479 30.8791 21.0055 30.565 20.6233 30.1111C20.2546 29.6701 20.0076 29.2 19.8818 28.16H16C16 30.24 16.7337 31.7324 18.2017 32.8899C19.2614 33.7251 20.6103 34.2326 22.24 34.4525V36.48H25.88V34.4869C27.6132 34.2794 29.0125 33.7261 30.0722 32.8208C31.4466 31.6456 32.134 30.1688 32.134 28.3909C32.134 26.6567 31.5542 25.3323 30.3946 24.4165ZM21.0274 21.3917C20.3956 21.0485 20.0799 20.5275 20.0799 19.8317C20.0799 19.0746 20.4002 18.4813 21.0409 18.059C21.3789 17.8359 21.7814 17.6737 22.24 17.5666V21.8431C21.6758 21.6787 21.2686 21.5279 21.0274 21.3917ZM26.4744 30.9633C26.2796 31.0284 26.0812 31.0815 25.88 31.1225V26.6C26.5066 26.7857 27.0011 26.9879 27.361 27.2053C27.9288 27.5573 28.2132 28.0581 28.2132 28.7003C28.2127 29.8006 27.6329 30.5583 26.4744 30.9633Z" fill="url(#paint0_linear)"/>
<defs>
<linearGradient id="paint0_linear" x1="16" y1="11.52" x2="41.6841" y2="33.5932" gradientUnits="userSpaceOnUse">
<stop stop-color="#FF996D"/>
<stop offset="1" stop-color="#DB2F17"/>
</linearGradient>
</defs>
</svg>
