<svg width="48" height="48" viewBox="0 0 48 48" fill="none" xmlns="http://www.w3.org/2000/svg">
<circle cx="24" cy="24" r="24" fill="#C3F0FF"/>
<path fill-rule="evenodd" clip-rule="evenodd" d="M20.1758 11H27.712V29.8404V29.8406H27.7119L25.0743 32.1013H22.4367L20.1759 29.8406H20.1758V29.8404V11ZM24.6628 37H23.1179L22.8164 33.6087H25.0773L24.6628 37Z" fill="url(#paint0_linear)"/>
<rect x="22.0625" y="13.2607" width="1.88406" height="10.5507" fill="#C3F0FF"/>
<rect x="23.9473" y="13.2607" width="1.88406" height="1.50725" fill="#C3F0FF"/>
<rect x="23.9473" y="16.2754" width="1.88406" height="1.50725" fill="#C3F0FF"/>
<rect x="23.9473" y="19.2898" width="1.88406" height="1.50725" fill="#C3F0FF"/>
<rect x="23.9473" y="22.3044" width="1.88406" height="1.50725" fill="#C3F0FF"/>
<rect x="18.668" y="32.1013" width="11.6812" height="1.50725" fill="url(#paint1_linear)"/>
<rect x="29.2188" y="30.9709" width="3.76812" height="1.50725" transform="rotate(90 29.2188 30.9709)" fill="url(#paint2_linear)"/>
<defs>
<linearGradient id="paint0_linear" x1="18.6872" y1="8.4554" x2="36.3664" y2="13.4666" gradientUnits="userSpaceOnUse">
<stop stop-color="#5AA6FF"/>
<stop offset="1" stop-color="#0874D8"/>
</linearGradient>
<linearGradient id="paint1_linear" x1="16.3606" y1="31.9538" x2="16.8672" y2="35.7932" gradientUnits="userSpaceOnUse">
<stop stop-color="#5AA6FF"/>
<stop offset="1" stop-color="#0874D8"/>
</linearGradient>
<linearGradient id="paint2_linear" x1="28.4744" y1="30.8234" x2="29.8432" y2="34.1698" gradientUnits="userSpaceOnUse">
<stop stop-color="#5AA6FF"/>
<stop offset="1" stop-color="#0874D8"/>
</linearGradient>
</defs>
</svg>
