<svg width="48" height="48" viewBox="0 0 48 48" fill="none" xmlns="http://www.w3.org/2000/svg">
<circle cx="24" cy="24" r="24" fill="#DDDFFF"/>
<path fill-rule="evenodd" clip-rule="evenodd" d="M14.0724 14.1534C14.0338 13.5282 14.5304 13 15.1568 13H33.4807C34.1097 13 34.6073 13.5325 34.5647 14.16L33.6475 27.667H35.0442V26.3766C35.0442 25.964 35.3786 25.6296 35.7911 25.6296C36.2036 25.6296 36.538 25.964 36.538 26.3766V28.4136C36.538 28.8261 36.2036 29.1605 35.7911 29.1605C35.7451 29.1605 35.7001 29.1564 35.6563 29.1484C35.6121 29.1566 35.5665 29.1608 35.5199 29.1608H33.5461L33.5 29.8396H35.5199C35.5662 29.8396 35.6115 29.8438 35.6555 29.8519C35.6995 29.8438 35.7448 29.8396 35.7911 29.8396C36.2036 29.8396 36.538 30.174 36.538 30.5865V32.6236C36.538 33.0361 36.2036 33.3705 35.7911 33.3705C35.3786 33.3705 35.0442 33.0361 35.0442 32.6236V31.3334H33.4829C33.4545 31.3334 33.4264 31.3319 33.3989 31.3288L33.3116 32.6147L29.8903 35.0002H18.6186L15.212 32.6147L14.0724 14.1534Z" fill="url(#paint0_linear)"/>
<path d="M17.3269 17.1391C17.2894 16.5146 17.7858 15.9875 18.4114 15.9875H30.2209C30.8491 15.9875 31.3464 16.5187 31.305 17.1456L30.4702 29.7905L28.1293 31.4692H20.417L18.0862 29.7905L17.3269 17.1391Z" fill="#DDDFFF"/>
<path d="M27.3074 23.9592C27.3074 25.5563 25.9692 26.8517 24.3197 26.8517C22.6703 26.8517 21.332 25.5563 21.332 23.9592C21.332 22.7284 23.1091 20.2452 23.9214 19.1713C24.1205 18.9097 24.5189 18.9097 24.7181 19.1713C25.5304 20.2452 27.3074 22.7284 27.3074 23.9592Z" fill="url(#paint1_linear)"/>
<rect x="23.1605" y="28.9569" width="2.17286" height="4.20992" rx="1.08643" fill="#666DDD" stroke="#DDDFFF" stroke-width="0.67902"/>
<defs>
<linearGradient id="paint0_linear" x1="14.0703" y1="13" x2="35.8551" y2="52.267" gradientUnits="userSpaceOnUse">
<stop stop-color="#8A90F8"/>
<stop offset="1" stop-color="#3B42BD"/>
</linearGradient>
<linearGradient id="paint1_linear" x1="21.332" y1="18.9751" x2="30.1467" y2="30.7775" gradientUnits="userSpaceOnUse">
<stop stop-color="#8A90F8"/>
<stop offset="1" stop-color="#3B42BD"/>
</linearGradient>
</defs>
</svg>
