<svg width="48" height="49" viewBox="0 0 48 49" fill="none" xmlns="http://www.w3.org/2000/svg">
<circle cx="24" cy="24.5" r="24" fill="#C3F0FF"/>
<path d="M32.5556 13H27.4467C25.8578 13 20.5533 13 20.5533 13H15.4444C14.7961 13 14.1744 13.2575 13.716 13.716C13.2575 14.1744 13 14.7961 13 15.4444V32.5556C13 33.2039 13.2575 33.8256 13.716 34.284C14.1744 34.7425 14.7961 35 15.4444 35H32.5556C33.2039 35 33.8256 34.7425 34.284 34.284C34.7425 33.8256 35 33.2039 35 32.5556V15.4444C35 14.7961 34.7425 14.1744 34.284 13.716C33.8256 13.2575 33.2039 13 32.5556 13ZM15.4444 25.7844H18.0967L22.1667 17.9867L23.3156 26.5056L26.3589 22.6067L29.5367 25.7844H32.5556V27.6667H28.7544L26.53 25.4789L22.02 31.2356L21.0911 24.1833L19.2456 27.6667H15.4444V25.7844Z" fill="url(#paint0_linear)"/>
<defs>
<linearGradient id="paint0_linear" x1="8.65443" y1="10.8469" x2="37.1551" y2="38.7181" gradientUnits="userSpaceOnUse">
<stop stop-color="#5AA6FF"/>
<stop offset="1" stop-color="#0874D8"/>
</linearGradient>
</defs>
</svg>
