<svg width="48" height="48" viewBox="0 0 48 48" fill="none" xmlns="http://www.w3.org/2000/svg">
<circle cx="24" cy="24" r="24" fill="#DDDFFF"/>
<path fill-rule="evenodd" clip-rule="evenodd" d="M34.0331 32.6912C33.998 33.3151 33.7222 33.902 33.2624 34.3314C32.8027 34.7608 32.1938 35 31.5609 35H16.4384C15.8056 35 15.1967 34.7608 14.737 34.3314C14.2772 33.902 14.0014 33.3151 13.9663 32.6912L13.0038 15.5801C12.9851 15.2482 13.0352 14.9161 13.151 14.604C13.2667 14.2918 13.4457 14.0063 13.6771 13.7648C13.9084 13.5233 14.1872 13.3309 14.4964 13.1994C14.8056 13.0679 15.1387 13.0001 15.4753 13H32.524C32.8608 13 33.1939 13.0678 33.5032 13.1992C33.8125 13.3307 34.0913 13.5231 34.3227 13.7646C34.5541 14.0061 34.7332 14.2916 34.849 14.6038C34.9648 14.916 35.0149 15.2482 34.9962 15.5801L34.0331 32.6912ZM30.3403 20.1983C30.8479 19.8683 30.9754 19.2138 30.5588 18.7878C29.8523 18.068 29.0265 17.4723 28.117 17.0266C26.8543 16.4082 25.4673 16.0768 24.0579 16.0568C22.6472 16.0337 21.2491 16.3222 19.9659 16.9013C19.0408 17.3187 18.1941 17.8882 17.4622 18.5856C17.0308 18.9987 17.1342 19.6562 17.6299 20.0021L20.2989 21.8636C20.7941 22.2094 21.4923 22.0976 22.0054 21.7749C22.1378 21.692 22.2757 21.6181 22.4182 21.5537C22.8738 21.348 23.3681 21.2391 23.8691 21.2341L25.9692 18.8502C26.0769 18.7278 26.2294 18.6527 26.3932 18.6413C26.4743 18.6357 26.5557 18.6459 26.6328 18.6714C26.7099 18.6968 26.7812 18.737 26.8426 18.7897C26.904 18.8423 26.9542 18.9064 26.9905 18.9782C27.0268 19.05 27.0484 19.1282 27.0541 19.2083C27.0598 19.2883 27.0495 19.3687 27.0237 19.4449C26.9979 19.521 26.9572 19.5914 26.9039 19.6519L25.2748 21.5006C25.4954 21.5907 25.7061 21.7029 25.9036 21.8354C26.405 22.1734 27.0982 22.306 27.6058 21.976L30.3397 20.1977L30.3403 20.1983Z" fill="url(#paint0_linear)"/>
<defs>
<linearGradient id="paint0_linear" x1="13" y1="13" x2="35.0248" y2="51.8736" gradientUnits="userSpaceOnUse">
<stop stop-color="#8A90F8"/>
<stop offset="1" stop-color="#3B42BD"/>
</linearGradient>
</defs>
</svg>
