<svg width="48" height="48" viewBox="0 0 48 48" fill="none" xmlns="http://www.w3.org/2000/svg">
<circle cx="24" cy="24" r="24" fill="#FFDBEB"/>
<rect x="12" y="22" width="24" height="12" rx="2" fill="url(#paint0_linear)"/>
<rect x="27" y="13" width="9" height="8" rx="1" fill="url(#paint1_linear)"/>
<rect x="28" y="14" width="7" height="6" rx="1" fill="#FFDBEB"/>
<path d="M19 23H29V30.0909C29 30.593 28.593 31 28.0909 31H19.9091C19.407 31 19 30.593 19 30.0909V23Z" fill="#FFDBEB"/>
<path fill-rule="evenodd" clip-rule="evenodd" d="M24.7269 21H23.3633V21.2727H22.9062V24.4545H23.3633V31H24.7269V24.4545H25.179V21.2727H24.7269V21Z" fill="url(#paint2_linear)"/>
<defs>
<linearGradient id="paint0_linear" x1="12" y1="22" x2="21.6" y2="41.2" gradientUnits="userSpaceOnUse">
<stop stop-color="#FF8BBE"/>
<stop offset="1" stop-color="#DA347E"/>
</linearGradient>
<linearGradient id="paint1_linear" x1="27" y1="13" x2="34.9448" y2="21.9379" gradientUnits="userSpaceOnUse">
<stop stop-color="#FF8BBE"/>
<stop offset="1" stop-color="#DA347E"/>
</linearGradient>
<linearGradient id="paint2_linear" x1="22.9062" y1="21" x2="27.2284" y2="21.9823" gradientUnits="userSpaceOnUse">
<stop stop-color="#FF8BBE"/>
<stop offset="1" stop-color="#DA347E"/>
</linearGradient>
</defs>
</svg>
