<svg width="48" height="48" viewBox="0 0 48 48" fill="none" xmlns="http://www.w3.org/2000/svg">
<circle cx="24" cy="24" r="24" fill="#FFEBCD"/>
<path fill-rule="evenodd" clip-rule="evenodd" d="M20.1758 11H27.712V29.8404V29.8406H27.7119L25.0743 32.1013H22.4367L20.1759 29.8406H20.1758V29.8404V11ZM24.6628 37H23.1179L22.8164 33.6087H25.0773L24.6628 37Z" fill="url(#paint0_linear)"/>
<rect x="22.0625" y="13.2607" width="1.88406" height="10.5507" fill="#FFEBCD"/>
<rect x="23.9492" y="13.2607" width="1.88406" height="1.50725" fill="#FFEBCD"/>
<rect x="23.9492" y="16.2754" width="1.88406" height="1.50725" fill="#FFEBCD"/>
<rect x="23.9492" y="19.2898" width="1.88406" height="1.50725" fill="#FFEBCD"/>
<rect x="23.9492" y="22.3044" width="1.88406" height="1.50725" fill="#FFEBCD"/>
<rect x="18.668" y="32.1013" width="11.6812" height="1.50725" fill="url(#paint1_linear)"/>
<rect x="29.2188" y="30.9709" width="3.76812" height="1.50725" transform="rotate(90 29.2188 30.9709)" fill="url(#paint2_linear)"/>
<defs>
<linearGradient id="paint0_linear" x1="20.1758" y1="11" x2="38.3366" y2="17.9987" gradientUnits="userSpaceOnUse">
<stop stop-color="#FF996D"/>
<stop offset="1" stop-color="#DB2F17"/>
</linearGradient>
<linearGradient id="paint1_linear" x1="18.668" y1="32.1013" x2="18.9696" y2="35.2096" gradientUnits="userSpaceOnUse">
<stop stop-color="#FF996D"/>
<stop offset="1" stop-color="#DB2F17"/>
</linearGradient>
<linearGradient id="paint2_linear" x1="29.2188" y1="30.9709" x2="30.0844" y2="33.8481" gradientUnits="userSpaceOnUse">
<stop stop-color="#FF996D"/>
<stop offset="1" stop-color="#DB2F17"/>
</linearGradient>
</defs>
</svg>
