<svg width="48" height="48" viewBox="0 0 48 48" fill="none" xmlns="http://www.w3.org/2000/svg">
<circle cx="24" cy="24" r="24" fill="#FFEBCD"/>
<rect x="12" y="16.125" width="24" height="15.75" fill="url(#paint0_linear)"/>
<rect x="14.625" y="19.125" width="7.5" height="1.5" fill="#FFEBCD"/>
<rect x="24.75" y="19.125" width="8.625" height="1.5" fill="#FFEBCD"/>
<rect x="25.8281" y="21.769" width="3.75" height="1.5" transform="rotate(45 25.8281 21.769)" fill="#FFEBCD"/>
<rect x="28.8086" y="21.75" width="3.75" height="1.5" transform="rotate(45 28.8086 21.75)" fill="#FFEBCD"/>
<rect x="29.9609" y="22.8105" width="3.75" height="1.5" transform="rotate(135 29.9609 22.8105)" fill="#FFEBCD"/>
<rect x="33.3359" y="23.1855" width="3.75" height="1.5" transform="rotate(135 33.3359 23.1855)" fill="#FFEBCD"/>
<rect x="24.75" y="27.375" width="8.625" height="1.5" fill="#FFEBCD"/>
<rect x="24.75" y="28.5" width="8.625" height="1.5" transform="rotate(-90 24.75 28.5)" fill="#FFEBCD"/>
<rect x="31.875" y="28.5" width="8.625" height="1.5" transform="rotate(-90 31.875 28.5)" fill="#FFEBCD"/>
<rect x="14.625" y="21.75" width="7.5" height="1.5" fill="#FFEBCD"/>
<rect x="14.625" y="24.75" width="1.5" height="1.5" fill="#FFEBCD"/>
<rect x="17.625" y="24.75" width="1.5" height="1.5" fill="#FFEBCD"/>
<rect x="20.625" y="24.75" width="1.5" height="1.5" fill="#FFEBCD"/>
<rect x="20.625" y="27.375" width="1.5" height="1.5" fill="#FFEBCD"/>
<rect x="17.625" y="27.375" width="1.5" height="1.5" fill="#FFEBCD"/>
<rect x="14.625" y="27.375" width="1.5" height="1.5" fill="#FFEBCD"/>
<rect x="14.25" y="33" width="4.125" height="1.5" fill="url(#paint1_linear)"/>
<rect x="29.625" y="33" width="4.125" height="1.5" fill="url(#paint2_linear)"/>
<rect x="25.5" y="13.5" width="3" height="1.5" fill="url(#paint3_linear)"/>
<rect x="29.625" y="13.5" width="3" height="1.5" fill="url(#paint4_linear)"/>
<defs>
<linearGradient id="paint0_linear" x1="12" y1="16.125" x2="25.0128" y2="42.4885" gradientUnits="userSpaceOnUse">
<stop stop-color="#FF996D"/>
<stop offset="1" stop-color="#DB2F17"/>
</linearGradient>
<linearGradient id="paint1_linear" x1="14.25" y1="33" x2="15.0446" y2="35.9052" gradientUnits="userSpaceOnUse">
<stop stop-color="#FF996D"/>
<stop offset="1" stop-color="#DB2F17"/>
</linearGradient>
<linearGradient id="paint2_linear" x1="29.625" y1="33" x2="30.4196" y2="35.9052" gradientUnits="userSpaceOnUse">
<stop stop-color="#FF996D"/>
<stop offset="1" stop-color="#DB2F17"/>
</linearGradient>
<linearGradient id="paint3_linear" x1="25.5" y1="13.5" x2="26.5288" y2="16.2356" gradientUnits="userSpaceOnUse">
<stop stop-color="#FF996D"/>
<stop offset="1" stop-color="#DB2F17"/>
</linearGradient>
<linearGradient id="paint4_linear" x1="29.625" y1="13.5" x2="30.6538" y2="16.2356" gradientUnits="userSpaceOnUse">
<stop stop-color="#FF996D"/>
<stop offset="1" stop-color="#DB2F17"/>
</linearGradient>
</defs>
</svg>
