<svg width="48" height="49" viewBox="0 0 48 49" fill="none" xmlns="http://www.w3.org/2000/svg">
<circle cx="24" cy="24.5" r="24" fill="#FFDBEB"/>
<path d="M32.6403 35H16.3697C16.003 35 15.6856 34.8639 15.4176 34.5918C15.1496 34.3197 15.0156 33.9974 15.0156 33.625V14.375C15.0156 13.9883 15.1496 13.6624 15.4176 13.3975C15.6856 13.1325 16.003 13 16.3697 13H32.6403C33.0071 13 33.3245 13.1325 33.5925 13.3975C33.8605 13.6624 33.9945 13.9883 33.9945 14.375V33.625C33.9945 33.9974 33.8605 34.3197 33.5925 34.5918C33.3245 34.8639 33.0071 35 32.6403 35ZM21.1092 15.75H18.4009C18.2176 15.75 18.0589 15.818 17.9249 15.9541C17.7909 16.0902 17.7239 16.2513 17.7239 16.4375C17.7239 16.6237 17.7909 16.7848 17.9249 16.9209C18.0589 17.057 18.2176 17.125 18.4009 17.125H21.1092C21.2925 17.125 21.4512 17.057 21.5852 16.9209C21.7192 16.7848 21.7862 16.6237 21.7862 16.4375C21.7862 16.2513 21.7192 16.0902 21.5852 15.9541C21.4512 15.818 21.2925 15.75 21.1092 15.75ZM21.1092 18.5H18.4009C18.2176 18.5 18.0589 18.568 17.9249 18.7041C17.7909 18.8402 17.7239 19.0013 17.7239 19.1875C17.7239 19.3737 17.7909 19.5348 17.9249 19.6709C18.0589 19.807 18.2176 19.875 18.4009 19.875H21.1092C21.2925 19.875 21.4512 19.807 21.5852 19.6709C21.7192 19.5348 21.7862 19.3737 21.7862 19.1875C21.7862 19.0013 21.7192 18.8402 21.5852 18.7041C21.4512 18.568 21.2925 18.5 21.1092 18.5ZM21.1092 21.25H18.4009C18.2176 21.25 18.0589 21.318 17.9249 21.4541C17.7909 21.5902 17.7239 21.7513 17.7239 21.9375C17.7239 22.1237 17.7909 22.2848 17.9249 22.4209C18.0589 22.557 18.2176 22.625 18.4009 22.625H21.1092C21.2925 22.625 21.4512 22.557 21.5852 22.4209C21.7192 22.2848 21.7862 22.1237 21.7862 21.9375C21.7862 21.7513 21.7192 21.5902 21.5852 21.4541C21.4512 21.318 21.2925 21.25 21.1092 21.25ZM21.1092 24H18.4009C18.2176 24 18.0589 24.068 17.9249 24.2041C17.7909 24.3402 17.7239 24.5013 17.7239 24.6875C17.7239 24.8737 17.7909 25.0348 17.9249 25.1709C18.0589 25.307 18.2176 25.375 18.4009 25.375H21.1092C21.2925 25.375 21.4512 25.307 21.5852 25.1709C21.7192 25.0348 21.7862 24.8737 21.7862 24.6875C21.7862 24.5013 21.7192 24.3402 21.5852 24.2041C21.4512 24.068 21.2925 24 21.1092 24ZM29.9109 25.0742V18.5C29.9109 17.7409 29.6465 17.0928 29.1175 16.5557C28.5886 16.0186 27.9503 15.75 27.2027 15.75C26.4551 15.75 25.8168 16.0186 25.2879 16.5557C24.7589 17.0928 24.4945 17.7409 24.4945 18.5V25.0742C23.5917 25.8906 23.1403 26.9076 23.1403 28.125C23.1403 29.2565 23.5388 30.2269 24.3358 31.0361C25.1327 31.8454 26.0919 32.25 27.2133 32.25C28.3347 32.25 29.2938 31.8454 30.0908 31.0361C30.8877 30.2269 31.2862 29.2565 31.2862 28.125C31.2862 26.9219 30.8278 25.9049 29.9109 25.0742ZM27.2027 30.875C26.4551 30.875 25.8168 30.6064 25.2879 30.0693C24.7589 29.5322 24.4945 28.8841 24.4945 28.125C24.4945 27.6237 24.6179 27.1654 24.8647 26.75C25.1116 26.3346 25.4395 26.0052 25.8486 25.7617V21.25H28.5568V25.7617C28.98 26.0052 29.3115 26.3346 29.5513 26.75C29.7911 27.1654 29.9109 27.6237 29.9109 28.125C29.9109 28.8841 29.6465 29.5322 29.1175 30.0693C28.5886 30.6064 27.9503 30.875 27.2027 30.875Z" fill="url(#paint0_linear)"/>
<defs>
<linearGradient id="paint0_linear" x1="15.0156" y1="13" x2="36.7778" y2="31.7736" gradientUnits="userSpaceOnUse">
<stop stop-color="#FF8BBE"/>
<stop offset="1" stop-color="#DA347E"/>
</linearGradient>
</defs>
</svg>
