<svg width="48" height="49" viewBox="0 0 48 49" fill="none" xmlns="http://www.w3.org/2000/svg">
<circle cx="24" cy="24.5" r="24" fill="#DDDFFF"/>
<path d="M28.6596 22.4617C25.2363 22.4617 22.4846 25.2242 22.4846 28.6367C22.4846 32.0492 25.2471 34.8334 28.6596 34.8334C32.0721 34.8334 34.8346 32.0492 34.8346 28.6367C34.8346 25.2242 32.0721 22.4617 28.6596 22.4617ZM28.6596 15.2576V13.1667C20.1121 13.1667 13.168 20.1217 13.168 28.6692H15.248C15.2696 21.2484 21.293 15.2576 28.6596 15.2576ZM28.6596 19.3851V17.3051C22.3763 17.3051 17.2955 22.4076 17.2955 28.6692H19.3755C19.3971 23.5451 23.5571 19.3851 28.6596 19.3851Z" fill="url(#paint0_linear)"/>
<defs>
<linearGradient id="paint0_linear" x1="13.168" y1="13.1667" x2="34.8591" y2="51.4514" gradientUnits="userSpaceOnUse">
<stop stop-color="#8A90F8"/>
<stop offset="1" stop-color="#3B42BD"/>
</linearGradient>
</defs>
</svg>
