<svg width="48" height="48" viewBox="0 0 48 48" fill="none" xmlns="http://www.w3.org/2000/svg">
<circle cx="24" cy="24" r="24" fill="#FFDBEB"/>
<path d="M33.75 32.125V30.5C33.75 30.175 33.75 23.8375 29.2 21.725C25.625 20.1 25.625 16.0375 25.625 15.875V11H22.375V15.875C22.375 16.0375 22.375 20.1 18.8 21.725C14.25 23.8375 14.25 30.175 14.25 30.5V32.125H11L15.875 37L20.75 32.125H17.5V30.5C17.5 30.5 17.5 25.95 20.2625 24.65C22.05 23.8375 23.1875 22.5375 24 21.4C24.8125 22.7 25.95 23.8375 27.7375 24.65C30.5 25.95 30.5 30.5 30.5 30.5V32.125H27.25L32.125 37L37 32.125H33.75Z" fill="url(#paint0_linear)"/>
<defs>
<linearGradient id="paint0_linear" x1="11" y1="11" x2="37" y2="37" gradientUnits="userSpaceOnUse">
<stop stop-color="#FF8BBE"/>
<stop offset="1" stop-color="#DA347E"/>
</linearGradient>
</defs>
</svg>
