<svg width="48" height="48" viewBox="0 0 48 48" fill="none" xmlns="http://www.w3.org/2000/svg">
<circle cx="24" cy="24" r="24" fill="#C3F0FF"/>
<rect x="14.25" y="34" width="4.125" height="1.5" fill="url(#paint0_linear)"/>
<path fill-rule="evenodd" clip-rule="evenodd" d="M32 13H16L12 30V33H36V30L32 13Z" fill="url(#paint1_linear)"/>
<rect x="29.625" y="34" width="4.125" height="1.5" fill="url(#paint2_linear)"/>
<g clip-path="url(#clip0)">
<path d="M24.0018 15.875C25.5538 15.8746 27.0619 16.39 28.2891 17.3402C29.5163 18.2904 30.3928 19.6215 30.781 21.1241C31.1692 22.6268 31.047 24.2159 30.4336 25.6416C29.8202 27.0672 28.7504 28.2486 27.3924 29H20.6111C19.2531 28.2486 18.1833 27.0672 17.5699 25.6416C16.9565 24.2159 16.8343 22.6268 17.2225 21.1241C17.6107 19.6215 18.4873 18.2904 19.7144 17.3402C20.9416 16.39 22.4497 15.8746 24.0018 15.875ZM27.9655 26.8387C28.4876 26.3194 28.9016 25.7017 29.1833 25.0213C29.4651 24.3409 29.6091 23.6114 29.607 22.875H28.3768V22H29.5396C29.4446 21.3883 29.2479 20.7968 28.9578 20.25H27.5018V19.375H28.3803C27.7014 18.5217 26.7872 17.8862 25.7509 17.5471V18.5H24.8759V17.3371C24.296 17.2469 23.7057 17.2469 23.1259 17.3371V18.5H22.2509V17.5471C21.2148 17.8868 20.3008 18.5222 19.6215 19.375H20.5V20.25H19.044C18.7539 20.7968 18.5572 21.3883 18.4621 22H19.625V22.875H18.3948C18.3948 24.3721 18.9775 25.78 20.0363 26.8387C20.1824 26.9849 20.3364 27.1222 20.4948 27.25H23.125L23.6246 20.25H24.3745L24.8741 27.25H27.5044C27.6636 27.1222 27.8168 26.9849 27.9629 26.8387H27.9655Z" fill="#C3F0FF"/>
</g>
<defs>
<linearGradient id="paint0_linear" x1="13.4352" y1="33.8532" x2="14.7051" y2="37.2684" gradientUnits="userSpaceOnUse">
<stop stop-color="#5AA6FF"/>
<stop offset="1" stop-color="#0874D8"/>
</linearGradient>
<linearGradient id="paint1_linear" x1="7.25938" y1="11.0426" x2="32.8474" y2="41.07" gradientUnits="userSpaceOnUse">
<stop stop-color="#5AA6FF"/>
<stop offset="1" stop-color="#0874D8"/>
</linearGradient>
<linearGradient id="paint2_linear" x1="28.8102" y1="33.8532" x2="30.0801" y2="37.2684" gradientUnits="userSpaceOnUse">
<stop stop-color="#5AA6FF"/>
<stop offset="1" stop-color="#0874D8"/>
</linearGradient>
<clipPath id="clip0">
<rect width="14" height="14" fill="white" transform="translate(17 15)"/>
</clipPath>
</defs>
</svg>
