<svg width="48" height="48" viewBox="0 0 48 48" fill="none" xmlns="http://www.w3.org/2000/svg">
<circle cx="24" cy="24" r="24" fill="#DDDFFF"/>
<path d="M30.25 12C30.0511 12 29.8603 12.079 29.7197 12.2197C29.579 12.3603 29.5 12.5511 29.5 12.75C29.5 12.9489 29.579 13.1397 29.7197 13.2803C29.8603 13.421 30.0511 13.5 30.25 13.5H32.5V17.625H31.75C31.5511 17.625 31.3603 17.704 31.2197 17.8447C31.079 17.9853 31 18.1761 31 18.375C31 18.5739 31.079 18.7647 31.2197 18.9053C31.3603 19.046 31.5511 19.125 31.75 19.125H32.5V23.25H30.25C30.0511 23.25 29.8603 23.329 29.7197 23.4697C29.579 23.6103 29.5 23.8011 29.5 24C29.5 24.1989 29.579 24.3897 29.7197 24.5303C29.8603 24.671 30.0511 24.75 30.25 24.75H32.5V28.875H31.75C31.5511 28.875 31.3603 28.954 31.2197 29.0947C31.079 29.2353 31 29.4261 31 29.625C31 29.8239 31.079 30.0147 31.2197 30.1553C31.3603 30.296 31.5511 30.375 31.75 30.375H32.5V34.5H30.25C30.0511 34.5 29.8603 34.579 29.7197 34.7197C29.579 34.8603 29.5 35.0511 29.5 35.25C29.5 35.4489 29.579 35.6397 29.7197 35.7803C29.8603 35.921 30.0511 36 30.25 36H33.25C33.4489 36 33.6397 35.921 33.7803 35.7803C33.921 35.6397 34 35.4489 34 35.25V12.75C34 12.5511 33.921 12.3603 33.7803 12.2197C33.6397 12.079 33.4489 12 33.25 12H30.25ZM20.5 14.25L21.046 13.7355C20.9759 13.661 20.8913 13.6017 20.7974 13.5612C20.7035 13.5206 20.6023 13.4997 20.5 13.4997C20.3977 13.4997 20.2965 13.5206 20.2026 13.5612C20.1087 13.6017 20.0241 13.661 19.954 13.7355L19.951 13.7385L19.942 13.749L19.909 13.7835L19.789 13.9155C19.1258 14.6516 18.4884 15.4106 17.878 16.191C16.7245 17.6655 15.307 19.6785 14.3005 21.7815C13.552 23.346 13 25.023 13 26.5995C13 30.921 16.318 34.5 20.5 34.5C24.682 34.5 28 30.921 28 26.5995C28 25.0245 27.448 23.346 26.6995 21.7815C25.693 19.6785 24.2755 17.6655 23.122 16.191C22.4748 15.3638 21.7974 14.5607 21.091 13.7835L21.058 13.749L21.049 13.7385L21.046 13.737L20.5 14.25Z" fill="url(#paint0_linear)"/>
<defs>
<linearGradient id="paint0_linear" x1="13" y1="12" x2="38.5583" y2="51.4714" gradientUnits="userSpaceOnUse">
<stop stop-color="#8A90F8"/>
<stop offset="1" stop-color="#3B42BD"/>
</linearGradient>
</defs>
</svg>
