<svg width="48" height="48" viewBox="0 0 48 48" fill="none" xmlns="http://www.w3.org/2000/svg">
<circle cx="24" cy="24" r="24" fill="#C3F0FF"/>
<g clip-path="url(#clip0)">
<path d="M36.1875 30.3876H33.4453C33.2422 30.9698 32.9206 31.502 32.4805 31.9843L33.6738 34.055C33.7754 34.2546 33.7965 34.4542 33.7373 34.6538C33.6781 34.8533 33.5638 35.0113 33.3945 35.1278L32.0488 35.9012C31.8626 36.0009 31.668 36.0259 31.4648 35.976C31.2617 35.9261 31.1094 35.8014 31.0078 35.6018L29.7891 33.5061C29.4505 33.5727 29.1458 33.6059 28.875 33.6059C28.6042 33.6059 28.2995 33.5727 27.9609 33.5061L26.7422 35.6018C26.6406 35.8014 26.4883 35.9261 26.2852 35.976C26.082 36.0259 25.8874 36.0009 25.7012 35.9012L24.3555 35.1278C24.1862 35.0113 24.0719 34.8533 24.0127 34.6538C23.9535 34.4542 23.9746 34.2546 24.0762 34.055L25.2695 31.9843C24.8294 31.502 24.5078 30.9698 24.3047 30.3876H21.5625C21.3424 30.3876 21.152 30.3128 20.9912 30.1631C20.8304 30.0134 20.75 29.8222 20.75 29.5893V27.9926C20.75 27.7764 20.8304 27.5893 20.9912 27.4313C21.152 27.2733 21.3424 27.1943 21.5625 27.1943H24.3047C24.5078 26.6288 24.8294 26.1049 25.2695 25.6226L24.0762 23.5519C23.9746 23.3523 23.9535 23.1527 24.0127 22.9531C24.0719 22.7536 24.1862 22.5955 24.3555 22.4791L25.7012 21.7057C25.8874 21.6059 26.082 21.581 26.2852 21.6309C26.4883 21.6808 26.6406 21.7972 26.7422 21.9802L27.9609 24.1007C28.2995 24.0342 28.6042 24.001 28.875 24.001C29.1458 24.001 29.4505 24.0342 29.7891 24.1007L31.0078 21.9802C31.1094 21.7972 31.2617 21.6808 31.4648 21.6309C31.668 21.581 31.8626 21.6059 32.0488 21.7057L33.3945 22.4791C33.5638 22.5955 33.6781 22.7536 33.7373 22.9531C33.7965 23.1527 33.7754 23.3523 33.6738 23.5519L32.4805 25.6226C32.9206 26.1049 33.2422 26.6288 33.4453 27.1943H36.1875C36.4076 27.1943 36.598 27.2733 36.7588 27.4313C36.9196 27.5893 37 27.7764 37 27.9926V29.5893C37 29.8222 36.9196 30.0134 36.7588 30.1631C36.598 30.3128 36.4076 30.3876 36.1875 30.3876ZM28.875 27.1943C28.418 27.1943 28.0329 27.3523 27.7197 27.6683C27.4066 27.9843 27.25 28.3627 27.25 28.8034C27.25 29.2442 27.4066 29.6184 27.7197 29.9261C28.0329 30.2338 28.418 30.3876 28.875 30.3876C29.332 30.3876 29.7171 30.2338 30.0303 29.9261C30.3434 29.6184 30.5 29.2442 30.5 28.8034C30.5 28.3627 30.3434 27.9843 30.0303 27.6683C29.7171 27.3523 29.332 27.1943 28.875 27.1943ZM26.4375 20.8076H23.6953C23.4922 21.3897 23.1706 21.922 22.7305 22.4043L23.9238 24.475C24.0254 24.6579 24.0465 24.8533 23.9873 25.0612C23.9281 25.2691 23.8138 25.4313 23.6445 25.5477L22.2988 26.3211C22.1126 26.4209 21.918 26.4417 21.7148 26.3835C21.5117 26.3253 21.3594 26.2047 21.2578 26.0217L20.0391 23.9261C19.7174 23.976 19.4128 24.001 19.125 24.001C18.8372 24.001 18.5326 23.976 18.2109 23.9261L16.9922 26.0217C16.8906 26.2047 16.7383 26.3253 16.5352 26.3835C16.332 26.4417 16.1374 26.4209 15.9512 26.3211L14.6055 25.5477C14.4362 25.4313 14.3219 25.2691 14.2627 25.0612C14.2035 24.8533 14.2246 24.6579 14.3262 24.475L15.5195 22.4043C15.0794 21.922 14.7578 21.3897 14.5547 20.8076H11.8125C11.5924 20.8076 11.402 20.7328 11.2412 20.5831C11.0804 20.4334 11 20.2421 11 20.0093V18.4126C11 18.1964 11.0804 18.0093 11.2412 17.8513C11.402 17.6933 11.5924 17.6143 11.8125 17.6143H14.5547C14.7578 17.0488 15.0794 16.5166 15.5195 16.0176L14.3262 13.9469C14.2246 13.764 14.2035 13.5685 14.2627 13.3606C14.3219 13.1527 14.4362 12.9989 14.6055 12.8991L15.9512 12.1257C16.1374 12.0093 16.332 11.9802 16.5352 12.0384C16.7383 12.0966 16.8906 12.2172 16.9922 12.4001L18.2109 14.5207C18.5495 14.4542 18.8542 14.4209 19.125 14.4209C19.3958 14.4209 19.7005 14.4542 20.0391 14.5207L21.2578 12.4001C21.3594 12.2172 21.5117 12.0966 21.7148 12.0384C21.918 11.9802 22.1126 12.0093 22.2988 12.1257L23.6445 12.8991C23.8138 12.9989 23.9281 13.1527 23.9873 13.3606C24.0465 13.5685 24.0254 13.764 23.9238 13.9469L22.7305 16.0176C23.1706 16.5166 23.4922 17.0488 23.6953 17.6143H26.4375C26.6576 17.6143 26.848 17.6933 27.0088 17.8513C27.1696 18.0093 27.25 18.1964 27.25 18.4126V20.0093C27.25 20.2421 27.1696 20.4334 27.0088 20.5831C26.848 20.7328 26.6576 20.8076 26.4375 20.8076ZM19.125 17.6143C18.668 17.6143 18.2829 17.7723 17.9697 18.0883C17.6566 18.4043 17.5 18.7827 17.5 19.2234C17.5 19.6642 17.6566 20.0384 17.9697 20.3461C18.2829 20.6538 18.668 20.8076 19.125 20.8076C19.582 20.8076 19.9671 20.6538 20.2803 20.3461C20.5934 20.0384 20.75 19.6642 20.75 19.2234C20.75 18.7827 20.5934 18.4043 20.2803 18.0883C19.9671 17.7723 19.582 17.6143 19.125 17.6143Z" fill="url(#paint0_linear)"/>
</g>
<defs>
<linearGradient id="paint0_linear" x1="5.86432" y1="9.66123" x2="36.9006" y2="42.5527" gradientUnits="userSpaceOnUse">
<stop stop-color="#5AA6FF"/>
<stop offset="1" stop-color="#0874D8"/>
</linearGradient>
<clipPath id="clip0">
<rect width="26" height="24" fill="white" transform="translate(11 12)"/>
</clipPath>
</defs>
</svg>
