<svg width="48" height="48" viewBox="0 0 48 48" fill="none" xmlns="http://www.w3.org/2000/svg">
<circle cx="24" cy="24" r="24" fill="#FFDBEB"/>
<path fill-rule="evenodd" clip-rule="evenodd" d="M28.6861 12.416H19.3192L15.8066 21.7829H15.8072L19.3198 31.1497L28.6866 31.1497L32.1992 21.7828H32.1986L28.6861 12.416Z" fill="url(#paint0_linear)"/>
<rect x="32.4927" y="21.4902" width="3.51258" height="0.585429" fill="url(#paint1_linear)"/>
<rect x="12.002" y="21.4902" width="3.51258" height="0.585429" fill="url(#paint2_linear)"/>
<rect x="13.1719" y="34.0771" width="12.5867" height="1.17086" transform="rotate(-90 13.1719 34.0771)" fill="url(#paint3_linear)"/>
<rect x="33.6641" y="34.0771" width="12.5867" height="1.17086" transform="rotate(-90 33.6641 34.0771)" fill="url(#paint4_linear)"/>
<rect x="12.002" y="33.4917" width="24.0026" height="1.75629" fill="url(#paint5_linear)"/>
<defs>
<linearGradient id="paint0_linear" x1="15.8066" y1="12.416" x2="34.3746" y2="28.6636" gradientUnits="userSpaceOnUse">
<stop stop-color="#FF8BBE"/>
<stop offset="1" stop-color="#DA347E"/>
</linearGradient>
<linearGradient id="paint1_linear" x1="32.4927" y1="21.4902" x2="32.6825" y2="22.6294" gradientUnits="userSpaceOnUse">
<stop stop-color="#FF8BBE"/>
<stop offset="1" stop-color="#DA347E"/>
</linearGradient>
<linearGradient id="paint2_linear" x1="12.002" y1="21.4902" x2="12.1918" y2="22.6294" gradientUnits="userSpaceOnUse">
<stop stop-color="#FF8BBE"/>
<stop offset="1" stop-color="#DA347E"/>
</linearGradient>
<linearGradient id="paint3_linear" x1="13.1719" y1="34.0771" x2="13.3878" y2="36.3988" gradientUnits="userSpaceOnUse">
<stop stop-color="#FF8BBE"/>
<stop offset="1" stop-color="#DA347E"/>
</linearGradient>
<linearGradient id="paint4_linear" x1="33.6641" y1="34.0771" x2="33.88" y2="36.3988" gradientUnits="userSpaceOnUse">
<stop stop-color="#FF8BBE"/>
<stop offset="1" stop-color="#DA347E"/>
</linearGradient>
<linearGradient id="paint5_linear" x1="12.002" y1="33.4917" x2="12.2576" y2="36.9856" gradientUnits="userSpaceOnUse">
<stop stop-color="#FF8BBE"/>
<stop offset="1" stop-color="#DA347E"/>
</linearGradient>
</defs>
</svg>
