<svg width="48" height="48" viewBox="0 0 48 48" fill="none" xmlns="http://www.w3.org/2000/svg">
<circle cx="24" cy="24" r="24" fill="#FFEBCD"/>
<rect x="32" y="22" width="2" height="1" fill="url(#paint0_linear)"/>
<rect x="14" y="22" width="2" height="1" fill="url(#paint1_linear)"/>
<rect x="14" y="33.584" width="12" height="1" transform="rotate(-90 14 33.584)" fill="url(#paint2_linear)"/>
<rect x="33" y="33.584" width="12" height="1" transform="rotate(-90 33 33.584)" fill="url(#paint3_linear)"/>
<rect x="21" y="29.584" width="6" height="2" fill="url(#paint4_linear)"/>
<rect x="13" y="33" width="22" height="2" fill="url(#paint5_linear)"/>
<rect x="23" y="12" width="2" height="3" fill="url(#paint6_linear)"/>
<rect x="22" y="13" width="4" height="2" fill="url(#paint7_linear)"/>
<path fill-rule="evenodd" clip-rule="evenodd" d="M19.4286 14.584H28.5714L32 20.584V24.584L25.5714 29.584L22.4286 29.584L16 24.584V20.584L19.4286 14.584Z" fill="url(#paint8_linear)"/>
<defs>
<linearGradient id="paint0_linear" x1="32" y1="22" x2="32.6859" y2="23.8238" gradientUnits="userSpaceOnUse">
<stop stop-color="#FF996D"/>
<stop offset="1" stop-color="#DB2F17"/>
</linearGradient>
<linearGradient id="paint1_linear" x1="14" y1="22" x2="14.6859" y2="23.8238" gradientUnits="userSpaceOnUse">
<stop stop-color="#FF996D"/>
<stop offset="1" stop-color="#DB2F17"/>
</linearGradient>
<linearGradient id="paint2_linear" x1="14" y1="33.584" x2="14.13" y2="35.6575" gradientUnits="userSpaceOnUse">
<stop stop-color="#FF996D"/>
<stop offset="1" stop-color="#DB2F17"/>
</linearGradient>
<linearGradient id="paint3_linear" x1="33" y1="33.584" x2="33.13" y2="35.6575" gradientUnits="userSpaceOnUse">
<stop stop-color="#FF996D"/>
<stop offset="1" stop-color="#DB2F17"/>
</linearGradient>
<linearGradient id="paint4_linear" x1="21" y1="29.584" x2="21.9821" y2="33.5011" gradientUnits="userSpaceOnUse">
<stop stop-color="#FF996D"/>
<stop offset="1" stop-color="#DB2F17"/>
</linearGradient>
<linearGradient id="paint5_linear" x1="13" y1="33" x2="13.2833" y2="37.144" gradientUnits="userSpaceOnUse">
<stop stop-color="#FF996D"/>
<stop offset="1" stop-color="#DB2F17"/>
</linearGradient>
<linearGradient id="paint6_linear" x1="23" y1="12" x2="26.0999" y2="14.7477" gradientUnits="userSpaceOnUse">
<stop stop-color="#FF996D"/>
<stop offset="1" stop-color="#DB2F17"/>
</linearGradient>
<linearGradient id="paint7_linear" x1="22" y1="13" x2="23.3717" y2="16.6475" gradientUnits="userSpaceOnUse">
<stop stop-color="#FF996D"/>
<stop offset="1" stop-color="#DB2F17"/>
</linearGradient>
<linearGradient id="paint8_linear" x1="16" y1="14.584" x2="30.7059" y2="35.4397" gradientUnits="userSpaceOnUse">
<stop stop-color="#FF996D"/>
<stop offset="1" stop-color="#DB2F17"/>
</linearGradient>
</defs>
</svg>
