<svg width="48" height="48" viewBox="0 0 48 48" fill="none" xmlns="http://www.w3.org/2000/svg">
<circle cx="24" cy="24" r="24" fill="#DDDFFF"/>
<rect x="32.002" y="21.0005" width="4" height="1" fill="url(#paint0_linear)"/>
<rect x="12.002" y="21.0005" width="4" height="1" fill="url(#paint1_linear)"/>
<rect x="13.002" y="35.0005" width="14" height="1" transform="rotate(-90 13.002 35.0005)" fill="url(#paint2_linear)"/>
<rect x="34.002" y="35.0005" width="14" height="1" transform="rotate(-90 34.002 35.0005)" fill="url(#paint3_linear)"/>
<rect x="21.002" y="33.0005" width="6" height="2" fill="url(#paint4_linear)"/>
<rect x="23.002" y="31.0005" width="2" height="2" fill="url(#paint5_linear)"/>
<path fill-rule="evenodd" clip-rule="evenodd" d="M19.4305 14H28.5734L32.002 20V24L25.5734 31L22.4305 31L16.002 24V20L19.4305 14Z" fill="url(#paint6_linear)"/>
<defs>
<linearGradient id="paint0_linear" x1="32.002" y1="21.0005" x2="32.3261" y2="23.2888" gradientUnits="userSpaceOnUse">
<stop stop-color="#8A90F8"/>
<stop offset="1" stop-color="#3B42BD"/>
</linearGradient>
<linearGradient id="paint1_linear" x1="12.002" y1="21.0005" x2="12.3261" y2="23.2888" gradientUnits="userSpaceOnUse">
<stop stop-color="#8A90F8"/>
<stop offset="1" stop-color="#3B42BD"/>
</linearGradient>
<linearGradient id="paint2_linear" x1="13.002" y1="35.0005" x2="13.0963" y2="37.3309" gradientUnits="userSpaceOnUse">
<stop stop-color="#8A90F8"/>
<stop offset="1" stop-color="#3B42BD"/>
</linearGradient>
<linearGradient id="paint3_linear" x1="34.002" y1="35.0005" x2="34.0963" y2="37.3309" gradientUnits="userSpaceOnUse">
<stop stop-color="#8A90F8"/>
<stop offset="1" stop-color="#3B42BD"/>
</linearGradient>
<linearGradient id="paint4_linear" x1="21.002" y1="33.0005" x2="21.8533" y2="37.5081" gradientUnits="userSpaceOnUse">
<stop stop-color="#8A90F8"/>
<stop offset="1" stop-color="#3B42BD"/>
</linearGradient>
<linearGradient id="paint5_linear" x1="23.002" y1="31.0005" x2="25.0042" y2="34.5345" gradientUnits="userSpaceOnUse">
<stop stop-color="#8A90F8"/>
<stop offset="1" stop-color="#3B42BD"/>
</linearGradient>
<linearGradient id="paint6_linear" x1="16.002" y1="14" x2="33.5356" y2="43.1264" gradientUnits="userSpaceOnUse">
<stop stop-color="#8A90F8"/>
<stop offset="1" stop-color="#3B42BD"/>
</linearGradient>
</defs>
</svg>
