<svg width="48" height="48" viewBox="0 0 48 48" fill="none" xmlns="http://www.w3.org/2000/svg">
<circle cx="24" cy="24" r="24" fill="#FFEBCD"/>
<path d="M17.4999 13.1665H30.4999C31.0746 13.1665 31.6257 13.3948 32.032 13.8011C32.4383 14.2074 32.6666 14.7585 32.6666 15.3332V32.6665C32.6666 33.2411 32.4383 33.7922 32.032 34.1986C31.6257 34.6049 31.0746 34.8332 30.4999 34.8332H17.4999C16.9253 34.8332 16.3742 34.6049 15.9679 34.1986C15.5615 33.7922 15.3333 33.2411 15.3333 32.6665V15.3332C15.3333 14.7585 15.5615 14.2074 15.9679 13.8011C16.3742 13.3948 16.9253 13.1665 17.4999 13.1665V13.1665ZM18.5833 15.3332C18.2959 15.3332 18.0204 15.4473 17.8172 15.6505C17.6141 15.8536 17.4999 16.1292 17.4999 16.4165C17.4999 16.7038 17.6141 16.9794 17.8172 17.1825C18.0204 17.3857 18.2959 17.4998 18.5833 17.4998C18.8706 17.4998 19.1461 17.3857 19.3493 17.1825C19.5524 16.9794 19.6666 16.7038 19.6666 16.4165C19.6666 16.1292 19.5524 15.8536 19.3493 15.6505C19.1461 15.4473 18.8706 15.3332 18.5833 15.3332V15.3332ZM21.8333 15.3332C21.5459 15.3332 21.2704 15.4473 21.0672 15.6505C20.8641 15.8536 20.7499 16.1292 20.7499 16.4165C20.7499 16.7038 20.8641 16.9794 21.0672 17.1825C21.2704 17.3857 21.5459 17.4998 21.8333 17.4998C22.1206 17.4998 22.3961 17.3857 22.5993 17.1825C22.8024 16.9794 22.9166 16.7038 22.9166 16.4165C22.9166 16.1292 22.8024 15.8536 22.5993 15.6505C22.3961 15.4473 22.1206 15.3332 21.8333 15.3332V15.3332ZM23.9999 19.6665C22.276 19.6665 20.6227 20.3513 19.4037 21.5703C18.1847 22.7893 17.4999 24.4426 17.4999 26.1665C17.4999 27.8904 18.1847 29.5437 19.4037 30.7627C20.6227 31.9817 22.276 32.6665 23.9999 32.6665C25.7238 32.6665 27.3771 31.9817 28.5961 30.7627C29.8151 29.5437 30.4999 27.8904 30.4999 26.1665C30.4999 24.4426 29.8151 22.7893 28.5961 21.5703C27.3771 20.3513 25.7238 19.6665 23.9999 19.6665V19.6665ZM19.7858 22.3748H21.8333C21.5733 23.8698 21.8333 24.7257 22.4616 25.3973C23.6533 26.5565 24.1733 28.019 23.8808 29.9582H21.8333C22.0933 28.4632 21.8333 27.6073 21.2049 26.9357C20.0133 25.7765 19.5041 24.314 19.7858 22.3748ZM24.1191 22.3748H26.1666C25.9066 23.8698 26.1666 24.7257 26.7949 25.3973C27.9866 26.5565 28.5066 28.019 28.2141 29.9582H26.1666C26.4266 28.4632 26.1666 27.6073 25.5383 26.9357C24.3466 25.7765 23.8374 24.314 24.1191 22.3748Z" fill="url(#paint0_linear)"/>
<defs>
<linearGradient id="paint0_linear" x1="15.3333" y1="13.1665" x2="37.842" y2="37.1076" gradientUnits="userSpaceOnUse">
<stop stop-color="#FF996D"/>
<stop offset="1" stop-color="#DB2F17"/>
</linearGradient>
</defs>
</svg>
