<svg width="48" height="48" viewBox="0 0 48 48" fill="none" xmlns="http://www.w3.org/2000/svg">
<circle cx="24" cy="24" r="24" fill="#FFDBEB"/>
<path d="M35.3577 24.6449L33.7327 16.9358C33.4189 15.2539 32.2103 14.25 30.5 14.25H17.5C16.6469 14.25 15.9258 14.4882 15.3621 14.9579C14.7984 15.4276 14.4293 16.0908 14.2663 16.9328L12.6413 24.6449C12.6303 24.7001 12.6248 24.7562 12.625 24.8125V30.5C12.625 31.362 12.9674 32.1886 13.5769 32.7981C14.1864 33.4076 15.0131 33.75 15.875 33.75H32.125C32.987 33.75 33.8136 33.4076 34.4231 32.7981C35.0326 32.1886 35.375 31.362 35.375 30.5V24.8125C35.3748 24.7562 35.3691 24.7001 35.3577 24.6449ZM15.8577 17.2613V17.2471C16.038 16.3112 16.559 15.876 17.4975 15.876H30.5C31.445 15.876 31.9661 16.3102 32.1387 17.2425C32.1387 17.2491 32.1413 17.2557 32.1423 17.2623L33.5098 23.7562C33.516 23.7858 33.5155 23.8164 33.5084 23.8458C33.5013 23.8752 33.4877 23.9026 33.4686 23.9261C33.4495 23.9495 33.4254 23.9684 33.3981 23.9814C33.3708 23.9943 33.341 24.0011 33.3107 24.001H27.25C27.0358 23.9999 26.8299 24.0839 26.6775 24.2346C26.5252 24.3852 26.4388 24.5901 26.4375 24.8044C26.4375 25.4508 26.1807 26.0708 25.7236 26.5279C25.2665 26.9851 24.6465 27.2419 24 27.2419C23.3535 27.2419 22.7336 26.9851 22.2764 26.5279C21.8193 26.0708 21.5625 25.4508 21.5625 24.8044C21.562 24.6982 21.5405 24.5932 21.4994 24.4953C21.4583 24.3974 21.3983 24.3086 21.3228 24.2339C21.2474 24.1592 21.158 24.1001 21.0597 24.06C20.9614 24.0198 20.8562 23.9995 20.75 24H14.6893C14.659 24 14.6292 23.9933 14.6019 23.9804C14.5746 23.9674 14.5505 23.9485 14.5314 23.925C14.5123 23.9016 14.4988 23.8742 14.4916 23.8448C14.4845 23.8154 14.484 23.7848 14.4902 23.7552L15.8577 17.2613Z" fill="url(#paint0_linear)"/>
<path d="M29.6875 19.125H18.3125C18.097 19.125 17.8903 19.0394 17.738 18.887C17.5856 18.7347 17.5 18.528 17.5 18.3125C17.5 18.097 17.5856 17.8903 17.738 17.738C17.8903 17.5856 18.097 17.5 18.3125 17.5H29.6875C29.903 17.5 30.1097 17.5856 30.262 17.738C30.4144 17.8903 30.5 18.097 30.5 18.3125C30.5 18.528 30.4144 18.7347 30.262 18.887C30.1097 19.0394 29.903 19.125 29.6875 19.125Z" fill="url(#paint1_linear)"/>
<path d="M30.5 22.375H17.5C17.2845 22.375 17.0778 22.2894 16.9255 22.137C16.7731 21.9847 16.6875 21.778 16.6875 21.5625C16.6875 21.347 16.7731 21.1403 16.9255 20.988C17.0778 20.8356 17.2845 20.75 17.5 20.75H30.5C30.7155 20.75 30.9222 20.8356 31.0745 20.988C31.2269 21.1403 31.3125 21.347 31.3125 21.5625C31.3125 21.778 31.2269 21.9847 31.0745 22.137C30.9222 22.2894 30.7155 22.375 30.5 22.375Z" fill="url(#paint2_linear)"/>
<defs>
<linearGradient id="paint0_linear" x1="12.625" y1="14.25" x2="31.8956" y2="36.7324" gradientUnits="userSpaceOnUse">
<stop stop-color="#FF8BBE"/>
<stop offset="1" stop-color="#DA347E"/>
</linearGradient>
<linearGradient id="paint1_linear" x1="17.5" y1="17.5" x2="17.9" y2="20.7" gradientUnits="userSpaceOnUse">
<stop stop-color="#FF8BBE"/>
<stop offset="1" stop-color="#DA347E"/>
</linearGradient>
<linearGradient id="paint2_linear" x1="16.6875" y1="20.75" x2="17.0442" y2="23.9604" gradientUnits="userSpaceOnUse">
<stop stop-color="#FF8BBE"/>
<stop offset="1" stop-color="#DA347E"/>
</linearGradient>
</defs>
</svg>
