<svg width="172" height="171" viewBox="0 0 172 171" fill="none" xmlns="http://www.w3.org/2000/svg">
<path d="M86.0004 163.801C129.197 163.801 164.215 128.744 164.215 85.5001C164.215 42.2558 129.197 7.19946 86.0004 7.19946C42.8038 7.19946 7.78613 42.2558 7.78613 85.5001C7.78613 128.744 42.8038 163.801 86.0004 163.801Z" fill="#E2A237"/>
<path d="M166.948 95.3174C167.364 91.9855 172 88.8915 172 85.5001C172 82.0492 167.364 78.9552 166.948 75.6828C166.532 72.2913 170.336 68.1859 169.504 64.9135C168.672 61.5815 163.442 59.737 162.253 56.5836C161.064 53.4302 163.739 48.4917 162.134 45.5168C160.529 42.5418 155.002 41.9469 153.1 39.1504C151.198 36.354 152.565 30.9396 150.366 28.4406C148.108 25.8821 142.581 26.6556 140.084 24.4542C137.588 22.1932 137.648 16.6003 134.854 14.6963C132.061 12.7924 126.89 14.8153 123.918 13.2684C120.947 11.7214 119.699 6.24748 116.549 5.0575C113.399 3.86752 108.882 7.13997 105.554 6.30698C102.285 5.5335 99.7885 0.535583 96.4008 0.11909C93.0726 -0.297403 89.4471 3.98652 86.0594 3.98652C82.6123 3.98652 78.9869 -0.237904 75.718 0.11909C72.3303 0.535583 69.8341 5.5335 66.5653 6.30698C63.237 7.13997 58.7201 3.86752 55.5701 5.0575C52.4202 6.24748 51.1721 11.7214 48.2004 13.2684C45.2287 14.8748 39.9986 12.7924 37.2647 14.6963C34.3525 16.5408 34.4713 22.1337 31.9157 24.3947C29.3601 26.6556 23.8328 25.8821 21.6337 28.3811C19.3753 30.8801 20.8017 36.2945 18.8998 39.0909C16.9979 41.8874 11.4112 42.4229 9.86593 45.4573C8.32066 48.4322 10.9952 53.3707 9.74706 56.5241C8.5584 59.6775 3.32827 61.5815 2.4962 64.854C1.72357 68.1264 5.46786 72.2318 5.05183 75.6233C4.6358 78.9552 0 82.0492 0 85.5001C0 88.951 4.6358 92.045 5.05183 95.3174C5.46786 98.7089 1.66413 102.814 2.4962 106.087C3.32827 109.419 8.5584 111.263 9.74706 114.417C10.9357 117.57 8.26123 122.508 9.86593 125.483C11.4706 128.458 16.9979 129.053 18.8998 131.85C20.8017 134.646 19.4347 140.061 21.6337 142.56C23.8922 145.118 29.4195 144.345 31.9157 146.546C34.4119 148.807 34.3525 154.4 37.1458 156.304C39.9392 158.208 45.1099 156.185 48.0815 157.732C51.0532 159.279 52.3013 164.753 55.4513 165.943C58.6012 167.133 63.1182 163.86 66.4464 164.693C69.7153 165.467 72.2115 170.465 75.5992 170.881C78.9274 171.298 82.5529 167.014 85.9406 167.014C89.3877 167.014 93.0131 171.238 96.282 170.881C99.6697 170.465 102.166 165.467 105.435 164.693C108.763 163.86 113.28 167.133 116.43 165.943C119.58 164.753 120.828 159.279 123.8 157.732C126.771 156.125 132.001 158.208 134.735 156.304C137.529 154.4 137.41 148.807 139.965 146.546C142.521 144.285 148.048 145.059 150.247 142.56C152.506 140.061 151.079 134.646 152.981 131.85C154.883 129.053 160.47 128.518 162.015 125.483C163.56 122.508 160.886 117.57 162.134 114.417C163.323 111.263 168.553 109.359 169.385 106.087C170.336 102.874 166.532 98.7089 166.948 95.3174ZM86 161.123C44.3372 161.123 10.4603 127.209 10.4603 85.5001C10.4603 43.7913 44.3372 9.87692 86 9.87692C127.663 9.87692 161.54 43.7913 161.54 85.5001C161.54 127.209 127.663 161.123 86 161.123Z" fill="#E7B945"/>
<path d="M86 158.029C126.013 158.029 158.449 125.557 158.449 85.5002C158.449 45.4434 126.013 12.9709 86 12.9709C45.9874 12.9709 13.5508 45.4434 13.5508 85.5002C13.5508 125.557 45.9874 158.029 86 158.029Z" fill="#EFC645"/>
<path d="M32.2725 36.7705C45.1101 25.1087 62.2269 17.9688 80.9483 17.9688C120.947 17.9688 153.398 50.4552 153.398 90.498C153.398 109.24 146.266 126.376 134.617 139.228C149.237 125.959 158.449 106.801 158.449 85.4406C158.449 45.3978 125.999 12.9114 86.0002 12.9114C64.7231 12.9114 45.5261 22.1337 32.2725 36.7705Z" fill="#FFDB69"/>
<path d="M37.3838 63.8424C36.5517 64.9729 35.8385 65.8653 34.947 66.8173C34.8281 66.9958 34.7093 67.1743 34.5904 67.3528C33.7583 69.2568 31.6782 70.5658 28.8254 69.5543C26.2103 68.6023 24.8433 66.2818 25.7943 63.6639C26.7452 61.0459 29.2414 60.2724 31.6187 61.1649C33.58 61.8789 34.6498 63.3069 34.7687 64.6159H34.8281C35.2441 64.0209 35.7196 63.3664 36.0762 62.7119L37.3838 63.8424ZM30.965 63.3069C29.3603 62.7119 27.815 63.0094 27.3395 64.3779C26.8641 65.7463 27.8744 66.9363 29.5386 67.5313C31.2027 68.1263 32.748 67.7693 33.2234 66.4603C33.6395 65.1514 32.6291 63.9019 30.965 63.3069Z" fill="#7F6724"/>
<path d="M29.7763 55.096L34.3527 57.714C35.7197 58.4875 36.73 58.3685 37.2649 57.476C37.7998 56.524 37.4432 55.6315 36.0168 54.7986L31.4405 52.1806L32.4508 50.3956L36.9083 52.9541C39.3451 54.3821 39.8206 56.286 38.6319 58.3685C37.5027 60.3915 35.6602 60.927 33.164 59.4395L28.7065 56.881L29.7763 55.096Z" fill="#7F6724"/>
<path d="M40.8311 50.5741L42.2575 52.597L40.8905 54.263L35.5415 46.2902L37.2651 44.1482L46.2395 47.7181L44.8131 49.4436L42.5546 48.4916L40.8311 50.5741ZM41.1282 47.7776L39.2264 47.0041C38.6915 46.7661 38.0377 46.4687 37.5622 46.2307C37.9188 46.7066 38.3349 47.2421 38.6915 47.6586L39.8801 49.3246L41.1282 47.7776Z" fill="#7F6724"/>
<path d="M41.0093 40.0428L42.5545 38.6149L47.6064 44.1483L50.2809 41.6493L51.4695 42.9583L47.2498 46.8257L41.0093 40.0428Z" fill="#7F6724"/>
<path d="M48.6757 33.6169L54.203 40.9948L52.4794 42.2443L46.9521 34.8664L48.6757 33.6169Z" fill="#7F6724"/>
<path d="M53.3714 32.546L51.2318 33.7954L50.3403 32.308L56.462 28.738L57.3535 30.2255L55.2139 31.5345L59.0176 37.9604L57.2346 39.0314L53.3714 32.546Z" fill="#7F6724"/>
<path d="M64.248 35.2829L62.8216 31.7725L58.0669 27.8456L60.2659 26.9531L61.9895 28.6785C62.5244 29.214 62.881 29.571 63.297 30.047C63.297 29.452 63.297 28.857 63.297 28.143V25.7631L65.4366 24.8706L64.7234 30.9395L66.2093 34.5094L64.248 35.2829Z" fill="#7F6724"/>
<path d="M80.2355 30.5231C79.6411 30.8801 78.5119 31.3561 77.3233 31.594C75.6591 31.8915 74.411 31.713 73.4007 31.0586C72.4497 30.4041 71.796 29.3331 71.5582 27.9646C71.0233 24.9302 72.9252 22.8477 75.8968 22.3122C77.0855 22.0742 78.0365 22.1932 78.5119 22.3122L78.393 24.0377C77.8581 23.9187 77.2044 23.8592 76.2535 24.0377C74.5299 24.3352 73.4007 25.5252 73.7573 27.4886C74.1139 29.3926 75.4808 30.2851 77.145 29.9281C77.6204 29.8686 77.977 29.7496 78.0959 29.6306L77.7393 27.7266L76.3129 27.9646L76.0157 26.3581L79.4034 25.7632L80.2355 30.5231Z" fill="#7F6724"/>
<path d="M84.0982 21.5386V26.834C84.0982 28.4405 84.6926 29.214 85.7624 29.214C86.8322 29.214 87.4265 28.4405 87.4265 26.7745V21.4791H89.5067V26.6555C89.5067 29.5115 88.0803 30.88 85.7029 30.88C83.385 30.88 82.0181 29.571 82.0181 26.6555V21.5386H84.0982Z" fill="#7F6724"/>
<path d="M93.3697 28.9164L92.3593 31.1774L90.2197 30.8799L94.3206 22.1335L97.0546 22.55L98.5998 32.0699L96.3414 31.7724L95.9848 29.3329L93.3697 28.9164ZM95.9253 27.6669L95.6282 25.644C95.5687 25.049 95.5093 24.3945 95.4499 23.7995C95.2121 24.335 94.9744 24.9895 94.7961 25.525L93.964 27.3695L95.9253 27.6669Z" fill="#7F6724"/>
<path d="M102.701 23.8591C103.355 23.9781 104.306 24.2161 105.375 24.5136C106.683 24.9301 107.515 25.4061 107.991 26.1201C108.407 26.7151 108.466 27.4291 108.228 28.2621C107.872 29.3925 106.802 29.8685 105.97 29.928V29.9875C106.505 30.404 106.683 31.118 106.624 32.0105C106.564 33.0815 106.445 34.331 106.505 34.7474L104.484 34.093C104.425 33.7955 104.425 33.022 104.543 31.832C104.662 30.642 104.365 30.2255 103.533 29.928L102.939 29.7495L101.809 33.2005L99.8481 32.546L102.701 23.8591ZM103.474 28.2621L104.246 28.5001C105.257 28.7975 105.97 28.5001 106.208 27.7266C106.445 26.9531 106.029 26.3581 105.138 26.0606C104.662 25.8821 104.365 25.8226 104.246 25.8226L103.474 28.2621Z" fill="#7F6724"/>
<path d="M110.784 34.0335L109.12 35.8185L107.218 34.8665L113.874 27.9646L116.311 29.2141L114.647 38.7339L112.626 37.7224L113.102 35.283L110.784 34.0335ZM113.577 33.736L113.934 31.713C114.053 31.1775 114.231 30.4636 114.35 29.9281C113.993 30.3446 113.518 30.9395 113.161 31.2965L111.794 32.784L113.577 33.736Z" fill="#7F6724"/>
<path d="M115.776 39.4478L121.304 32.0699L123.265 33.5574L122.789 37.4249C122.671 38.5553 122.373 39.7453 122.076 40.8758C122.73 39.8048 123.443 38.7933 124.275 37.7223L125.88 35.5804L127.425 36.7109L121.839 44.0292L120.115 42.7203L120.709 38.6743C120.888 37.5438 121.066 36.2349 121.363 35.1044L121.304 35.0449C120.59 36.0564 119.877 37.1274 118.926 38.3173L117.262 40.5188L115.776 39.4478Z" fill="#7F6724"/>
<path d="M129.802 41.4112L128.079 39.6263L129.327 38.4363L134.26 43.5532L133.012 44.7432L131.288 42.9582L125.939 48.1346L124.513 46.6471L129.802 41.4112Z" fill="#7F6724"/>
<path d="M134.795 52.954L132.774 50.2171L130.991 51.526L133.25 54.5605L131.883 55.572L128.436 50.812L135.865 45.3381L139.252 49.9196L137.885 50.931L135.746 48.0156L134.201 49.1461L136.221 51.883L134.795 52.954Z" fill="#7F6724"/>
<path d="M138.718 59.7964L137.113 56.8215L135.211 57.8924L137.054 61.2244L135.568 62.0574L132.774 56.881L140.857 52.478L143.591 57.4759L142.105 58.3089L140.382 55.1555L138.718 56.048L140.322 59.0229L138.718 59.7964Z" fill="#7F6724"/>
<path d="M144.661 60.3319C145.018 60.9864 145.434 61.9384 145.79 62.8904C146.385 64.5563 146.444 65.7463 146.147 66.8173C145.79 67.9478 144.958 68.8998 143.413 69.4352C141.749 70.0302 140.382 69.8517 139.372 69.2568C138.302 68.6023 137.41 67.3528 136.816 65.6273C136.459 64.6158 136.281 63.8423 136.162 63.3664L144.661 60.3319ZM138.302 64.8538C138.302 65.0323 138.421 65.3298 138.48 65.5678C139.134 67.3528 140.501 68.1858 142.581 67.4123C144.364 66.7578 144.958 65.3893 144.364 63.6638C144.186 63.2474 144.067 62.9499 143.948 62.8309L138.302 64.8538Z" fill="#7F6724"/>
<path d="M30.9053 110.133L28.4685 110.549L27.5176 108.586L37.0269 107.158L38.2156 109.657L31.143 116.201L30.1921 114.178L32.0345 112.512L30.9053 110.133ZM33.342 111.561L34.8873 110.192C35.3033 109.835 35.8382 109.359 36.3137 109.002C35.7788 109.121 35.0656 109.3 34.5307 109.359L32.51 109.716L33.342 111.561Z" fill="#7F6724"/>
<path d="M40.0578 113.226C40.5333 113.702 41.1276 114.476 41.7814 115.428C42.554 116.558 42.9106 117.451 42.8512 118.284C42.7917 118.998 42.4351 119.593 41.7219 120.069C40.771 120.723 39.6418 120.485 38.9286 120.009H38.8691C39.0474 120.664 38.7503 121.318 38.1559 121.973C37.4427 122.806 36.6107 123.698 36.4324 124.055L35.2437 122.27C35.3626 121.973 35.8975 121.378 36.6701 120.545C37.5022 119.652 37.5022 119.176 37.0267 118.462L36.6701 117.927L33.6984 120.009L32.5098 118.284L40.0578 113.226ZM37.9182 117.213L38.3937 117.867C38.988 118.7 39.7606 118.938 40.4144 118.462C41.1276 117.986 41.1276 117.272 40.5927 116.499C40.2955 116.082 40.1172 115.844 39.9984 115.785L37.9182 117.213Z" fill="#7F6724"/>
<path d="M42.7919 130.719C42.4353 130.541 41.6627 130.065 40.89 129.291C38.691 126.971 39.0476 124.412 41.0089 122.627C43.3268 120.485 46.1202 120.961 48.022 122.984C48.7352 123.758 49.1513 124.531 49.2701 124.948L47.7843 125.721C47.606 125.305 47.3683 124.769 46.8334 124.234C45.7041 123.044 44.0994 122.746 42.6136 124.174C41.2466 125.424 41.1872 127.03 42.4353 128.399C42.8513 128.875 43.4457 129.291 43.8617 129.47L42.7919 130.719Z" fill="#7F6724"/>
<path d="M51.9444 126.792L49.7454 129.589L52.4793 131.671L54.6784 128.875L56.3425 130.124L50.6369 137.443L48.9728 136.193L51.3501 133.159L48.6162 131.076L46.2388 134.111L44.5747 132.861L50.2209 125.543L51.9444 126.792Z" fill="#7F6724"/>
<path d="M59.6115 132.088L54.9163 140.001L53.1333 138.93L57.8285 131.017L59.6115 132.088Z" fill="#7F6724"/>
<path d="M66.0303 141.31C66.3869 140.299 66.8624 138.99 67.3973 137.8C66.6841 138.752 65.7926 139.823 65.0794 140.715L62.6426 143.63L61.1568 143.035L61.6322 139.347C61.7511 138.216 61.9888 136.907 62.2266 135.717C61.6917 136.848 61.0973 138.157 60.6219 139.168L59.136 142.321L57.353 141.607L61.3945 133.337L63.9501 134.408L63.5935 137.621C63.4747 138.752 63.2964 139.882 63.0586 140.953H63.1181C63.7718 140.061 64.485 139.049 65.1982 138.216L67.2784 135.777L69.834 136.848L66.7435 145.534L64.9011 144.761L66.0303 141.31Z" fill="#7F6724"/>
<path d="M75.8964 143.511L72.5681 142.797L72.0927 144.939L75.7775 145.772L75.4209 147.438L69.7153 146.189L71.7361 137.205L77.2634 138.454L76.9067 140.12L73.4002 139.347L72.9842 141.191L76.3124 141.905L75.8964 143.511Z" fill="#7F6724"/>
<path d="M78.6894 138.811C79.462 138.752 80.4724 138.692 81.4828 138.811C83.2658 138.93 84.395 139.346 85.2271 140.06C86.1186 140.834 86.6535 142.024 86.5346 143.63C86.4157 145.415 85.7025 146.546 84.7516 147.26C83.7412 147.974 82.196 148.271 80.413 148.152C79.3432 148.093 78.5705 147.974 78.0356 147.855L78.6894 138.811ZM80.2941 146.427C80.4724 146.486 80.7696 146.486 81.0073 146.486C82.9092 146.605 84.2167 145.653 84.3356 143.452C84.4544 141.548 83.3846 140.477 81.6016 140.358C81.1262 140.358 80.829 140.358 80.6507 140.358L80.2941 146.427Z" fill="#7F6724"/>
<path d="M90.2198 138.87L90.7547 148.093L88.6745 148.212L88.1396 138.989L90.2198 138.87Z" fill="#7F6724"/>
<path d="M93.1914 145.713C93.7857 145.891 94.6772 146.07 95.5687 145.891C96.5197 145.713 96.9357 145.237 96.8763 144.642C96.7574 144.047 96.2819 143.809 95.1527 143.63C93.548 143.333 92.4188 142.678 92.181 141.369C91.9433 139.823 93.0131 138.454 95.1527 138.097C96.1631 137.919 96.9951 137.978 97.53 138.157L97.3517 139.882C96.9951 139.763 96.2819 139.644 95.3904 139.763C94.4989 139.882 94.1423 140.417 94.2018 140.834C94.3206 141.429 94.8555 141.607 96.1036 141.845C97.8272 142.202 98.6593 142.916 98.897 144.166C99.1347 145.713 98.1838 147.2 95.6876 147.617C94.6772 147.795 93.548 147.676 93.0131 147.498L93.1914 145.713Z" fill="#7F6724"/>
<path d="M112.091 142.202C111.557 142.619 110.546 143.333 109.417 143.809C107.872 144.404 106.564 144.463 105.494 143.987C104.425 143.511 103.533 142.559 103.058 141.31C101.988 138.454 103.414 136.015 106.208 134.884C107.337 134.468 108.228 134.349 108.763 134.349L108.941 136.074C108.407 136.015 107.753 136.134 106.802 136.491C105.197 137.145 104.306 138.514 105.019 140.358C105.732 142.143 107.218 142.738 108.823 142.143C109.239 141.964 109.595 141.786 109.714 141.667L109.001 139.882L107.693 140.418L107.099 138.871L110.308 137.621L112.091 142.202Z" fill="#7F6724"/>
<path d="M110.249 133.278L112.032 132.266L115.716 138.752L118.866 136.907L119.758 138.454L114.765 141.31L110.249 133.278Z" fill="#7F6724"/>
<path d="M125.226 128.458C127.068 130.838 126.771 133.397 124.632 135.063C122.492 136.729 119.936 136.134 118.332 134.051C116.608 131.85 116.727 129.172 118.867 127.506C121.125 125.721 123.681 126.435 125.226 128.458ZM120.055 132.623C121.185 134.051 122.611 134.527 123.74 133.694C124.869 132.802 124.632 131.255 123.562 129.886C122.552 128.577 121.066 127.923 119.936 128.815C118.748 129.648 118.926 131.255 120.055 132.623Z" fill="#7F6724"/>
<path d="M123.384 124.055C123.681 123.579 124.335 122.687 125.048 121.913C125.88 120.961 126.534 120.485 127.247 120.247C127.96 120.009 128.673 120.069 129.327 120.664C129.921 121.199 130.159 122.092 129.743 123.103C130.635 122.508 131.764 122.508 132.655 123.282C133.309 123.877 133.487 124.591 133.487 125.305C133.428 126.138 132.893 127.209 131.645 128.518C130.932 129.291 130.397 129.767 130.04 130.065L123.384 124.055ZM127.366 124.888L127.841 124.412C128.614 123.579 128.614 122.865 128.138 122.389C127.604 121.913 127.009 122.092 126.355 122.746C126.058 123.103 125.88 123.282 125.821 123.46L127.366 124.888ZM130.397 127.685C130.575 127.566 130.694 127.387 130.932 127.09C131.586 126.376 131.883 125.543 131.17 124.888C130.516 124.293 129.684 124.65 128.971 125.424L128.495 125.959L130.397 127.685Z" fill="#7F6724"/>
<path d="M135.567 119.89L137.172 121.735L135.983 123.52L129.802 116.082L131.288 113.822L140.56 116.499L139.312 118.403L136.934 117.689L135.567 119.89ZM135.567 117.094L133.606 116.499C133.071 116.32 132.417 116.082 131.882 115.904C132.239 116.32 132.774 116.796 133.131 117.213L134.438 118.76L135.567 117.094Z" fill="#7F6724"/>
<path d="M133.369 110.371L134.26 108.467L141.036 111.62L142.581 108.288L144.186 109.002L141.749 114.238L133.369 110.371Z" fill="#7F6724"/>
<path d="M28.7663 103.409C26.6861 97.2808 25.6758 90.7954 25.6758 84.2505C25.6758 81.0971 25.9135 77.8841 26.389 74.7902L29.3012 75.2662C28.8257 78.2411 28.588 81.2755 28.588 84.31C28.588 90.5574 29.5984 96.6858 31.5002 102.517L28.7663 103.409Z" fill="#E2A237"/>
<path d="M143.175 104.183L140.382 103.231C142.403 97.2213 143.413 90.9144 143.353 84.548C143.353 81.2756 143.056 77.9436 142.462 74.7307L145.374 74.1952C145.969 77.5866 146.266 81.0376 146.325 84.4885C146.385 91.2714 145.315 97.8758 143.175 104.183Z" fill="#E2A237"/>
<path d="M85.9998 125.662C108.156 125.662 126.117 107.681 126.117 85.5C126.117 63.3193 108.156 45.3383 85.9998 45.3383C63.8435 45.3383 45.8823 63.3193 45.8823 85.5C45.8823 107.681 63.8435 125.662 85.9998 125.662Z" fill="#FFDB69"/>
<path d="M86.0001 61.9384L91.5274 79.0146H109.476L94.9745 89.6054L100.502 106.682L86.0001 96.0908L71.4984 106.682L77.0257 89.6054L62.5239 79.0146H80.4728L86.0001 61.9384Z" fill="#E2A237"/>
</svg>
