<svg width="48" height="48" viewBox="0 0 48 48" fill="none" xmlns="http://www.w3.org/2000/svg">
<rect width="48" height="48" rx="6" fill="#C3F0FF"/>
<path d="M10.25 10.25V22.75H37.75V10.25H10.25ZM25.25 17.75H14V15.25H25.25V17.75ZM29 17.75C28.7528 17.75 28.5111 17.6767 28.3055 17.5393C28.1 17.402 27.9398 17.2068 27.8451 16.9784C27.7505 16.7499 27.7258 16.4986 27.774 16.2561C27.8223 16.0137 27.9413 15.7909 28.1161 15.6161C28.2909 15.4413 28.5137 15.3222 28.7561 15.274C28.9986 15.2258 29.2499 15.2505 29.4784 15.3452C29.7068 15.4398 29.902 15.6 30.0393 15.8055C30.1767 16.0111 30.25 16.2528 30.25 16.5C30.25 16.8315 30.1183 17.1495 29.8839 17.3839C29.6495 17.6183 29.3315 17.75 29 17.75ZM32.75 17.75C32.5028 17.75 32.2611 17.6767 32.0555 17.5393C31.85 17.402 31.6898 17.2068 31.5951 16.9784C31.5005 16.7499 31.4758 16.4986 31.524 16.2561C31.5723 16.0137 31.6913 15.7909 31.8661 15.6161C32.0409 15.4413 32.2637 15.3222 32.5061 15.274C32.7486 15.2258 32.9999 15.2505 33.2284 15.3452C33.4568 15.4398 33.652 15.6 33.7893 15.8055C33.9267 16.0111 34 16.2528 34 16.5C34 16.8315 33.8683 17.1495 33.6339 17.3839C33.3995 17.6183 33.0815 17.75 32.75 17.75Z" fill="url(#paint0_linear)"/>
<path d="M37.3648 31.4625L38.7898 30.2125L37.5398 28.05L35.7273 28.6625C35.326 28.3242 34.8693 28.0578 34.3773 27.875L34.0023 26H31.5023L31.1273 27.8625C30.6354 28.0453 30.1786 28.3117 29.7773 28.65L27.9648 28.0375L26.7148 30.2L28.1398 31.45C28.0398 31.9702 28.0398 32.5048 28.1398 33.025L26.7148 34.275L27.9648 36.4375L29.7773 35.825C30.1786 36.1633 30.6353 36.4297 31.1273 36.6125L31.5023 38.5H34.0023L34.3773 36.6375C34.8693 36.4547 35.326 36.1883 35.7273 35.85L37.5398 36.4625L38.7898 34.3L37.3648 33.05C37.4649 32.5256 37.4649 31.9869 37.3648 31.4625ZM32.7523 34.75C32.2579 34.75 31.7745 34.6034 31.3634 34.3287C30.9523 34.054 30.6319 33.6635 30.4426 33.2067C30.2534 32.7499 30.2039 32.2472 30.3004 31.7623C30.3968 31.2773 30.6349 30.8319 30.9846 30.4822C31.3342 30.1326 31.7797 29.8945 32.2646 29.798C32.7496 29.7016 33.2522 29.7511 33.7091 29.9403C34.1659 30.1295 34.5563 30.45 34.831 30.8611C35.1057 31.2722 35.2523 31.7555 35.2523 32.25C35.2504 32.9124 34.9863 33.5472 34.5179 34.0156C34.0495 34.484 33.4148 34.748 32.7523 34.75Z" fill="url(#paint1_linear)"/>
<path d="M24 33.5H14V31H24.3675C24.9956 28.906 26.384 27.1226 28.26 26H10.25V38.5H25.575C24.5486 37.0348 23.9986 35.2889 24 33.5Z" fill="url(#paint2_linear)"/>
<defs>
<linearGradient id="paint0_linear" x1="4.81803" y1="9.02663" x2="17.2005" y2="35.6663" gradientUnits="userSpaceOnUse">
<stop stop-color="#5AA6FF"/>
<stop offset="1" stop-color="#0874D8"/>
</linearGradient>
<linearGradient id="paint1_linear" x1="24.3297" y1="24.7766" x2="40.5011" y2="40.0532" gradientUnits="userSpaceOnUse">
<stop stop-color="#5AA6FF"/>
<stop offset="1" stop-color="#0874D8"/>
</linearGradient>
<linearGradient id="paint2_linear" x1="6.69256" y1="24.7766" x2="21.9826" y2="46.32" gradientUnits="userSpaceOnUse">
<stop stop-color="#5AA6FF"/>
<stop offset="1" stop-color="#0874D8"/>
</linearGradient>
</defs>
</svg>
