<svg width="48" height="48" viewBox="0 0 48 48" fill="none" xmlns="http://www.w3.org/2000/svg">
<rect width="48" height="48" rx="6" fill="#FFDBEB"/>
<path d="M35.9976 18.9998C35.8452 19.0005 35.6947 18.9663 35.5576 18.8998L23.9976 12.9998L12.4376 18.8598C12.1909 18.9765 11.908 18.9905 11.6511 18.8986C11.3942 18.8067 11.1843 18.6165 11.0676 18.3698C10.9509 18.1232 10.937 17.8403 11.0288 17.5834C11.1207 17.3264 11.3109 17.1165 11.5576 16.9998L23.9976 10.8398L36.4376 16.9998C36.6998 17.0611 36.9273 17.2232 37.0709 17.451C37.2145 17.6788 37.2626 17.954 37.2047 18.217C37.1469 18.48 36.9877 18.7096 36.7618 18.8561C36.5359 19.0027 36.2613 19.0543 35.9976 18.9998ZM18.9976 28.9998H12.9976V34.9998H18.9976V28.9998ZM26.9976 28.9998H20.9976V34.9998H26.9976V28.9998ZM34.9976 28.9998H28.9976V34.9998H34.9976V28.9998ZM30.9976 20.9998H24.9976V26.9998H30.9976V20.9998ZM22.9976 20.9998H16.9976V26.9998H22.9976V20.9998Z" fill="url(#paint0_linear)"/>
<defs>
<linearGradient id="paint0_linear" x1="10.9688" y1="10.8398" x2="35.0451" y2="37.0088" gradientUnits="userSpaceOnUse">
<stop stop-color="#FF8BBE"/>
<stop offset="1" stop-color="#DA347E"/>
</linearGradient>
</defs>
</svg>
