<svg width="48" height="48" viewBox="0 0 48 48" fill="none" xmlns="http://www.w3.org/2000/svg">
<rect width="48" height="48" rx="6" fill="#FFEBCD"/>
<path d="M23.3592 36.1924C23.7267 36.3886 24.188 36.3874 24.5555 36.1911C34.5705 30.8111 35.2817 20.2999 35.273 17.3111C35.272 17.0709 35.201 16.8362 35.0687 16.6357C34.9364 16.4352 34.7485 16.2777 34.528 16.1824L24.4655 11.7249C24.3053 11.6543 24.1322 11.6179 23.9572 11.6182C23.7822 11.6184 23.6092 11.6552 23.4492 11.7261L13.4567 16.1836C13.2395 16.279 13.0542 16.4348 12.923 16.6325C12.7918 16.8302 12.7202 17.0614 12.7167 17.2986C12.6742 20.2724 13.273 30.8061 23.3592 36.1924ZM19.8417 21.8661L22.708 24.7324L28.0742 19.3661L29.8417 21.1336L22.708 28.2674L18.0742 23.6336L19.8417 21.8661Z" fill="url(#paint0_linear)"/>
<defs>
<linearGradient id="paint0_linear" x1="12.7148" y1="11.6182" x2="37.972" y2="42.261" gradientUnits="userSpaceOnUse">
<stop stop-color="#FF996D"/>
<stop offset="1" stop-color="#DB2F17"/>
</linearGradient>
</defs>
</svg>
