<svg width="48" height="48" viewBox="0 0 48 48" fill="none" xmlns="http://www.w3.org/2000/svg">
<rect width="48" height="48" rx="6" fill="#DDDFFF"/>
<path d="M16.5 15.25C16.5 15.0511 16.579 14.8603 16.7197 14.7197C16.8603 14.579 17.0511 14.5 17.25 14.5H21.75C21.9489 14.5 22.1397 14.579 22.2803 14.7197C22.421 14.8603 22.5 15.0511 22.5 15.25V19.75C22.5 19.9489 22.421 20.1397 22.2803 20.2803C22.1397 20.421 21.9489 20.5 21.75 20.5H17.25C17.0511 20.5 16.8603 20.421 16.7197 20.2803C16.579 20.1397 16.5 19.9489 16.5 19.75V15.25ZM26.25 14.5C26.0511 14.5 25.8603 14.579 25.7197 14.7197C25.579 14.8603 25.5 15.0511 25.5 15.25V19.75C25.5 19.9489 25.579 20.1397 25.7197 20.2803C25.8603 20.421 26.0511 20.5 26.25 20.5H30.75C30.9489 20.5 31.1397 20.421 31.2803 20.2803C31.421 20.1397 31.5 19.9489 31.5 19.75V15.25C31.5 15.0511 31.421 14.8603 31.2803 14.7197C31.1397 14.579 30.9489 14.5 30.75 14.5H26.25ZM27 19V16H30V19H27ZM12 28C12 26.4087 12.6321 24.8826 13.7574 23.7574C14.8826 22.6321 16.4087 22 18 22H30C31.5913 22 33.1174 22.6321 34.2426 23.7574C35.3679 24.8826 36 26.4087 36 28C36 29.5913 35.3679 31.1174 34.2426 32.2426C33.1174 33.3679 31.5913 34 30 34H18C16.4087 34 14.8826 33.3679 13.7574 32.2426C12.6321 31.1174 12 29.5913 12 28ZM19.5 28C19.5 27.6022 19.342 27.2206 19.0607 26.9393C18.7794 26.658 18.3978 26.5 18 26.5C17.6022 26.5 17.2206 26.658 16.9393 26.9393C16.658 27.2206 16.5 27.6022 16.5 28C16.5 28.3978 16.658 28.7794 16.9393 29.0607C17.2206 29.342 17.6022 29.5 18 29.5C18.3978 29.5 18.7794 29.342 19.0607 29.0607C19.342 28.7794 19.5 28.3978 19.5 28ZM25.5 28C25.5 27.6022 25.342 27.2206 25.0607 26.9393C24.7794 26.658 24.3978 26.5 24 26.5C23.6022 26.5 23.2206 26.658 22.9393 26.9393C22.658 27.2206 22.5 27.6022 22.5 28C22.5 28.3978 22.658 28.7794 22.9393 29.0607C23.2206 29.342 23.6022 29.5 24 29.5C24.3978 29.5 24.7794 29.342 25.0607 29.0607C25.342 28.7794 25.5 28.3978 25.5 28ZM30 29.5C30.3978 29.5 30.7794 29.342 31.0607 29.0607C31.342 28.7794 31.5 28.3978 31.5 28C31.5 27.6022 31.342 27.2206 31.0607 26.9393C30.7794 26.658 30.3978 26.5 30 26.5C29.6022 26.5 29.2206 26.658 28.9393 26.9393C28.658 27.2206 28.5 27.6022 28.5 28C28.5 28.3978 28.658 28.7794 28.9393 29.0607C29.2206 29.342 29.6022 29.5 30 29.5Z" fill="url(#paint0_linear)"/>
<defs>
<linearGradient id="paint0_linear" x1="12" y1="14.5" x2="29.2894" y2="52.0578" gradientUnits="userSpaceOnUse">
<stop stop-color="#8A90F8"/>
<stop offset="1" stop-color="#3B42BD"/>
</linearGradient>
</defs>
</svg>
