<svg width="48" height="48" viewBox="0 0 48 48" fill="none" xmlns="http://www.w3.org/2000/svg">
<rect width="48" height="48" rx="6" fill="#C3F0FF"/>
<path d="M22.0069 12.126H26.1736C26.8324 12.126 27.4681 12.3688 27.9592 12.8081C28.4503 13.2473 28.7623 13.8522 28.8355 14.5069H30.9355C31.2872 14.5069 31.6355 14.5762 31.9605 14.7108C32.2855 14.8454 32.5808 15.0427 32.8295 15.2915C33.0782 15.5402 33.2755 15.8355 33.4101 16.1605C33.5447 16.4854 33.614 16.8337 33.614 17.1855V23.4331C31.9725 22.7484 30.1453 22.65 28.4397 23.1545C26.7342 23.6591 25.2546 24.7357 24.2498 26.2033C23.245 27.6709 22.7765 29.4398 22.9231 31.2124C23.0696 32.9849 23.8223 34.6529 25.0545 35.9355H17.245C16.5346 35.9355 15.8533 35.6533 15.3509 35.151C14.8486 34.6486 14.5664 33.9673 14.5664 33.2569V17.1855C14.5664 16.4751 14.8486 15.7938 15.3509 15.2915C15.8533 14.7891 16.5346 14.5069 17.245 14.5069H19.345C19.4182 13.8522 19.7301 13.2473 20.2212 12.8081C20.7123 12.3688 21.348 12.126 22.0069 12.126ZM26.1736 13.9117H22.0069C21.7701 13.9117 21.543 14.0058 21.3755 14.1732C21.2081 14.3406 21.114 14.5677 21.114 14.8045C21.114 15.0413 21.2081 15.2685 21.3755 15.4359C21.543 15.6033 21.7701 15.6974 22.0069 15.6974H26.1736C26.4104 15.6974 26.6375 15.6033 26.8049 15.4359C26.9723 15.2685 27.0664 15.0413 27.0664 14.8045C27.0664 14.5677 26.9723 14.3406 26.8049 14.1732C26.6375 14.0058 26.4104 13.9117 26.1736 13.9117Z" fill="url(#paint0_linear)"/>
<g clip-path="url(#clip0)">
<path fill-rule="evenodd" clip-rule="evenodd" d="M24 30.5635C24 28.823 24.6914 27.1538 25.9221 25.9231C27.1528 24.6924 28.822 24.001 30.5625 24.001C32.303 24.001 33.9722 24.6924 35.2029 25.9231C36.4336 27.1538 37.125 28.823 37.125 30.5635C37.125 32.304 36.4336 33.9732 35.2029 35.2039C33.9722 36.4346 32.303 37.126 30.5625 37.126C28.822 37.126 27.1528 36.4346 25.9221 35.2039C24.6914 33.9732 24 32.304 24 30.5635V30.5635ZM30.188 33.3722L33.9662 28.649L33.2837 28.103L30.062 32.1289L27.78 30.2275L27.22 30.8995L30.188 33.3731V33.3722Z" fill="url(#paint1_linear)"/>
</g>
<defs>
<linearGradient id="paint0_linear" x1="10.804" y1="9.79576" x2="40.7498" y2="33.2233" gradientUnits="userSpaceOnUse">
<stop stop-color="#5AA6FF"/>
<stop offset="1" stop-color="#0874D8"/>
</linearGradient>
<linearGradient id="paint1_linear" x1="21.4075" y1="22.7164" x2="38.4107" y2="39.3441" gradientUnits="userSpaceOnUse">
<stop stop-color="#5AA6FF"/>
<stop offset="1" stop-color="#0874D8"/>
</linearGradient>
<clipPath id="clip0">
<rect width="13.125" height="13.125" fill="white" transform="translate(24 24.001)"/>
</clipPath>
</defs>
</svg>
