<svg width="48" height="48" viewBox="0 0 48 48" fill="none" xmlns="http://www.w3.org/2000/svg">
<rect width="48" height="48" rx="6" fill="#FFEBCD"/>
<path fill-rule="evenodd" clip-rule="evenodd" d="M15 15C15 14.2044 15.3161 13.4413 15.8787 12.8787C16.4413 12.3161 17.2044 12 18 12H30C30.7956 12 31.5587 12.3161 32.1213 12.8787C32.6839 13.4413 33 14.2044 33 15V33C33.3978 33 33.7794 33.158 34.0607 33.4393C34.342 33.7206 34.5 34.1022 34.5 34.5C34.5 34.8978 34.342 35.2794 34.0607 35.5607C33.7794 35.842 33.3978 36 33 36H28.5C28.1022 36 27.7206 35.842 27.4393 35.5607C27.158 35.2794 27 34.8978 27 34.5V31.5C27 31.1022 26.842 30.7206 26.5607 30.4393C26.2794 30.158 25.8978 30 25.5 30H22.5C22.1022 30 21.7206 30.158 21.4393 30.4393C21.158 30.7206 21 31.1022 21 31.5V34.5C21 34.8978 20.842 35.2794 20.5607 35.5607C20.2794 35.842 19.8978 36 19.5 36H15C14.6022 36 14.2206 35.842 13.9393 35.5607C13.658 35.2794 13.5 34.8978 13.5 34.5C13.5 34.1022 13.658 33.7206 13.9393 33.4393C14.2206 33.158 14.6022 33 15 33V15ZM19.5 16.5H22.5V19.5H19.5V16.5ZM22.5 22.5H19.5V25.5H22.5V22.5ZM25.5 16.5H28.5V19.5H25.5V16.5ZM28.5 22.5H25.5V25.5H28.5V22.5Z" fill="url(#paint0_linear)"/>
<defs>
<linearGradient id="paint0_linear" x1="13.5" y1="12" x2="38.1969" y2="40.7313" gradientUnits="userSpaceOnUse">
<stop stop-color="#FF996D"/>
<stop offset="1" stop-color="#DB2F17"/>
</linearGradient>
</defs>
</svg>
