<svg width="48" height="48" viewBox="0 0 48 48" fill="none" xmlns="http://www.w3.org/2000/svg">
<rect width="48" height="48" rx="6" fill="#FFDBEB"/>
<path d="M37.5834 31.5176H35.8206V29.7807C35.8206 28.0749 34.4355 26.7102 32.7041 26.7102H24.8027V23.1433C24.7398 23.1433 24.7083 23.1433 24.6453 23.1433H23.2602C23.1973 23.1433 23.1658 23.1433 23.1028 23.1433V26.7102H15.2015C13.4701 26.7102 12.085 28.0749 12.085 29.7807V31.5176H10.3221C9.59811 31.5176 9 32.1069 9 32.8203V36.6663C9 37.3797 9.59811 37.969 10.3221 37.969H15.5792C16.3033 37.969 16.9014 37.3797 16.9014 36.6663V32.8203C16.9014 32.1069 16.3033 31.5176 15.5792 31.5176H13.8164V29.7807C13.8164 29.0053 14.446 28.385 15.2329 28.385H23.1343V31.4866H21.3715C20.6474 31.4866 20.0493 32.0759 20.0493 32.7893V36.6353C20.0493 37.3487 20.6474 37.938 21.3715 37.938H26.6285C27.3526 37.938 27.9507 37.3487 27.9507 36.6353V32.8203C27.9507 32.1069 27.3526 31.5176 26.6285 31.5176H24.8657V28.416H32.7671C33.554 28.416 34.1836 29.0364 34.1836 29.8118V31.5487H32.4208C31.6967 31.5487 31.0986 32.138 31.0986 32.8513V36.6973C31.0986 37.4107 31.6967 38 32.4208 38H37.6779C38.4019 38 39 37.4107 39 36.6973V32.8203C38.9056 32.1069 38.3075 31.5176 37.5834 31.5176Z" fill="url(#paint0_linear)"/>
<path d="M18.0039 16.692L19.2001 16.8471C19.3575 17.1882 19.389 17.2813 19.5464 17.6535L18.8224 18.584C18.6335 18.8321 18.665 19.1733 18.8853 19.4214L19.8612 20.3829C20.0816 20.6 20.4593 20.631 20.7111 20.4449L21.6555 19.7316C22.0018 19.8866 22.0962 19.9176 22.474 20.0727L22.6314 21.2513C22.6629 21.5615 22.9462 21.7786 23.261 21.7786H24.6461C24.9609 21.7786 25.2442 21.5615 25.2757 21.2513L25.4331 20.0727C25.7794 19.9176 25.8738 19.8866 26.2515 19.7316L27.1959 20.4449C27.4478 20.631 27.794 20.6 28.0459 20.3829L29.0217 19.4214C29.2421 19.2043 29.2736 18.8321 29.0847 18.584L28.3607 17.6535C28.5181 17.3123 28.5495 17.2193 28.7069 16.8471L29.9032 16.692C30.218 16.661 30.4383 16.3818 30.4383 16.0717V14.707C30.4383 14.3968 30.218 14.1176 29.9032 14.0866L28.7069 13.9316C28.5495 13.5904 28.5181 13.4973 28.3607 13.1251L29.0847 12.1947C29.2736 11.9465 29.2421 11.6053 29.0217 11.3572L28.0459 10.3957C27.8255 10.1786 27.4478 10.1476 27.1959 10.3337L26.2515 11.0471C25.9053 10.892 25.8108 10.861 25.4331 10.7059L25.2757 9.52727C25.2442 9.21711 24.9609 9 24.6461 9H23.261C22.9462 9 22.6629 9.21711 22.6314 9.52727L22.474 10.7059C22.1277 10.861 22.0333 10.892 21.6555 11.0471L20.7111 10.3337C20.4278 10.1476 20.0816 10.1786 19.8612 10.3957L18.8853 11.3572C18.665 11.5743 18.6335 11.9465 18.8224 12.1947L19.5464 13.1251C19.389 13.4663 19.3575 13.5594 19.2001 13.9316L18.0039 14.0866C17.6891 14.1176 17.4688 14.3968 17.4688 14.707V16.0717C17.4688 16.3818 17.6891 16.661 18.0039 16.692ZM23.9535 13.0941C25.2442 13.0941 26.283 14.1176 26.283 15.3893C26.283 16.661 25.2442 17.6845 23.9535 17.6845C22.6629 17.6845 21.624 16.661 21.624 15.3893C21.624 14.1176 22.6629 13.0941 23.9535 13.0941Z" fill="url(#paint1_linear)"/>
<defs>
<linearGradient id="paint0_linear" x1="9" y1="23.1433" x2="20.8167" y2="47.0048" gradientUnits="userSpaceOnUse">
<stop stop-color="#FF8BBE"/>
<stop offset="1" stop-color="#DA347E"/>
</linearGradient>
<linearGradient id="paint1_linear" x1="17.4688" y1="9" x2="30.246" y2="21.9681" gradientUnits="userSpaceOnUse">
<stop stop-color="#FF8BBE"/>
<stop offset="1" stop-color="#DA347E"/>
</linearGradient>
</defs>
</svg>
