<svg width="48" height="48" viewBox="0 0 48 48" fill="none" xmlns="http://www.w3.org/2000/svg">
<rect width="48" height="48" rx="6" fill="#DDDFFF"/>
<path fill-rule="evenodd" clip-rule="evenodd" d="M12.75 32.75C12.75 33.7446 13.1451 34.6984 13.8483 35.4017C14.5516 36.1049 15.5054 36.5 16.5 36.5H31.5C32.4946 36.5 33.4484 36.1049 34.1517 35.4017C34.8549 34.6984 35.25 33.7446 35.25 32.75V20.035C35.2495 19.041 34.8543 18.0878 34.1513 17.385L29.3662 12.5975C28.6629 11.8946 27.7093 11.4999 26.715 11.5H16.5C15.5054 11.5 14.5516 11.8951 13.8483 12.5983C13.1451 13.3016 12.75 14.2554 12.75 15.25V32.75ZM30.25 22.75C30.25 22.4185 30.1183 22.1005 29.8839 21.8661C29.6495 21.6317 29.3315 21.5 29 21.5C28.6685 21.5 28.3505 21.6317 28.1161 21.8661C27.8817 22.1005 27.75 22.4185 27.75 22.75V30.25C27.75 30.5815 27.8817 30.8995 28.1161 31.1339C28.3505 31.3683 28.6685 31.5 29 31.5C29.3315 31.5 29.6495 31.3683 29.8839 31.1339C30.1183 30.8995 30.25 30.5815 30.25 30.25V22.75ZM25.25 25.25C25.25 24.9185 25.1183 24.6005 24.8839 24.3661C24.6495 24.1317 24.3315 24 24 24C23.6685 24 23.3505 24.1317 23.1161 24.3661C22.8817 24.6005 22.75 24.9185 22.75 25.25V30.25C22.75 30.5815 22.8817 30.8995 23.1161 31.1339C23.3505 31.3683 23.6685 31.5 24 31.5C24.3315 31.5 24.6495 31.3683 24.8839 31.1339C25.1183 30.8995 25.25 30.5815 25.25 30.25V25.25ZM20.25 27.7437C20.2483 27.4122 20.1151 27.0949 19.8795 26.8617C19.6439 26.6284 19.3253 26.4983 18.9937 26.5C18.6622 26.5017 18.3449 26.6349 18.1117 26.8705C17.8784 27.1061 17.7483 27.4247 17.75 27.7563L17.7625 30.2562C17.7642 30.5878 17.8974 30.9051 18.133 31.1383C18.3686 31.3716 18.6872 31.5017 19.0188 31.5C19.3503 31.4983 19.6676 31.3651 19.9008 31.1295C20.1341 30.8939 20.2642 30.5753 20.2625 30.2438L20.25 27.7437Z" fill="url(#paint0_linear)"/>
<defs>
<linearGradient id="paint0_linear" x1="12.75" y1="11.5" x2="39.0595" y2="53.2924" gradientUnits="userSpaceOnUse">
<stop stop-color="#8A90F8"/>
<stop offset="1" stop-color="#3B42BD"/>
</linearGradient>
</defs>
</svg>
