<svg width="77" height="1325" viewBox="0 0 77 1325" fill="none" xmlns="http://www.w3.org/2000/svg">
<path d="M15.168 20.98H25.078V18.71H18.898L22.588 15.44C23.1346 14.96 23.5913 14.5233 23.958 14.13C24.3313 13.73 24.6113 13.3 24.798 12.84C24.9846 12.3733 25.078 11.7967 25.078 11.11C25.078 10.17 24.8646 9.34 24.438 8.62C24.018 7.89333 23.4446 7.32667 22.718 6.92C21.9913 6.50667 21.1646 6.3 20.238 6.3C19.2446 6.3 18.368 6.49667 17.608 6.89C16.848 7.28333 16.2546 7.83667 15.828 8.55C15.4013 9.26333 15.188 10.1 15.188 11.06H17.668C17.6546 10.62 17.7546 10.21 17.968 9.83C18.1813 9.45 18.478 9.14667 18.858 8.92C19.2446 8.68667 19.688 8.57 20.188 8.57C20.9013 8.57 21.4813 8.81 21.928 9.29C22.3813 9.76333 22.608 10.36 22.608 11.08C22.608 11.4333 22.5113 11.8 22.318 12.18C22.1313 12.56 21.8013 12.9633 21.328 13.39L15.168 18.88V20.98ZM32.662 21.3C33.6887 21.3 34.5887 21.0833 35.362 20.65C36.142 20.21 36.7487 19.6 37.182 18.82C37.622 18.04 37.842 17.14 37.842 16.12V11.48C37.842 10.4533 37.622 9.55333 37.182 8.78C36.7487 8 36.142 7.39333 35.362 6.96C34.5887 6.52 33.6887 6.3 32.662 6.3C31.6354 6.3 30.732 6.52 29.952 6.96C29.1787 7.39333 28.572 8 28.132 8.78C27.6987 9.55333 27.482 10.4533 27.482 11.48V16.12C27.482 17.14 27.6987 18.04 28.132 18.82C28.572 19.6 29.1787 20.21 29.952 20.65C30.732 21.0833 31.6354 21.3 32.662 21.3ZM32.662 19.01C32.1554 19.01 31.6954 18.89 31.282 18.65C30.8754 18.4033 30.5487 18.0767 30.302 17.67C30.062 17.2567 29.942 16.7967 29.942 16.29V11.3C29.942 10.7867 30.062 10.3267 30.302 9.92C30.5487 9.50667 30.8754 9.18 31.282 8.94C31.6954 8.69333 32.1554 8.57 32.662 8.57C33.1687 8.57 33.6254 8.69333 34.032 8.94C34.4454 9.18 34.772 9.50667 35.012 9.92C35.2587 10.3267 35.382 10.7867 35.382 11.3V16.29C35.382 16.7967 35.2587 17.2567 35.012 17.67C34.772 18.0767 34.4454 18.4033 34.032 18.65C33.6254 18.89 33.1687 19.01 32.662 19.01ZM45.8261 21.3C46.8528 21.3 47.7528 21.0833 48.5261 20.65C49.3061 20.21 49.9128 19.6 50.3461 18.82C50.7861 18.04 51.0061 17.14 51.0061 16.12V11.48C51.0061 10.4533 50.7861 9.55333 50.3461 8.78C49.9128 8 49.3061 7.39333 48.5261 6.96C47.7528 6.52 46.8528 6.3 45.8261 6.3C44.7994 6.3 43.8961 6.52 43.1161 6.96C42.3428 7.39333 41.7361 8 41.2961 8.78C40.8628 9.55333 40.6461 10.4533 40.6461 11.48V16.12C40.6461 17.14 40.8628 18.04 41.2961 18.82C41.7361 19.6 42.3428 20.21 43.1161 20.65C43.8961 21.0833 44.7994 21.3 45.8261 21.3ZM45.8261 19.01C45.3194 19.01 44.8594 18.89 44.4461 18.65C44.0394 18.4033 43.7128 18.0767 43.4661 17.67C43.2261 17.2567 43.1061 16.7967 43.1061 16.29V11.3C43.1061 10.7867 43.2261 10.3267 43.4661 9.92C43.7128 9.50667 44.0394 9.18 44.4461 8.94C44.8594 8.69333 45.3194 8.57 45.8261 8.57C46.3328 8.57 46.7894 8.69333 47.1961 8.94C47.6094 9.18 47.9361 9.50667 48.1761 9.92C48.4228 10.3267 48.5461 10.7867 48.5461 11.3V16.29C48.5461 16.7967 48.4228 17.2567 48.1761 17.67C47.9361 18.0767 47.6094 18.4033 47.1961 18.65C46.7894 18.89 46.3328 19.01 45.8261 19.01ZM58.7902 21.3C59.6968 21.3 60.5268 21.0867 61.2802 20.66C62.0335 20.2267 62.6368 19.6467 63.0902 18.92C63.5502 18.1867 63.7802 17.37 63.7802 16.47C63.7802 15.5633 63.5802 14.7567 63.1802 14.05C62.7868 13.3367 62.2402 12.7767 61.5402 12.37C60.8468 11.9567 60.0468 11.75 59.1402 11.75C58.0535 11.75 57.0968 12.11 56.2702 12.83V11.37C56.2702 10.8833 56.3868 10.4267 56.6202 10C56.8535 9.57333 57.1768 9.23 57.5902 8.97C58.0102 8.70333 58.5002 8.57 59.0602 8.57C59.4535 8.57 59.8335 8.65667 60.2002 8.83C60.5668 9.00333 60.8768 9.24 61.1302 9.54L62.8702 7.85C62.3635 7.31667 61.7835 6.93 61.1302 6.69C60.4835 6.44333 59.7935 6.32 59.0602 6.32C58.0135 6.32 57.0968 6.54333 56.3102 6.99C55.5235 7.43 54.9102 8.05333 54.4702 8.86C54.0302 9.66 53.8102 10.6067 53.8102 11.7V16.08C53.8102 17.1 54.0302 18.0033 54.4702 18.79C54.9102 19.5767 55.5035 20.1933 56.2502 20.64C57.0035 21.08 57.8502 21.3 58.7902 21.3ZM58.7902 18.99C58.3235 18.99 57.9002 18.8767 57.5202 18.65C57.1402 18.4167 56.8368 18.11 56.6102 17.73C56.3835 17.3433 56.2702 16.9233 56.2702 16.47C56.2702 16.0033 56.3835 15.5767 56.6102 15.19C56.8435 14.8033 57.1502 14.4967 57.5302 14.27C57.9168 14.0367 58.3435 13.92 58.8102 13.92C59.2768 13.92 59.7002 14.0367 60.0802 14.27C60.4668 14.4967 60.7735 14.8033 61.0002 15.19C61.2268 15.5767 61.3402 16.0033 61.3402 16.47C61.3402 16.9367 61.2235 17.36 60.9902 17.74C60.7635 18.12 60.4568 18.4233 60.0702 18.65C59.6835 18.8767 59.2568 18.99 58.7902 18.99Z" fill="#200E32"/>
<path d="M17.4922 337.98H27.4022V335.71H21.2222L24.9122 332.44C25.4589 331.96 25.9155 331.523 26.2822 331.13C26.6555 330.73 26.9355 330.3 27.1222 329.84C27.3089 329.373 27.4022 328.797 27.4022 328.11C27.4022 327.17 27.1889 326.34 26.7622 325.62C26.3422 324.893 25.7689 324.327 25.0422 323.92C24.3155 323.507 23.4889 323.3 22.5622 323.3C21.5689 323.3 20.6922 323.497 19.9322 323.89C19.1722 324.283 18.5789 324.837 18.1522 325.55C17.7255 326.263 17.5122 327.1 17.5122 328.06H19.9922C19.9789 327.62 20.0789 327.21 20.2922 326.83C20.5055 326.45 20.8022 326.147 21.1822 325.92C21.5689 325.687 22.0122 325.57 22.5122 325.57C23.2255 325.57 23.8055 325.81 24.2522 326.29C24.7055 326.763 24.9322 327.36 24.9322 328.08C24.9322 328.433 24.8355 328.8 24.6422 329.18C24.4555 329.56 24.1255 329.963 23.6522 330.39L17.4922 335.88V337.98ZM34.9863 338.3C36.0129 338.3 36.9129 338.083 37.6863 337.65C38.4663 337.21 39.0729 336.6 39.5063 335.82C39.9463 335.04 40.1662 334.14 40.1662 333.12V328.48C40.1662 327.453 39.9463 326.553 39.5063 325.78C39.0729 325 38.4663 324.393 37.6863 323.96C36.9129 323.52 36.0129 323.3 34.9863 323.3C33.9596 323.3 33.0563 323.52 32.2763 323.96C31.5029 324.393 30.8963 325 30.4563 325.78C30.0229 326.553 29.8063 327.453 29.8063 328.48V333.12C29.8063 334.14 30.0229 335.04 30.4563 335.82C30.8963 336.6 31.5029 337.21 32.2763 337.65C33.0563 338.083 33.9596 338.3 34.9863 338.3ZM34.9863 336.01C34.4796 336.01 34.0196 335.89 33.6063 335.65C33.1996 335.403 32.8729 335.077 32.6263 334.67C32.3863 334.257 32.2663 333.797 32.2663 333.29V328.3C32.2663 327.787 32.3863 327.327 32.6263 326.92C32.8729 326.507 33.1996 326.18 33.6063 325.94C34.0196 325.693 34.4796 325.57 34.9863 325.57C35.4929 325.57 35.9496 325.693 36.3563 325.94C36.7696 326.18 37.0963 326.507 37.3363 326.92C37.5829 327.327 37.7063 327.787 37.7063 328.3V333.29C37.7063 333.797 37.5829 334.257 37.3363 334.67C37.0963 335.077 36.7696 335.403 36.3563 335.65C35.9496 335.89 35.4929 336.01 34.9863 336.01ZM45.4703 338H47.9303V323.6H45.4703L42.7703 325.22V327.88L45.4703 326.23V338ZM57.7198 338H60.1598V335.62H61.5098V333.37H60.1598V329.62H57.7198V333.37H54.0898L58.6998 323.6H55.9498L51.3398 333.37V335.62H57.7198V338Z" fill="#200E32"/>
<path d="M17.7168 667.98H27.6268V665.71H21.4468L25.1368 662.44C25.6835 661.96 26.1401 661.523 26.5068 661.13C26.8801 660.73 27.1601 660.3 27.3468 659.84C27.5335 659.373 27.6268 658.797 27.6268 658.11C27.6268 657.17 27.4135 656.34 26.9868 655.62C26.5668 654.893 25.9935 654.327 25.2668 653.92C24.5401 653.507 23.7135 653.3 22.7868 653.3C21.7935 653.3 20.9168 653.497 20.1568 653.89C19.3968 654.283 18.8035 654.837 18.3768 655.55C17.9501 656.263 17.7368 657.1 17.7368 658.06H20.2168C20.2035 657.62 20.3035 657.21 20.5168 656.83C20.7301 656.45 21.0268 656.147 21.4068 655.92C21.7935 655.687 22.2368 655.57 22.7368 655.57C23.4501 655.57 24.0301 655.81 24.4768 656.29C24.9301 656.763 25.1568 657.36 25.1568 658.08C25.1568 658.433 25.0601 658.8 24.8668 659.18C24.6801 659.56 24.3501 659.963 23.8768 660.39L17.7168 665.88V667.98ZM35.2109 668.3C36.2375 668.3 37.1375 668.083 37.9109 667.65C38.6909 667.21 39.2975 666.6 39.7309 665.82C40.1709 665.04 40.3909 664.14 40.3909 663.12V658.48C40.3909 657.453 40.1709 656.553 39.7309 655.78C39.2975 655 38.6909 654.393 37.9109 653.96C37.1375 653.52 36.2375 653.3 35.2109 653.3C34.1842 653.3 33.2809 653.52 32.5009 653.96C31.7275 654.393 31.1209 655 30.6809 655.78C30.2475 656.553 30.0309 657.453 30.0309 658.48V663.12C30.0309 664.14 30.2475 665.04 30.6809 665.82C31.1209 666.6 31.7275 667.21 32.5009 667.65C33.2809 668.083 34.1842 668.3 35.2109 668.3ZM35.2109 666.01C34.7042 666.01 34.2442 665.89 33.8309 665.65C33.4242 665.403 33.0975 665.077 32.8509 664.67C32.6109 664.257 32.4909 663.797 32.4909 663.29V658.3C32.4909 657.787 32.6109 657.327 32.8509 656.92C33.0975 656.507 33.4242 656.18 33.8309 655.94C34.2442 655.693 34.7042 655.57 35.2109 655.57C35.7175 655.57 36.1742 655.693 36.5809 655.94C36.9942 656.18 37.3209 656.507 37.5609 656.92C37.8075 657.327 37.9309 657.787 37.9309 658.3V663.29C37.9309 663.797 37.8075 664.257 37.5609 664.67C37.3209 665.077 36.9942 665.403 36.5809 665.65C36.1742 665.89 35.7175 666.01 35.2109 666.01ZM45.6949 668H48.1549V653.6H45.6949L42.9949 655.22V657.88L45.6949 656.23V668ZM56.2345 668.3C57.1411 668.3 57.9745 668.083 58.7345 667.65C59.5011 667.217 60.1178 666.637 60.5845 665.91C61.0511 665.177 61.2845 664.36 61.2845 663.46C61.2845 662.56 61.0845 661.757 60.6845 661.05C60.2911 660.337 59.7445 659.777 59.0445 659.37C58.3511 658.963 57.5545 658.76 56.6545 658.76C56.2878 658.76 55.9078 658.813 55.5145 658.92C55.1278 659.027 54.7611 659.187 54.4145 659.4L54.6345 655.86H60.3145V653.6H52.4945L52.0545 661.22L54.1145 661.88C54.3078 661.653 54.5845 661.44 54.9445 661.24C55.3111 661.04 55.7711 660.94 56.3245 660.94C56.7845 660.94 57.2078 661.053 57.5945 661.28C57.9811 661.507 58.2878 661.81 58.5145 662.19C58.7478 662.57 58.8645 662.993 58.8645 663.46C58.8645 663.92 58.7511 664.343 58.5245 664.73C58.2978 665.11 57.9911 665.417 57.6045 665.65C57.2245 665.877 56.7978 665.99 56.3245 665.99C55.7845 665.99 55.2778 665.823 54.8045 665.49C54.3378 665.15 54.0311 664.69 53.8845 664.11L51.5645 664.73C51.7645 665.437 52.0911 666.06 52.5445 666.6C53.0045 667.133 53.5511 667.55 54.1845 667.85C54.8245 668.15 55.5078 668.3 56.2345 668.3Z" fill="#200E32"/>
<line x1="40" y1="566" x2="40" y2="622" stroke="#C4C4C4" stroke-width="2" stroke-linecap="round" stroke-dasharray="5 6"/>
<path d="M15.4531 988.98H25.3631V986.71H19.1831L22.8731 983.44C23.4198 982.96 23.8765 982.523 24.2431 982.13C24.6165 981.73 24.8965 981.3 25.0831 980.84C25.2698 980.373 25.3631 979.797 25.3631 979.11C25.3631 978.17 25.1498 977.34 24.7231 976.62C24.3031 975.893 23.7298 975.327 23.0031 974.92C22.2765 974.507 21.4498 974.3 20.5231 974.3C19.5298 974.3 18.6531 974.497 17.8931 974.89C17.1331 975.283 16.5398 975.837 16.1131 976.55C15.6865 977.263 15.4731 978.1 15.4731 979.06H17.9531C17.9398 978.62 18.0398 978.21 18.2531 977.83C18.4665 977.45 18.7631 977.147 19.1431 976.92C19.5298 976.687 19.9731 976.57 20.4731 976.57C21.1865 976.57 21.7665 976.81 22.2131 977.29C22.6665 977.763 22.8931 978.36 22.8931 979.08C22.8931 979.433 22.7965 979.8 22.6031 980.18C22.4165 980.56 22.0865 980.963 21.6131 981.39L15.4531 986.88V988.98ZM32.9472 989.3C33.9739 989.3 34.8739 989.083 35.6472 988.65C36.4272 988.21 37.0339 987.6 37.4672 986.82C37.9072 986.04 38.1272 985.14 38.1272 984.12V979.48C38.1272 978.453 37.9072 977.553 37.4672 976.78C37.0339 976 36.4272 975.393 35.6472 974.96C34.8739 974.52 33.9739 974.3 32.9472 974.3C31.9205 974.3 31.0172 974.52 30.2372 974.96C29.4639 975.393 28.8572 976 28.4172 976.78C27.9839 977.553 27.7672 978.453 27.7672 979.48V984.12C27.7672 985.14 27.9839 986.04 28.4172 986.82C28.8572 987.6 29.4639 988.21 30.2372 988.65C31.0172 989.083 31.9205 989.3 32.9472 989.3ZM32.9472 987.01C32.4405 987.01 31.9805 986.89 31.5672 986.65C31.1605 986.403 30.8339 986.077 30.5872 985.67C30.3472 985.257 30.2272 984.797 30.2272 984.29V979.3C30.2272 978.787 30.3472 978.327 30.5872 977.92C30.8339 977.507 31.1605 977.18 31.5672 976.94C31.9805 976.693 32.4405 976.57 32.9472 976.57C33.4539 976.57 33.9105 976.693 34.3172 976.94C34.7305 977.18 35.0572 977.507 35.2972 977.92C35.5439 978.327 35.6672 978.787 35.6672 979.3V984.29C35.6672 984.797 35.5439 985.257 35.2972 985.67C35.0572 986.077 34.7305 986.403 34.3172 986.65C33.9105 986.89 33.4539 987.01 32.9472 987.01ZM43.4313 989H45.8913V974.6H43.4313L40.7313 976.22V978.88L43.4313 977.23V989ZM54.4108 989.3C55.3708 989.3 56.2208 989.107 56.9608 988.72C57.7074 988.333 58.2908 987.797 58.7108 987.11C59.1374 986.423 59.3508 985.637 59.3508 984.75C59.3508 984.063 59.2108 983.417 58.9308 982.81C58.6508 982.197 58.2474 981.683 57.7208 981.27C58.5474 980.477 58.9608 979.51 58.9608 978.37C58.9608 977.543 58.7641 976.827 58.3708 976.22C57.9841 975.613 57.4474 975.143 56.7608 974.81C56.0808 974.47 55.2974 974.3 54.4108 974.3C53.5241 974.3 52.7374 974.47 52.0508 974.81C51.3708 975.143 50.8374 975.613 50.4508 976.22C50.0641 976.827 49.8708 977.543 49.8708 978.37C49.8708 978.95 49.9774 979.483 50.1908 979.97C50.4108 980.45 50.7241 980.883 51.1308 981.27C50.5908 981.69 50.1841 982.203 49.9108 982.81C49.6374 983.417 49.5008 984.063 49.5008 984.75C49.5008 985.643 49.7108 986.433 50.1308 987.12C50.5508 987.8 51.1308 988.333 51.8708 988.72C52.6108 989.107 53.4574 989.3 54.4108 989.3ZM54.4108 980.17C53.8241 980.17 53.3441 980.023 52.9708 979.73C52.6041 979.43 52.4208 978.977 52.4208 978.37C52.4208 977.763 52.6041 977.313 52.9708 977.02C53.3441 976.72 53.8241 976.57 54.4108 976.57C55.0041 976.57 55.4841 976.72 55.8508 977.02C56.2241 977.313 56.4108 977.763 56.4108 978.37C56.4108 978.977 56.2241 979.43 55.8508 979.73C55.4841 980.023 55.0041 980.17 54.4108 980.17ZM54.4108 987.03C53.7041 987.03 53.1341 986.837 52.7008 986.45C52.2674 986.063 52.0508 985.497 52.0508 984.75C52.0508 984.01 52.2674 983.443 52.7008 983.05C53.1341 982.657 53.7041 982.46 54.4108 982.46C55.1241 982.46 55.7008 982.657 56.1408 983.05C56.5808 983.443 56.8008 984.01 56.8008 984.75C56.8008 985.497 56.5808 986.063 56.1408 986.45C55.7008 986.837 55.1241 987.03 54.4108 987.03Z" fill="#200E32"/>
<line x1="39" y1="896" x2="39" y2="952" stroke="#C4C4C4" stroke-width="2" stroke-linecap="round" stroke-dasharray="5 6"/>
<line x1="39" y1="1217" x2="39" y2="1273" stroke="#C4C4C4" stroke-width="2" stroke-linecap="round" stroke-dasharray="5 6"/>
<line x1="40" y1="248" x2="40" y2="304" stroke="#C4C4C4" stroke-width="2" stroke-linecap="round" stroke-dasharray="5 6"/>
<path d="M14.1934 1318.98H24.1034V1316.71H17.9234L21.6134 1313.44C22.16 1312.96 22.6167 1312.52 22.9834 1312.13C23.3567 1311.73 23.6367 1311.3 23.8234 1310.84C24.01 1310.37 24.1034 1309.8 24.1034 1309.11C24.1034 1308.17 23.89 1307.34 23.4634 1306.62C23.0434 1305.89 22.47 1305.33 21.7434 1304.92C21.0167 1304.51 20.19 1304.3 19.2634 1304.3C18.27 1304.3 17.3934 1304.5 16.6334 1304.89C15.8734 1305.28 15.28 1305.84 14.8534 1306.55C14.4267 1307.26 14.2134 1308.1 14.2134 1309.06H16.6934C16.68 1308.62 16.78 1308.21 16.9934 1307.83C17.2067 1307.45 17.5034 1307.15 17.8834 1306.92C18.27 1306.69 18.7134 1306.57 19.2134 1306.57C19.9267 1306.57 20.5067 1306.81 20.9534 1307.29C21.4067 1307.76 21.6334 1308.36 21.6334 1309.08C21.6334 1309.43 21.5367 1309.8 21.3434 1310.18C21.1567 1310.56 20.8267 1310.96 20.3534 1311.39L14.1934 1316.88V1318.98ZM31.6874 1319.3C32.7141 1319.3 33.6141 1319.08 34.3874 1318.65C35.1674 1318.21 35.7741 1317.6 36.2074 1316.82C36.6474 1316.04 36.8674 1315.14 36.8674 1314.12V1309.48C36.8674 1308.45 36.6474 1307.55 36.2074 1306.78C35.7741 1306 35.1674 1305.39 34.3874 1304.96C33.6141 1304.52 32.7141 1304.3 31.6874 1304.3C30.6608 1304.3 29.7574 1304.52 28.9774 1304.96C28.2041 1305.39 27.5974 1306 27.1574 1306.78C26.7241 1307.55 26.5074 1308.45 26.5074 1309.48V1314.12C26.5074 1315.14 26.7241 1316.04 27.1574 1316.82C27.5974 1317.6 28.2041 1318.21 28.9774 1318.65C29.7574 1319.08 30.6608 1319.3 31.6874 1319.3ZM31.6874 1317.01C31.1808 1317.01 30.7208 1316.89 30.3074 1316.65C29.9008 1316.4 29.5741 1316.08 29.3274 1315.67C29.0874 1315.26 28.9674 1314.8 28.9674 1314.29V1309.3C28.9674 1308.79 29.0874 1308.33 29.3274 1307.92C29.5741 1307.51 29.9008 1307.18 30.3074 1306.94C30.7208 1306.69 31.1808 1306.57 31.6874 1306.57C32.1941 1306.57 32.6508 1306.69 33.0574 1306.94C33.4708 1307.18 33.7974 1307.51 34.0374 1307.92C34.2841 1308.33 34.4074 1308.79 34.4074 1309.3V1314.29C34.4074 1314.8 34.2841 1315.26 34.0374 1315.67C33.7974 1316.08 33.4708 1316.4 33.0574 1316.65C32.6508 1316.89 32.1941 1317.01 31.6874 1317.01ZM39.2715 1318.98H49.1815V1316.71H43.0015L46.6915 1313.44C47.2382 1312.96 47.6948 1312.52 48.0615 1312.13C48.4348 1311.73 48.7148 1311.3 48.9015 1310.84C49.0882 1310.37 49.1815 1309.8 49.1815 1309.11C49.1815 1308.17 48.9682 1307.34 48.5415 1306.62C48.1215 1305.89 47.5482 1305.33 46.8215 1304.92C46.0948 1304.51 45.2682 1304.3 44.3415 1304.3C43.3482 1304.3 42.4715 1304.5 41.7115 1304.89C40.9515 1305.28 40.3582 1305.84 39.9315 1306.55C39.5048 1307.26 39.2915 1308.1 39.2915 1309.06H41.7715C41.7582 1308.62 41.8582 1308.21 42.0715 1307.83C42.2848 1307.45 42.5815 1307.15 42.9615 1306.92C43.3482 1306.69 43.7915 1306.57 44.2915 1306.57C45.0048 1306.57 45.5848 1306.81 46.0315 1307.29C46.4848 1307.76 46.7115 1308.36 46.7115 1309.08C46.7115 1309.43 46.6148 1309.8 46.4215 1310.18C46.2348 1310.56 45.9048 1310.96 45.4315 1311.39L39.2715 1316.88V1318.98ZM55.7055 1319.27C56.6055 1319.27 57.4255 1319.06 58.1655 1318.65C58.9122 1318.23 59.5055 1317.66 59.9455 1316.94C60.3922 1316.22 60.6155 1315.41 60.6155 1314.5C60.6155 1313.77 60.4789 1313.1 60.2055 1312.47C59.9322 1311.84 59.5355 1311.31 59.0155 1310.88C58.4955 1310.45 57.8655 1310.15 57.1255 1310L60.3755 1306.88V1304.6H51.5455V1306.87H57.5055L53.3455 1310.43L54.4455 1312.33C54.8589 1312.1 55.2755 1311.99 55.6955 1311.99C56.4222 1311.99 57.0155 1312.23 57.4755 1312.71C57.9355 1313.19 58.1655 1313.79 58.1655 1314.5C58.1655 1315.21 57.9289 1315.8 57.4555 1316.27C56.9889 1316.74 56.4022 1316.98 55.6955 1316.99C55.1689 1317 54.6822 1316.85 54.2355 1316.54C53.7889 1316.23 53.4822 1315.78 53.3155 1315.21L50.9855 1315.84C51.1922 1316.53 51.5289 1317.14 51.9955 1317.66C52.4689 1318.17 53.0255 1318.57 53.6655 1318.85C54.3055 1319.13 54.9855 1319.27 55.7055 1319.27Z" fill="black"/>
</svg>
