<svg width="72" height="72" viewBox="0 0 72 72" fill="none" xmlns="http://www.w3.org/2000/svg">
<circle cx="36" cy="36" r="36" fill="#C3F0FF"/>
<path d="M35.1466 52.2566C35.6366 52.5183 36.2516 52.5166 36.7416 52.2549C50.0949 45.0816 51.0433 31.0666 51.0316 27.0816C51.0303 26.7613 50.9357 26.4484 50.7593 26.181C50.5828 25.9137 50.3323 25.7037 50.0383 25.5766L36.6216 19.6333C36.4081 19.5391 36.1773 19.4907 35.9439 19.491C35.7106 19.4913 35.4799 19.5403 35.2666 19.6349L21.9433 25.5783C21.6536 25.7054 21.4066 25.9131 21.2316 26.1767C21.0567 26.4403 20.9612 26.7486 20.9566 27.0649C20.8999 31.0299 21.6983 45.0749 35.1466 52.2566ZM30.4566 33.1549L34.2783 36.9766L41.4333 29.8216L43.7899 32.1783L34.2783 41.6899L28.0999 35.5116L30.4566 33.1549V33.1549Z" fill="url(#paint0_linear)"/>
<defs>
<linearGradient id="paint0_linear" x1="15.013" y1="16.2651" x2="57.4488" y2="54.1332" gradientUnits="userSpaceOnUse">
<stop stop-color="#5AA6FF"/>
<stop offset="1" stop-color="#0874D8"/>
</linearGradient>
</defs>
</svg>
