<svg width="72" height="72" viewBox="0 0 72 72" fill="none" xmlns="http://www.w3.org/2000/svg">
<circle cx="36" cy="36" r="36" fill="#C3F0FF"/>
<path d="M52.2429 38.942L50.8562 36.8618V35.1357L52.2416 33.0578C52.4464 32.7509 52.5813 32.4029 52.6369 32.0383C52.6924 31.6736 52.6673 31.3012 52.5632 30.9473C52.2387 29.8789 51.8112 28.8446 51.2866 27.8589C51.1116 27.5347 50.8668 27.2534 50.57 27.0351C50.2731 26.8169 49.9316 26.6672 49.5699 26.5968L47.1159 26.1062L45.895 24.8853L45.4041 22.4314C45.3338 22.0693 45.1839 21.7274 44.9652 21.4303C44.7465 21.1333 44.4645 20.8885 44.1396 20.7138C43.1547 20.1903 42.1215 19.7633 41.0544 19.4386C40.7007 19.3328 40.3281 19.3067 39.9631 19.3621C39.5982 19.4174 39.2501 19.5529 38.9437 19.7589L36.8643 21.1453H35.138L33.0574 19.759C32.7517 19.5527 32.4039 19.4169 32.0393 19.3615C31.6747 19.3061 31.3023 19.3324 30.9491 19.4386C29.8806 19.763 28.8462 20.1905 27.8604 20.715C27.5358 20.8894 27.254 21.134 27.0357 21.4309C26.8174 21.7277 26.6679 22.0695 26.5982 22.4314L26.1074 24.8853L24.8865 26.1061L22.4298 26.5968C22.0681 26.667 21.7265 26.8167 21.4298 27.0352C21.1331 27.2536 20.8887 27.5354 20.7144 27.86C20.1904 28.8452 19.7629 29.8787 19.4378 30.9461C19.3317 31.2995 19.3054 31.672 19.3608 32.0368C19.4162 32.4015 19.5519 32.7495 19.7581 33.0554L21.146 35.1357V36.8618L19.7569 38.9433C19.5511 39.2492 19.4158 39.597 19.3606 39.9615C19.3054 40.326 19.3318 40.6983 19.4378 41.0514C19.7624 42.1182 20.19 43.1509 20.7144 44.135C20.8883 44.4604 21.1327 44.7429 21.4297 44.9618C21.7267 45.1808 22.0688 45.3307 22.4311 45.4006L24.8863 45.8913L26.1072 47.1122L26.5981 49.5649C26.667 49.9273 26.8161 50.2698 27.0345 50.5673C27.2529 50.8647 27.535 51.1095 27.8603 51.2838C28.8452 51.8078 29.8788 52.2344 30.9466 52.5577C31.2998 52.666 31.6729 52.6936 32.0382 52.6384C32.4036 52.5831 32.7518 52.4465 33.0572 52.2386L35.138 50.8522H36.8643L38.9437 52.2385C39.3563 52.5157 39.8416 52.6647 40.3387 52.6666C40.5813 52.6662 40.8224 52.6299 41.0544 52.5589C42.1212 52.2345 43.154 51.8074 44.1384 51.2837C44.4639 51.1101 44.7464 50.8658 44.9652 50.5688C45.184 50.2717 45.3336 49.9295 45.4029 49.5672L45.8937 47.1122L47.1159 45.8914L49.5711 45.4006C49.933 45.3299 50.2746 45.1798 50.5715 44.9612C50.8683 44.7426 51.113 44.4608 51.2878 44.1362C51.8117 43.1516 52.2389 42.1185 52.5632 41.0514C52.6673 40.6978 52.6926 40.3256 52.6373 39.9611C52.5819 39.5967 52.4473 39.2488 52.2429 38.942V38.942ZM36.0006 43.4256C34.5315 43.4256 33.0955 42.99 31.874 42.174C30.6526 41.3579 29.7006 40.198 29.1384 38.841C28.5762 37.4839 28.4292 35.9907 28.7157 34.55C29.0023 33.1094 29.7097 31.7861 30.7485 30.7474C31.7873 29.7088 33.1107 29.0015 34.5515 28.7149C35.9923 28.4283 37.4858 28.5754 38.843 29.1375C40.2002 29.6996 41.3602 30.6515 42.1763 31.8728C42.9925 33.0942 43.4281 34.53 43.4281 35.9989C43.4281 37.9686 42.6456 39.8576 41.2526 41.2504C39.8597 42.6431 37.9705 43.4256 36.0006 43.4256Z" fill="url(#paint0_linear)"/>
<defs>
<linearGradient id="paint0_linear" x1="12.7483" y1="16.0709" x2="55.9312" y2="58.3" gradientUnits="userSpaceOnUse">
<stop stop-color="#5AA6FF"/>
<stop offset="1" stop-color="#0874D8"/>
</linearGradient>
</defs>
</svg>
