<svg width="72" height="72" viewBox="0 0 72 72" fill="none" xmlns="http://www.w3.org/2000/svg">
<circle cx="36" cy="36" r="36" fill="#FFDBEB"/>
<path d="M50.911 26.1L36.4666 19.4334C36.3203 19.3657 36.1611 19.3306 35.9999 19.3306C35.8387 19.3306 35.6795 19.3657 35.5332 19.4334L21.0888 26.1C20.8959 26.1893 20.7327 26.332 20.6185 26.5112C20.5042 26.6904 20.4438 26.8986 20.4443 27.1112V46C20.4438 46.2126 20.5042 46.4208 20.6185 46.6C20.7327 46.7792 20.8959 46.9219 21.0888 47.0112L35.5332 53.6778C35.6795 53.7455 35.8387 53.7806 35.9999 53.7806C36.1611 53.7806 36.3203 53.7455 36.4666 53.6778L50.911 47.0112C51.1039 46.9219 51.2671 46.7792 51.3813 46.6C51.4955 46.4208 51.556 46.2126 51.5555 46V27.1112C51.556 26.8986 51.4955 26.6904 51.3813 26.5112C51.2671 26.332 51.1039 26.1893 50.911 26.1V26.1ZM35.9999 32.5556L24.211 27.1112L35.9999 21.6667L47.7888 27.1112L35.9999 32.5556ZM49.3332 45.2889L37.111 50.9334V34.4889L49.3332 28.8445V45.2889Z" fill="url(#paint0_linear)"/>
<circle cx="47.5" cy="46.5" r="7.5" fill="white" stroke="#FFDBEB" stroke-width="2"/>
<path d="M47.4648 39C43.3488 39 40 42.3645 40 46.5C40 50.6355 43.3645 54 47.5 54C51.6355 54 55 50.6355 55 46.5C55 42.3645 51.6198 39 47.4648 39ZM48.25 50.25H46.75V48.75H48.25V50.25ZM48.25 47.25H46.75V42.75H48.25V47.25Z" fill="#F8569E"/>
<defs>
<linearGradient id="paint0_linear" x1="20.4443" y1="19.3306" x2="54.716" y2="50.2808" gradientUnits="userSpaceOnUse">
<stop stop-color="#FF8BBE"/>
<stop offset="1" stop-color="#DA347E"/>
</linearGradient>
</defs>
</svg>
