<svg width="72" height="72" viewBox="0 0 72 72" fill="none" xmlns="http://www.w3.org/2000/svg">
<circle cx="36" cy="36" r="36" fill="#FFDBEB"/>
<path d="M34.333 30.4566C32.7619 30.0509 31.3927 29.0862 30.482 27.7433C29.5713 26.4003 29.1817 24.7713 29.3862 23.1616C29.5906 21.5519 30.3751 20.072 31.5926 18.9994C32.8101 17.9267 34.3771 17.335 35.9997 17.335C37.6223 17.335 39.1892 17.9267 40.4067 18.9994C41.6243 20.072 42.4088 21.5519 42.6132 23.1616C42.8177 24.7713 42.428 26.4003 41.5174 27.7433C40.6067 29.0862 39.2375 30.0509 37.6664 30.4566V33.9999H44.333C45.2171 33.9999 46.0649 34.3511 46.69 34.9762C47.3152 35.6014 47.6664 36.4492 47.6664 37.3333V40.8766C49.2375 41.2823 50.6067 42.247 51.5174 43.5899C52.428 44.9329 52.8177 46.5619 52.6132 48.1716C52.4088 49.7813 51.6243 51.2612 50.4067 52.3338C49.1892 53.4065 47.6223 53.9982 45.9997 53.9982C44.3771 53.9982 42.8101 53.4065 41.5926 52.3338C40.3751 51.2612 39.5906 49.7813 39.3862 48.1716C39.1817 46.5619 39.5713 44.9329 40.482 43.5899C41.3927 42.247 42.7619 41.2823 44.333 40.8766V37.3333H27.6664V40.8766C29.2375 41.2823 30.6067 42.247 31.5174 43.5899C32.428 44.9329 32.8177 46.5619 32.6132 48.1716C32.4088 49.7813 31.6243 51.2612 30.4067 52.3338C29.1892 53.4065 27.6223 53.9982 25.9997 53.9982C24.3771 53.9982 22.8101 53.4065 21.5926 52.3338C20.3751 51.2612 19.5906 49.7813 19.3862 48.1716C19.1817 46.5619 19.5713 44.9329 20.482 43.5899C21.3927 42.247 22.7619 41.2823 24.333 40.8766V37.3333C24.333 36.4492 24.6842 35.6014 25.3093 34.9762C25.9345 34.3511 26.7823 33.9999 27.6664 33.9999H34.333V30.4566Z" fill="url(#paint0_linear)"/>
<defs>
<linearGradient id="paint0_linear" x1="19.333" y1="17.335" x2="55.8307" y2="50.5178" gradientUnits="userSpaceOnUse">
<stop stop-color="#FF8BBE"/>
<stop offset="1" stop-color="#DA347E"/>
</linearGradient>
</defs>
</svg>
