<svg width="64" height="64" viewBox="0 0 64 64" fill="none" xmlns="http://www.w3.org/2000/svg">
<rect width="64" height="64" rx="8" fill="#DDDFFF"/>
<path d="M35.5 36C36.2957 36 37.0587 36.3161 37.6213 36.8787C38.1839 37.4413 38.5 38.2043 38.5 39V40C38.5 43.942 34.78 48 28.5 48C22.22 48 18.5 43.942 18.5 40V39C18.5 38.2043 18.8161 37.4413 19.3787 36.8787C19.9413 36.3161 20.7044 36 21.5 36H35.5ZM28.5 23C29.9587 23 31.3576 23.5795 32.3891 24.6109C33.4205 25.6424 34 27.0413 34 28.5C34 29.9587 33.4205 31.3576 32.3891 32.3891C31.3576 33.4205 29.9587 34 28.5 34C27.0413 34 25.6424 33.4205 24.6109 32.3891C23.5795 31.3576 23 29.9587 23 28.5C23 27.0413 23.5795 25.6424 24.6109 24.6109C25.6424 23.5795 27.0413 23 28.5 23ZM46.5 16C47.5088 16.0002 48.4803 16.3815 49.2198 17.0677C49.9594 17.7538 50.4123 18.694 50.488 19.7L50.5 20V24C50.5003 25.0092 50.1192 25.9811 49.433 26.7211C48.7468 27.4611 47.8063 27.9143 46.8 27.99L46.5 28H43.498L41.102 31.2C40.042 32.612 37.894 32.04 37.548 30.448L37.514 30.226L37.5 30V27.87L37.344 27.83C36.6251 27.6122 35.9819 27.1967 35.4879 26.6308C34.9939 26.065 34.6689 25.3717 34.55 24.63L34.51 24.298L34.5 24V20C34.4997 18.9908 34.8808 18.0189 35.567 17.2789C36.2532 16.5389 37.1937 16.0857 38.2 16.01L38.5 16H46.5Z" fill="url(#paint0_linear)"/>
<defs>
<linearGradient id="paint0_linear" x1="18.5" y1="16" x2="50.5361" y2="72.5435" gradientUnits="userSpaceOnUse">
<stop stop-color="#8A90F8"/>
<stop offset="1" stop-color="#3B42BD"/>
</linearGradient>
</defs>
</svg>
