<svg width="64" height="64" viewBox="0 0 64 64" fill="none" xmlns="http://www.w3.org/2000/svg">
<rect width="64" height="64" rx="8" fill="#C3F0FF"/>
<path d="M31.1476 48.2566C31.6376 48.5183 32.2526 48.5166 32.7426 48.2549C46.0959 41.0816 47.0442 27.0666 47.0326 23.0816C47.0313 22.7613 46.9367 22.4484 46.7602 22.181C46.5838 21.9137 46.3332 21.7037 46.0392 21.5766L32.6226 15.6333C32.4091 15.5391 32.1782 15.4907 31.9449 15.491C31.7116 15.4913 31.4809 15.5403 31.2676 15.6349L17.9442 21.5783C17.6546 21.7054 17.4075 21.9131 17.2326 22.1767C17.0577 22.4403 16.9622 22.7486 16.9576 23.0649C16.9009 27.0299 17.6992 41.0749 31.1476 48.2566ZM26.4576 29.1549L30.2792 32.9766L37.4342 25.8216L39.7909 28.1783L30.2792 37.6899L24.1009 31.5116L26.4576 29.1549Z" fill="url(#paint0_linear)"/>
<defs>
<linearGradient id="paint0_linear" x1="11.014" y1="12.2651" x2="53.4497" y2="50.1332" gradientUnits="userSpaceOnUse">
<stop stop-color="#5AA6FF"/>
<stop offset="1" stop-color="#0874D8"/>
</linearGradient>
</defs>
</svg>
