<svg width="64" height="64" viewBox="0 0 64 64" fill="none" xmlns="http://www.w3.org/2000/svg">
<rect width="64" height="64" rx="8" fill="#FFDBEB"/>
<path d="M30 27.1216C28.4289 26.716 27.0597 25.7513 26.149 24.4083C25.2383 23.0653 24.8487 21.4363 25.0532 19.8266C25.2576 18.2169 26.0421 16.7371 27.2596 15.6644C28.4771 14.5918 30.0441 14 31.6667 14C33.2893 14 34.8562 14.5918 36.0737 15.6644C37.2912 16.7371 38.0758 18.2169 38.2802 19.8266C38.4847 21.4363 38.095 23.0653 37.1844 24.4083C36.2737 25.7513 34.9044 26.716 33.3333 27.1216V30.665H40C40.8841 30.665 41.7319 31.0162 42.357 31.6413C42.9822 32.2664 43.3334 33.1143 43.3334 33.9983V37.5416C44.9044 37.9473 46.2737 38.912 47.1844 40.255C48.095 41.5979 48.4847 43.2269 48.2802 44.8366C48.0758 46.4463 47.2912 47.9262 46.0737 48.9988C44.8562 50.0715 43.2893 50.6633 41.6667 50.6633C40.0441 50.6633 38.4771 50.0715 37.2596 48.9988C36.0421 47.9262 35.2576 46.4463 35.0532 44.8366C34.8487 43.2269 35.2383 41.5979 36.149 40.255C37.0597 38.912 38.4289 37.9473 40 37.5416V33.9983H23.3333V37.5416C24.9044 37.9473 26.2737 38.912 27.1844 40.255C28.095 41.5979 28.4847 43.2269 28.2802 44.8366C28.0758 46.4463 27.2912 47.9262 26.0737 48.9988C24.8562 50.0715 23.2893 50.6633 21.6667 50.6633C20.0441 50.6633 18.4771 50.0715 17.2596 48.9988C16.0421 47.9262 15.2576 46.4463 15.0532 44.8366C14.8487 43.2269 15.2383 41.5979 16.149 40.255C17.0597 38.912 18.4289 37.9473 20 37.5416V33.9983C20 33.1143 20.3512 32.2664 20.9763 31.6413C21.6014 31.0162 22.4493 30.665 23.3333 30.665H30V27.1216Z" fill="url(#paint0_linear)"/>
<defs>
<linearGradient id="paint0_linear" x1="15" y1="14" x2="51.4977" y2="47.1828" gradientUnits="userSpaceOnUse">
<stop stop-color="#FF8BBE"/>
<stop offset="1" stop-color="#DA347E"/>
</linearGradient>
</defs>
</svg>
