<svg width="64" height="64" viewBox="0 0 64 64" fill="none" xmlns="http://www.w3.org/2000/svg">
<rect width="64" height="64" rx="8" fill="#FFEBCD"/>
<path d="M29.3406 16.1667H34.8961C35.7746 16.1668 36.6222 16.4906 37.277 17.0762C37.9318 17.6619 38.3477 18.4683 38.4453 19.3414H41.2453C41.7143 19.3414 42.1787 19.4337 42.612 19.6132C43.0454 19.7927 43.4391 20.0558 43.7707 20.3874C44.1023 20.719 44.3654 21.1127 44.5449 21.5461C44.7244 21.9794 44.8167 22.4438 44.8167 22.9128V31.2429C42.6281 30.3299 40.1917 30.1987 37.9177 30.8715C35.6437 31.5442 33.6708 32.9797 32.3311 34.9365C30.9914 36.8933 30.3667 39.2519 30.5621 41.6153C30.7576 43.9787 31.7612 46.2026 33.404 47.9128H22.9914C22.0441 47.9128 21.1357 47.5365 20.466 46.8667C19.7962 46.197 19.4199 45.2886 19.4199 44.3413V22.9128C19.4199 21.9656 19.7962 21.0572 20.466 20.3874C21.1357 19.7176 22.0441 19.3414 22.9914 19.3414H25.7914C25.889 18.4683 26.3049 17.6619 26.9597 17.0762C27.6144 16.4906 28.4621 16.1668 29.3406 16.1667ZM34.8961 18.5477H29.3406C29.0248 18.5477 28.722 18.6731 28.4988 18.8964C28.2755 19.1196 28.1501 19.4224 28.1501 19.7382C28.1501 20.0539 28.2755 20.3567 28.4988 20.58C28.722 20.8032 29.0248 20.9287 29.3406 20.9287H34.8961C35.2118 20.9287 35.5146 20.8032 35.7379 20.58C35.9612 20.3567 36.0866 20.0539 36.0866 19.7382C36.0866 19.4224 35.9612 19.1196 35.7379 18.8964C35.5146 18.6731 35.2118 18.5477 34.8961 18.5477ZM49.5787 40.7699C49.5787 43.0853 48.6589 45.3059 47.0216 46.9431C45.3844 48.5803 43.1639 49.5001 40.8485 49.5001C38.5331 49.5001 36.3126 48.5803 34.6753 46.9431C33.0381 45.3059 32.1183 43.0853 32.1183 40.7699C32.1183 38.4545 33.0381 36.234 34.6753 34.5968C36.3126 32.9595 38.5331 32.0398 40.8485 32.0398C43.1639 32.0398 45.3844 32.9595 47.0216 34.5968C48.6589 36.234 49.5787 38.4545 49.5787 40.7699ZM40.8485 35.2144C40.638 35.2144 40.4361 35.298 40.2873 35.4468C40.1385 35.5957 40.0548 35.7975 40.0548 36.008V42.3572C40.0548 42.5677 40.1385 42.7696 40.2873 42.9184C40.4361 43.0673 40.638 43.1509 40.8485 43.1509C41.059 43.1509 41.2609 43.0673 41.4097 42.9184C41.5585 42.7696 41.6421 42.5677 41.6421 42.3572V36.008C41.6421 35.7975 41.5585 35.5957 41.4097 35.4468C41.2609 35.298 41.059 35.2144 40.8485 35.2144ZM40.8485 46.5239C41.1116 46.5239 41.3639 46.4194 41.55 46.2333C41.736 46.0473 41.8406 45.7949 41.8406 45.5318C41.8406 45.2687 41.736 45.0164 41.55 44.8303C41.3639 44.6443 41.1116 44.5398 40.8485 44.5398C40.5854 44.5398 40.333 44.6443 40.147 44.8303C39.961 45.0164 39.8564 45.2687 39.8564 45.5318C39.8564 45.7949 39.961 46.0473 40.147 46.2333C40.333 46.4194 40.5854 46.5239 40.8485 46.5239Z" fill="url(#paint0_linear)"/>
<defs>
<linearGradient id="paint0_linear" x1="19.4199" y1="16.1667" x2="53.5308" y2="57.1995" gradientUnits="userSpaceOnUse">
<stop stop-color="#FF996D"/>
<stop offset="1" stop-color="#DB2F17"/>
</linearGradient>
</defs>
</svg>
