<svg width="64" height="64" viewBox="0 0 64 64" fill="none" xmlns="http://www.w3.org/2000/svg">
<rect width="64" height="64" rx="8" fill="#FFEBCD"/>
<path fill-rule="evenodd" clip-rule="evenodd" d="M19.565 48.6666H25.3333L27.6767 42.5033L22.7333 40.8299L19.565 48.6666ZM36.3233 42.5033L38.6667 48.6666H44.435L41.2667 40.8299L36.3233 42.5033ZM45.3333 18.6666H34.5L33.6667 15.3333H30.3333L29.5 18.6666H18.6667C18.2246 18.6666 17.8007 18.8422 17.4882 19.1547C17.1756 19.4673 17 19.8912 17 20.3333V38.6666C17 39.1086 17.1756 39.5325 17.4882 39.8451C17.8007 40.1577 18.2246 40.3333 18.6667 40.3333H45.3333C45.7754 40.3333 46.1993 40.1577 46.5118 39.8451C46.8244 39.5325 47 39.1086 47 38.6666V20.3333C47 19.8912 46.8244 19.4673 46.5118 19.1547C46.1993 18.8422 45.7754 18.6666 45.3333 18.6666Z" fill="url(#paint0_linear)"/>
<defs>
<linearGradient id="paint0_linear" x1="17" y1="15.3333" x2="51.1433" y2="56.1888" gradientUnits="userSpaceOnUse">
<stop stop-color="#FF996D"/>
<stop offset="1" stop-color="#DB2F17"/>
</linearGradient>
</defs>
</svg>
