<svg width="89" height="88" viewBox="0 0 89 88" fill="none" xmlns="http://www.w3.org/2000/svg">
<circle cx="44.25" cy="44" r="44" fill="#DDDFFF"/>
<g clip-path="url(#clip0)">
<path d="M53.0938 33.625C49.9008 33.625 47.3547 35.2289 45.7812 36.575L45.7258 36.6227L44.8297 37.5969L46.8078 40.8477L48.2719 39.3797C49.8039 38.0859 51.5141 37.375 53.0938 37.375C56.2812 37.375 58.875 39.8984 58.875 43C58.875 46.1016 56.2812 48.625 53.0938 48.625C48.25 48.625 44.9578 42.2227 44.925 42.1578C44.7344 41.7727 40.5594 33.625 33.4062 33.625C28.1508 33.625 23.875 37.8305 23.875 43C23.875 48.1695 28.1508 52.375 33.4062 52.375C35.9805 52.375 38.5141 51.3508 40.7336 49.4125L40.7812 49.3703L41.6703 48.4031L39.6914 45.1523L38.2203 46.6273C36.6875 47.9531 35.0672 48.625 33.4062 48.625C30.2188 48.625 27.625 46.1016 27.625 43C27.625 39.8984 30.2188 37.375 33.4062 37.375C38.25 37.375 41.5422 43.7773 41.575 43.8422C41.7656 44.2273 45.9406 52.375 53.0938 52.375C58.3492 52.375 62.625 48.1695 62.625 43C62.625 37.8305 58.3492 33.625 53.0938 33.625Z" fill="url(#paint0_linear)"/>
</g>
<defs>
<linearGradient id="paint0_linear" x1="23.875" y1="33.625" x2="35.0347" y2="74.3318" gradientUnits="userSpaceOnUse">
<stop stop-color="#8A90F8"/>
<stop offset="1" stop-color="#3B42BD"/>
</linearGradient>
<clipPath id="clip0">
<rect width="40" height="40" fill="white" transform="translate(23.25 23)"/>
</clipPath>
</defs>
</svg>
