<svg width="89" height="88" viewBox="0 0 89 88" fill="none" xmlns="http://www.w3.org/2000/svg">
<circle cx="44.25" cy="44" r="44" fill="#C3F0FF"/>
<path d="M61.3638 47.101L59.9028 44.9089V43.09L61.3625 40.9003C61.5782 40.577 61.7204 40.2103 61.7789 39.826C61.8375 39.4417 61.811 39.0493 61.7013 38.6764C61.3594 37.5505 60.9089 36.4606 60.3562 35.4219C60.1718 35.0803 59.9139 34.7838 59.6011 34.5538C59.2883 34.3239 58.9284 34.1661 58.5474 34.0919L55.9617 33.5749L54.6753 32.2884L54.1581 29.7025C54.084 29.3209 53.926 28.9606 53.6956 28.6476C53.4651 28.3345 53.168 28.0767 52.8257 27.8925C51.7879 27.3409 50.6993 26.8909 49.5749 26.5487C49.2023 26.4373 48.8096 26.4097 48.4251 26.4681C48.0406 26.5265 47.6738 26.6693 47.351 26.8862L45.16 28.3473H43.3411L41.1488 26.8864C40.8267 26.669 40.4603 26.5259 40.0761 26.4675C39.6919 26.4091 39.2995 26.4369 38.9274 26.5487C37.8016 26.8906 36.7117 27.3411 35.673 27.8938C35.3309 28.0776 35.0341 28.3353 34.804 28.6481C34.574 28.961 34.4165 29.3212 34.3431 29.7025L33.8259 32.2884L32.5395 33.5748L29.951 34.0919C29.5699 34.1658 29.2099 34.3236 28.8973 34.5538C28.5847 34.7841 28.3272 35.081 28.1435 35.423C27.5914 36.4612 27.1409 37.5503 26.7984 38.6751C26.6867 39.0475 26.659 39.44 26.7173 39.8244C26.7757 40.2088 26.9187 40.5754 27.1359 40.8979L28.5982 43.09V44.9089L27.1346 47.1023C26.9178 47.4247 26.7752 47.7912 26.7171 48.1753C26.6589 48.5594 26.6867 48.9517 26.7984 49.3238C27.1405 50.448 27.591 51.5362 28.1435 52.5733C28.3268 52.9161 28.5843 53.2138 28.8972 53.4445C29.2101 53.6753 29.5706 53.8332 29.9523 53.9069L32.5393 54.424L33.8257 55.7105L34.3429 58.2951C34.4155 58.6771 34.5726 59.038 34.8028 59.3514C35.0329 59.6648 35.3302 59.9228 35.6729 60.1065C36.7106 60.6587 37.7997 61.1082 38.9248 61.4488C39.297 61.563 39.6901 61.5921 40.075 61.5339C40.4599 61.4757 40.8269 61.3317 41.1487 61.1127L43.3411 59.6516H45.16L47.351 61.1125C47.7857 61.4047 48.2971 61.5616 48.8209 61.5636C49.0764 61.5632 49.3305 61.525 49.5749 61.4502C50.699 61.1083 51.7872 60.6583 52.8244 60.1063C53.1674 59.9234 53.4651 59.666 53.6956 59.353C53.9262 59.04 54.0837 58.6794 54.1568 58.2975L54.674 55.7105L55.9617 54.4241L58.5487 53.9069C58.9299 53.8324 59.2899 53.6743 59.6027 53.4439C59.9155 53.2135 60.1733 52.9166 60.3575 52.5746C60.9095 51.537 61.3595 50.4483 61.7013 49.3238C61.811 48.9512 61.8377 48.559 61.7794 48.1749C61.721 47.7909 61.5792 47.4243 61.3638 47.101ZM44.2499 51.8257C42.7021 51.8257 41.189 51.3667 39.902 50.5068C38.615 49.6468 37.6119 48.4246 37.0196 46.9945C36.4272 45.5645 36.2722 43.9909 36.5742 42.4728C36.8762 40.9547 37.6216 39.5602 38.7161 38.4657C39.8105 37.3712 41.205 36.6259 42.7231 36.3239C44.2412 36.0219 45.8148 36.1769 47.2448 36.7692C48.6749 37.3616 49.8971 38.3647 50.7571 39.6517C51.617 40.9387 52.076 42.4518 52.076 43.9996C52.076 46.0752 51.2515 48.0658 49.7838 49.5335C48.3161 51.0012 46.3255 51.8257 44.2499 51.8257Z" fill="url(#paint0_linear)"/>
<defs>
<linearGradient id="paint0_linear" x1="19.75" y1="23" x2="65.255" y2="67.4949" gradientUnits="userSpaceOnUse">
<stop stop-color="#5AA6FF"/>
<stop offset="1" stop-color="#0874D8"/>
</linearGradient>
</defs>
</svg>
