<svg width="89" height="88" viewBox="0 0 89 88" fill="none" xmlns="http://www.w3.org/2000/svg">
<circle cx="44.25" cy="44" r="44" fill="#FFEBCD"/>
<path d="M44.25 32C47.4326 32 50.4848 33.2643 52.7353 35.5147C54.9857 37.7652 56.25 40.8174 56.25 44C56.25 48.44 53.83 52.32 50.25 54.4V58C50.25 58.5304 50.0393 59.0391 49.6642 59.4142C49.2891 59.7893 48.7804 60 48.25 60H40.25C39.7196 60 39.2109 59.7893 38.8358 59.4142C38.4607 59.0391 38.25 58.5304 38.25 58V54.4C34.67 52.32 32.25 48.44 32.25 44C32.25 40.8174 33.5143 37.7652 35.7647 35.5147C38.0152 33.2643 41.0674 32 44.25 32ZM48.25 62V64C48.25 64.5304 48.0393 65.0391 47.6642 65.4142C47.2891 65.7893 46.7804 66 46.25 66H42.25C41.7196 66 41.2109 65.7893 40.8358 65.4142C40.4607 65.0391 40.25 64.5304 40.25 64V62H48.25ZM60.25 42H66.25V46H60.25V42ZM22.25 42H28.25V46H22.25V42ZM46.25 22V28H42.25V22H46.25ZM30.09 27L34.35 31.28L31.51 34.1L27.25 29.86L30.09 27ZM54.15 31.26L58.39 27L61.25 29.86L56.99 34.1L54.15 31.26Z" fill="url(#paint0_linear)"/>
<defs>
<linearGradient id="paint0_linear" x1="22.25" y1="22" x2="66.25" y2="80.5" gradientUnits="userSpaceOnUse">
<stop stop-color="#FF996D"/>
<stop offset="1" stop-color="#DB2F17"/>
</linearGradient>
</defs>
</svg>
