<svg width="48" height="49" viewBox="0 0 48 49" fill="none" xmlns="http://www.w3.org/2000/svg">
<circle cx="24" cy="24.5" r="24" fill="#C3F0FF"/>
<path d="M36.1848 34.2627L32.6676 30.7671V17.3194L31.0064 14.2644C30.8839 14.0314 30.7001 13.8364 30.4748 13.7004C30.2495 13.5643 29.9913 13.4924 29.7281 13.4924C29.4649 13.4924 29.2067 13.5643 28.9814 13.7004C28.7562 13.8364 28.5723 14.0314 28.4498 14.2644L26.8898 17.3266V25.0182L13.6803 11.8738C13.5793 11.7719 13.4502 11.7025 13.3096 11.6743C13.1689 11.646 13.0231 11.6604 12.8906 11.7154C12.7581 11.7704 12.645 11.8636 12.5657 11.9831C12.4864 12.1027 12.4445 12.2431 12.4453 12.3866V18.2221H14.0125V19.3777H12.4453V23.9999H14.0125V25.1555H12.4453V29.9582H14.0125V31.1138H12.4453V34.7755C12.4453 34.967 12.5214 35.1507 12.6569 35.2862C12.7923 35.4216 12.976 35.4977 13.1675 35.4977H35.672C35.8154 35.4985 35.9559 35.4566 36.0754 35.3773C36.195 35.298 36.2882 35.1849 36.3432 35.0524C36.3982 34.9199 36.4125 34.7741 36.3843 34.6334C36.3561 34.4928 36.2866 34.3637 36.1848 34.2627ZM18.2231 29.7777V23.2344L24.7737 29.7777H18.2231ZM31.2231 31.3016H28.3342V29.5466H31.2231V31.3016ZM31.2231 28.4127H28.3342V17.6805L29.7353 14.9577L31.2231 17.6877V28.4127Z" fill="url(#paint0_linear)"/>
<defs>
<linearGradient id="paint0_linear" x1="7.71395" y1="9.32719" x2="38.5981" y2="39.6756" gradientUnits="userSpaceOnUse">
<stop stop-color="#5AA6FF"/>
<stop offset="1" stop-color="#0874D8"/>
</linearGradient>
</defs>
</svg>
