<svg width="48" height="49" viewBox="0 0 48 49" fill="none" xmlns="http://www.w3.org/2000/svg">
<circle cx="24" cy="24.5" r="24" fill="#FFDBEB"/>
<path d="M36.925 27.2592C36.9588 27.5636 36.9757 27.8342 36.9757 28.0709C36.9757 28.3077 36.9588 28.5782 36.925 28.8826H35.3016C35.2508 29.2885 35.1747 29.6943 35.0733 30.1002L36.5699 30.7343C36.4177 31.2247 36.2147 31.7236 35.9611 32.2309L34.4391 31.5968C34.2531 31.9519 34.0248 32.2985 33.7542 32.6368L34.8957 33.7782C34.5575 34.201 34.177 34.5815 33.7542 34.9197L32.6128 33.7782C32.2746 34.0488 31.9279 34.2771 31.5728 34.4631L32.2069 35.9597C31.6996 36.2303 31.2008 36.4416 30.7103 36.5938L30.0762 35.0972C29.6703 35.1987 29.2645 35.2748 28.8586 35.3255V36.949C28.5542 36.9828 28.2837 36.9997 28.0469 36.9997C27.8102 36.9997 27.5396 36.9828 27.2352 36.949V35.3255C26.8294 35.2748 26.4235 35.1987 26.0177 35.0972L25.4089 36.5938C24.9016 36.4416 24.3943 36.2303 23.8869 35.9597L24.5211 34.4631C24.166 34.2771 23.8277 34.0488 23.5064 33.7782L22.3396 34.9197C21.9169 34.5815 21.5364 34.201 21.1982 33.7782L22.3396 32.6368C22.086 32.2985 21.8577 31.9519 21.6547 31.5968L20.1582 32.2309C19.8876 31.7236 19.6762 31.2247 19.524 30.7343L21.046 30.1002C20.9276 29.6943 20.843 29.2885 20.7923 28.8826H19.1689C19.1351 28.5782 19.1182 28.3077 19.1182 28.0709C19.1182 27.8342 19.1351 27.5636 19.1689 27.2592H20.7923C20.843 26.8533 20.9276 26.4475 21.046 26.0416L19.524 25.4075C19.6762 24.9171 19.8876 24.4182 20.1582 23.9109L21.6547 24.5451C21.8577 24.1899 22.086 23.8433 22.3396 23.5051L21.1982 22.3636C21.5364 21.9408 21.9169 21.5603 22.3396 21.2221L23.5064 22.3636C23.8277 22.093 24.166 21.8647 24.5211 21.6787L23.8869 20.1568C24.3943 19.9031 24.9016 19.7002 25.4089 19.548L26.0177 21.0446C26.4235 20.9262 26.8294 20.8501 27.2352 20.8163V19.1929C27.5396 19.159 27.8102 19.1421 28.0469 19.1421C28.2837 19.1421 28.5542 19.159 28.8586 19.1929V20.8163C29.2645 20.8501 29.6703 20.9262 30.0762 21.0446L30.7103 19.548C31.2008 19.7002 31.6996 19.9031 32.2069 20.1568L31.5728 21.6787C31.9279 21.8816 32.2746 22.1099 32.6128 22.3636L33.7542 21.2221C34.177 21.5603 34.5575 21.9408 34.8957 22.3636L33.7542 23.5051C34.0248 23.8433 34.2531 24.1899 34.4391 24.5451L35.9611 23.9109C36.2147 24.4182 36.4177 24.9171 36.5699 25.4075L35.0733 26.0416C35.1747 26.4475 35.2508 26.8533 35.3016 27.2592H36.925ZM28.0469 24.0124C26.9308 24.0124 25.9754 24.4098 25.1806 25.2046C24.3858 25.9994 23.9884 26.9548 23.9884 28.0709C23.9884 29.187 24.3858 30.1425 25.1806 30.9373C25.9754 31.732 26.9308 32.1294 28.0469 32.1294C29.163 32.1294 30.1185 31.732 30.9133 30.9373C31.7081 30.1425 32.1055 29.187 32.1055 28.0709C32.1055 26.9548 31.7081 25.9994 30.9133 25.2046C30.1185 24.4098 29.163 24.0124 28.0469 24.0124ZM22.3396 18.5841L22.0352 19.3704C21.9845 19.4719 21.9042 19.548 21.7943 19.5987C21.6843 19.6494 21.5786 19.6494 21.4772 19.5987L20.0313 19.0153C19.7438 19.4212 19.3972 19.7594 18.9913 20.0299L19.6001 21.4758C19.6508 21.5942 19.6508 21.7041 19.6001 21.8055C19.5494 21.907 19.4733 21.9831 19.3718 22.0338L18.5855 22.3636C18.484 22.4143 18.3783 22.4143 18.2684 22.3636C18.1585 22.3129 18.0782 22.2368 18.0274 22.1353L17.4186 20.6894C17.1481 20.7402 16.9029 20.7655 16.683 20.7655C16.4801 20.7655 16.2434 20.7402 15.9728 20.6894L15.364 22.1353C15.3302 22.2368 15.2583 22.3129 15.1484 22.3636C15.0385 22.4143 14.9243 22.4143 14.806 22.3636L14.045 22.0338C13.9266 22 13.8463 21.9281 13.804 21.8182C13.7617 21.7083 13.7575 21.5942 13.7913 21.4758L14.4001 20.0553C13.9943 19.7678 13.6476 19.4212 13.3601 19.0153L11.9143 19.6241C11.8128 19.6579 11.7071 19.6537 11.5972 19.6114C11.4873 19.5691 11.4069 19.4972 11.3562 19.3958L11.0518 18.6094C11.0011 18.4911 10.9969 18.3769 11.0391 18.267C11.0814 18.1571 11.1617 18.0852 11.2801 18.0514L12.7006 17.4426C12.6499 17.172 12.6245 16.9268 12.6245 16.707C12.6245 16.5041 12.6499 16.2589 12.7006 15.9714L11.2547 15.388C11.1533 15.3372 11.0814 15.2612 11.0391 15.1597C10.9969 15.0582 10.9926 14.9483 11.0265 14.8299L11.3562 14.0436C11.4069 13.9421 11.483 13.866 11.5845 13.8153C11.686 13.7646 11.7959 13.7646 11.9143 13.8153L13.3601 14.3987C13.6307 13.9929 13.9689 13.6546 14.3747 13.3841L13.7913 11.9382C13.7406 11.8198 13.7364 11.7099 13.7786 11.6085C13.8209 11.507 13.9012 11.4309 14.0196 11.3802L14.806 11.0504C14.9074 10.9997 15.0131 10.9997 15.123 11.0504C15.233 11.1012 15.3133 11.1772 15.364 11.2787L15.9474 12.7246C16.218 12.6738 16.4632 12.6485 16.683 12.6485C16.9029 12.6485 17.1481 12.6738 17.4186 12.7246L18.0021 11.2787C18.0528 11.1603 18.1331 11.08 18.243 11.0377C18.353 10.9955 18.4586 10.9997 18.5601 11.0504L19.3464 11.3802C19.4648 11.414 19.5451 11.4859 19.5874 11.5958C19.6297 11.7057 19.6255 11.8114 19.5747 11.9129L18.9913 13.3587C19.3972 13.6462 19.7438 13.9929 20.0313 14.3987L21.4518 13.7899C21.5702 13.7561 21.6843 13.7603 21.7943 13.8026C21.9042 13.8449 21.976 13.9168 22.0099 14.0182L22.3396 14.8046C22.3904 14.9229 22.3946 15.0371 22.3523 15.147C22.31 15.2569 22.2297 15.3288 22.1113 15.3626L20.6655 15.9714C20.7162 16.242 20.7416 16.4872 20.7416 16.707C20.7416 16.9268 20.7162 17.172 20.6655 17.4426L22.1113 18.026C22.2297 18.0768 22.31 18.1529 22.3523 18.2543C22.3946 18.3558 22.3904 18.4657 22.3396 18.5841ZM16.6957 14.2719C16.0278 14.2719 15.4528 14.5086 14.9708 14.9821C14.4889 15.4556 14.2479 16.0306 14.2479 16.707C14.2479 17.3834 14.4889 17.9584 14.9708 18.4319C15.4528 18.9054 16.0278 19.1421 16.6957 19.1421C17.3637 19.1421 17.9344 18.9054 18.4079 18.4319C18.8814 17.9584 19.1182 17.3834 19.1182 16.707C19.1182 16.0306 18.8814 15.4556 18.4079 14.9821C17.9344 14.5086 17.3637 14.2719 16.6957 14.2719Z" fill="url(#paint0_linear)"/>
<defs>
<linearGradient id="paint0_linear" x1="11.0039" y1="11.0089" x2="36.9947" y2="36.9807" gradientUnits="userSpaceOnUse">
<stop stop-color="#FF8BBE"/>
<stop offset="1" stop-color="#DA347E"/>
</linearGradient>
</defs>
</svg>
