<svg width="48" height="49" viewBox="0 0 48 49" fill="none" xmlns="http://www.w3.org/2000/svg">
<circle cx="24" cy="24.5" r="24" fill="#FFEBCD"/>
<path d="M22.5591 13.7778H26.2628C26.8484 13.7778 27.4135 13.9937 27.85 14.3842C28.2865 14.7746 28.5638 15.3122 28.6289 15.8942H30.4956C30.8083 15.8942 31.1179 15.9558 31.4067 16.0755C31.6956 16.1951 31.9581 16.3705 32.1792 16.5916C32.4003 16.8127 32.5756 17.0752 32.6953 17.364C32.8149 17.6529 32.8765 17.9625 32.8765 18.2752V23.8286C31.4174 23.22 29.7932 23.1325 28.2772 23.581C26.7611 24.0295 25.4459 24.9865 24.5528 26.291C23.6597 27.5956 23.2432 29.1679 23.3735 30.7435C23.5037 32.3191 24.1728 33.8017 25.2681 34.9419H18.3263C17.6948 34.9419 17.0892 34.691 16.6427 34.2445C16.1962 33.798 15.9453 33.1924 15.9453 32.5609V18.2752C15.9453 17.6437 16.1962 17.0381 16.6427 16.5916C17.0892 16.1451 17.6948 15.8942 18.3263 15.8942H20.1929C20.258 15.3122 20.5353 14.7746 20.9718 14.3842C21.4083 13.9937 21.9734 13.7778 22.5591 13.7778ZM26.2628 15.3651H22.5591C22.3486 15.3651 22.1467 15.4488 21.9979 15.5976C21.849 15.7464 21.7654 15.9483 21.7654 16.1588C21.7654 16.3693 21.849 16.5711 21.9979 16.72C22.1467 16.8688 22.3486 16.9524 22.5591 16.9524H26.2628C26.4733 16.9524 26.6751 16.8688 26.824 16.72C26.9728 16.5711 27.0564 16.3693 27.0564 16.1588C27.0564 15.9483 26.9728 15.7464 26.824 15.5976C26.6751 15.4488 26.4733 15.3651 26.2628 15.3651Z" fill="url(#paint0_linear)"/>
<g clip-path="url(#clip0)">
<path fill-rule="evenodd" clip-rule="evenodd" d="M24.332 30.1667C24.332 28.6196 24.9466 27.1359 26.0406 26.0419C27.1345 24.948 28.6183 24.3334 30.1654 24.3334C31.7125 24.3334 33.1962 24.948 34.2902 26.0419C35.3841 27.1359 35.9987 28.6196 35.9987 30.1667C35.9987 31.7138 35.3841 33.1975 34.2902 34.2915C33.1962 35.3855 31.7125 36 30.1654 36C28.6183 36 27.1345 35.3855 26.0406 34.2915C24.9466 33.1975 24.332 31.7138 24.332 30.1667V30.1667ZM29.8325 32.6634L33.1909 28.4649L32.5843 27.9796L29.7205 31.5582L27.692 29.868L27.1943 30.4654L29.8325 32.6642V32.6634Z" fill="url(#paint1_linear)"/>
</g>
<defs>
<linearGradient id="paint0_linear" x1="15.9453" y1="13.7778" x2="37.9318" y2="37.1635" gradientUnits="userSpaceOnUse">
<stop stop-color="#FF996D"/>
<stop offset="1" stop-color="#DB2F17"/>
</linearGradient>
<linearGradient id="paint1_linear" x1="24.332" y1="24.3334" x2="35.9987" y2="39.8447" gradientUnits="userSpaceOnUse">
<stop stop-color="#FF996D"/>
<stop offset="1" stop-color="#DB2F17"/>
</linearGradient>
<clipPath id="clip0">
<rect width="11.6667" height="11.6667" fill="white" transform="translate(24.332 24.3334)"/>
</clipPath>
</defs>
</svg>
