<svg width="48" height="49" viewBox="0 0 48 49" fill="none" xmlns="http://www.w3.org/2000/svg">
<circle cx="24" cy="24.5" r="24" fill="#C3F0FF"/>
<path d="M33.7487 19.6666C34.3233 19.6666 34.8744 19.8949 35.2808 20.3012C35.6871 20.7076 35.9154 21.2587 35.9154 21.8333V26.1666C35.9154 26.7413 35.6871 27.2924 35.2808 27.6987C34.8744 28.105 34.3233 28.3333 33.7487 28.3333H32.5982C32.3341 30.4277 31.3147 32.3538 29.7314 33.75C28.1481 35.1462 26.1097 35.9166 23.9987 35.9166V33.75C25.7226 33.75 27.3759 33.0652 28.5949 31.8462C29.8139 30.6272 30.4987 28.9739 30.4987 27.25V20.75C30.4987 19.0261 29.8139 17.3728 28.5949 16.1538C27.3759 14.9348 25.7226 14.25 23.9987 14.25C22.2748 14.25 20.6215 14.9348 19.4025 16.1538C18.1835 17.3728 17.4987 19.0261 17.4987 20.75V28.3333H14.2487C13.6741 28.3333 13.123 28.105 12.7166 27.6987C12.3103 27.2924 12.082 26.7413 12.082 26.1666V21.8333C12.082 21.2587 12.3103 20.7076 12.7166 20.3012C13.123 19.8949 13.6741 19.6666 14.2487 19.6666H15.3992C15.6636 17.5724 16.683 15.6467 18.2663 14.2507C19.8496 12.8547 21.8879 12.0845 23.9987 12.0845C26.1095 12.0845 28.1478 12.8547 29.7311 14.2507C31.3144 15.6467 32.3338 17.5724 32.5982 19.6666H33.7487ZM19.4054 28.1004L20.5537 26.2631C21.5862 26.9098 22.7803 27.2519 23.9987 27.25C25.2171 27.2519 26.4112 26.9098 27.4437 26.2631L28.592 28.1004C27.2154 28.9629 25.6232 29.4191 23.9987 29.4166C22.3742 29.4191 20.782 28.9629 19.4054 28.1004Z" fill="url(#paint0_linear)"/>
<defs>
<linearGradient id="paint0_linear" x1="7.37433" y1="9.75204" x2="38.2486" y2="39.9458" gradientUnits="userSpaceOnUse">
<stop stop-color="#5AA6FF"/>
<stop offset="1" stop-color="#0874D8"/>
</linearGradient>
</defs>
</svg>
