<svg width="48" height="49" viewBox="0 0 48 49" fill="none" xmlns="http://www.w3.org/2000/svg">
<circle cx="24" cy="24.5" r="24" fill="#C3F0FF"/>
<path fill-rule="evenodd" clip-rule="evenodd" d="M18.6154 12H29.3846V13.6H34V33.6C34 34.2365 33.7569 34.847 33.3241 35.2971C32.8913 35.7471 32.3043 36 31.6923 36H16.3077C15.6957 36 15.1087 35.7471 14.6759 35.2971C14.2431 34.847 14 34.2365 14 33.6V13.6H18.6154V12ZM20.1538 13.6H27.8462V16C27.8462 16.2122 27.7651 16.4157 27.6209 16.5657C27.4766 16.7157 27.2809 16.8 27.0769 16.8H20.9231C20.7191 16.8 20.5234 16.7157 20.3791 16.5657C20.2349 16.4157 20.1538 16.2122 20.1538 16V13.6ZM23.2677 29.9712L29.1938 22.9264L28.0369 21.8736L23.1938 27.6304L20.6985 25.0336L19.6092 26.1664L23.2677 29.9712Z" fill="url(#paint0_linear)"/>
<defs>
<linearGradient id="paint0_linear" x1="10.0495" y1="9.65114" x2="40.5088" y2="34.4732" gradientUnits="userSpaceOnUse">
<stop stop-color="#5AA6FF"/>
<stop offset="1" stop-color="#0874D8"/>
</linearGradient>
</defs>
</svg>
