<svg width="48" height="49" viewBox="0 0 48 49" fill="none" xmlns="http://www.w3.org/2000/svg">
<circle cx="24" cy="24.5" r="24" fill="#FFDBEB"/>
<path d="M32.6654 32.2225V19.6667L26.1654 13.1667H17.4987C16.307 13.1667 15.3429 14.1417 15.3429 15.3333L15.332 32.6667C15.332 33.8583 16.2962 34.8333 17.4879 34.8333H30.4987C30.9862 34.8333 31.4195 34.6708 31.7879 34.4L26.9887 29.6008C26.122 30.1642 25.1037 30.5 23.9987 30.5C21.0087 30.5 18.582 28.0733 18.582 25.0833C18.582 22.0933 21.0087 19.6667 23.9987 19.6667C26.9887 19.6667 29.4154 22.0933 29.4154 25.0833C29.4154 26.1883 29.0795 27.2067 28.5162 28.0625L32.6654 32.2225ZM20.7487 25.0833C20.7487 26.8817 22.2004 28.3333 23.9987 28.3333C25.797 28.3333 27.2487 26.8817 27.2487 25.0833C27.2487 23.285 25.797 21.8333 23.9987 21.8333C22.2004 21.8333 20.7487 23.285 20.7487 25.0833Z" fill="url(#paint0_linear)"/>
<defs>
<linearGradient id="paint0_linear" x1="15.332" y1="13.1667" x2="36.4702" y2="30.0772" gradientUnits="userSpaceOnUse">
<stop stop-color="#FF8BBE"/>
<stop offset="1" stop-color="#DA347E"/>
</linearGradient>
</defs>
</svg>
