<svg width="48" height="49" viewBox="0 0 48 49" fill="none" xmlns="http://www.w3.org/2000/svg">
<circle cx="24" cy="24.5" r="24" fill="#FFEBCD"/>
<path fill-rule="evenodd" clip-rule="evenodd" d="M26.7551 13.8145C26.5059 13.2954 26.115 12.8573 25.6276 12.5507C25.1402 12.244 24.5761 12.0813 24.0002 12.0813C23.4244 12.0813 22.8602 12.244 22.3728 12.5507C21.8854 12.8573 21.4946 13.2954 21.2453 13.8145L12.453 31.1099C11.401 33.1748 12.7303 35.9167 15.2068 35.9167H32.7925C35.2701 35.9167 36.5972 33.1758 35.5475 31.1099L26.7551 13.8145ZM24.0002 19.6667C24.2875 19.6667 24.5631 19.7808 24.7662 19.984C24.9694 20.1871 25.0835 20.4627 25.0835 20.75V26.1667C25.0835 26.454 24.9694 26.7295 24.7662 26.9327C24.5631 27.1359 24.2875 27.25 24.0002 27.25C23.7129 27.25 23.4373 27.1359 23.2342 26.9327C23.031 26.7295 22.9169 26.454 22.9169 26.1667V20.75C22.9169 20.4627 23.031 20.1871 23.2342 19.984C23.4373 19.7808 23.7129 19.6667 24.0002 19.6667ZM24.0002 28.875C24.2875 28.875 24.5631 28.9891 24.7662 29.1923C24.9694 29.3955 25.0835 29.671 25.0835 29.9583V30.5C25.0835 30.7873 24.9694 31.0629 24.7662 31.266C24.5631 31.4692 24.2875 31.5833 24.0002 31.5833C23.7129 31.5833 23.4373 31.4692 23.2342 31.266C23.031 31.0629 22.9169 30.7873 22.9169 30.5V29.9583C22.9169 29.671 23.031 29.3955 23.2342 29.1923C23.4373 28.9891 23.7129 28.875 24.0002 28.875Z" fill="url(#paint0_linear)"/>
<defs>
<linearGradient id="paint0_linear" x1="12.0898" y1="12.0813" x2="35.9295" y2="43.7566" gradientUnits="userSpaceOnUse">
<stop stop-color="#FF996D"/>
<stop offset="1" stop-color="#DB2F17"/>
</linearGradient>
</defs>
</svg>
