<svg width="48" height="49" viewBox="0 0 48 49" fill="none" xmlns="http://www.w3.org/2000/svg">
<circle cx="24" cy="24.5" r="24" fill="#C3F0FF"/>
<path d="M22.227 13.9444H25.9307C26.5164 13.9445 27.0815 14.1603 27.518 14.5508C27.9545 14.9412 28.2318 15.4788 28.2969 16.0608H30.1635C30.4762 16.0608 30.7858 16.1224 31.0747 16.2421C31.3636 16.3617 31.626 16.5371 31.8471 16.7582C32.0682 16.9793 32.2436 17.2418 32.3633 17.5306C32.4829 17.8195 32.5445 18.1291 32.5445 18.4418V23.9952C31.0854 23.3866 29.4612 23.2991 27.9451 23.7476C26.4291 24.1961 25.1139 25.1531 24.2207 26.4576C23.3276 27.7622 22.9112 29.3345 23.0414 30.9101C23.1717 32.4857 23.8408 33.9683 24.936 35.1085H17.9942C17.3628 35.1085 16.7572 34.8576 16.3106 34.4111C15.8641 33.9646 15.6133 33.359 15.6133 32.7275V18.4418C15.6133 17.8103 15.8641 17.2047 16.3106 16.7582C16.7572 16.3117 17.3628 16.0608 17.9942 16.0608H19.8609C19.926 15.4788 20.2033 14.9412 20.6398 14.5508C21.0763 14.1603 21.6414 13.9445 22.227 13.9444ZM25.9307 15.5317H22.227C22.0166 15.5317 21.8147 15.6154 21.6658 15.7642C21.517 15.913 21.4334 16.1149 21.4334 16.3254C21.4334 16.5359 21.517 16.7378 21.6658 16.8866C21.8147 17.0354 22.0166 17.119 22.227 17.119H25.9307C26.1412 17.119 26.3431 17.0354 26.4919 16.8866C26.6408 16.7378 26.7244 16.5359 26.7244 16.3254C26.7244 16.1149 26.6408 15.913 26.4919 15.7642C26.3431 15.6154 26.1412 15.5317 25.9307 15.5317Z" fill="url(#paint0_linear)"/>
<g clip-path="url(#clip0)">
<path fill-rule="evenodd" clip-rule="evenodd" d="M24 30.3333C24 28.7862 24.6146 27.3025 25.7085 26.2085C26.8025 25.1146 28.2862 24.5 29.8333 24.5C31.3804 24.5 32.8642 25.1146 33.9581 26.2085C35.0521 27.3025 35.6667 28.7862 35.6667 30.3333C35.6667 31.8804 35.0521 33.3642 33.9581 34.4581C32.8642 35.5521 31.3804 36.1667 29.8333 36.1667C28.2862 36.1667 26.8025 35.5521 25.7085 34.4581C24.6146 33.3642 24 31.8804 24 30.3333V30.3333ZM29.5004 32.83L32.8589 28.6316L32.2522 28.1462L29.3884 31.7248L27.36 30.0347L26.8622 30.632L29.5004 32.8308V32.83Z" fill="url(#paint1_linear)"/>
</g>
<defs>
<linearGradient id="paint0_linear" x1="12.2689" y1="11.8731" x2="38.8874" y2="32.6976" gradientUnits="userSpaceOnUse">
<stop stop-color="#5AA6FF"/>
<stop offset="1" stop-color="#0874D8"/>
</linearGradient>
<linearGradient id="paint1_linear" x1="21.6955" y1="23.3582" x2="36.8095" y2="38.1384" gradientUnits="userSpaceOnUse">
<stop stop-color="#5AA6FF"/>
<stop offset="1" stop-color="#0874D8"/>
</linearGradient>
<clipPath id="clip0">
<rect width="11.6667" height="11.6667" fill="white" transform="translate(24 24.5)"/>
</clipPath>
</defs>
</svg>
