<svg width="48" height="49" viewBox="0 0 48 49" fill="none" xmlns="http://www.w3.org/2000/svg">
<circle cx="24" cy="24.5" r="24" fill="#FFEBCD"/>
<path fill-rule="evenodd" clip-rule="evenodd" d="M15.71 35.6111H19.5556L21.1178 31.5022L17.8222 30.3867L15.71 35.6111ZM26.8822 31.5022L28.4444 35.6111H32.29L30.1778 30.3867L26.8822 31.5022ZM32.8889 15.6111H25.6667L25.1111 13.3889H22.8889L22.3333 15.6111H15.1111C14.8164 15.6111 14.5338 15.7282 14.3254 15.9366C14.1171 16.1449 14 16.4275 14 16.7222V28.9445C14 29.2391 14.1171 29.5218 14.3254 29.7301C14.5338 29.9385 14.8164 30.0556 15.1111 30.0556H32.8889C33.1836 30.0556 33.4662 29.9385 33.6746 29.7301C33.8829 29.5218 34 29.2391 34 28.9445V16.7222C34 16.4275 33.8829 16.1449 33.6746 15.9366C33.4662 15.7282 33.1836 15.6111 32.8889 15.6111Z" fill="url(#paint0_linear)"/>
<defs>
<linearGradient id="paint0_linear" x1="14" y1="13.3889" x2="36.7622" y2="40.626" gradientUnits="userSpaceOnUse">
<stop stop-color="#FF996D"/>
<stop offset="1" stop-color="#DB2F17"/>
</linearGradient>
</defs>
</svg>
