<svg width="48" height="49" viewBox="0 0 48 49" fill="none" xmlns="http://www.w3.org/2000/svg">
<circle cx="24" cy="24.5" r="24" fill="#DDDFFF"/>
<path d="M33.558 19.8252C33.5856 19.6164 33.6 19.4076 33.6 19.2C33.6 16.3452 31.0284 14.0544 28.1748 14.442C27.3432 12.9624 25.7592 12 24 12C22.2408 12 20.6568 12.9624 19.8252 14.442C16.9656 14.0544 14.4 16.3452 14.4 19.2C14.4 19.4076 14.4144 19.6164 14.442 19.8252C12.9624 20.658 12 22.242 12 24C12 25.758 12.9624 27.342 14.442 28.1748C14.4143 28.3821 14.4003 28.5909 14.4 28.8C14.4 31.6548 16.9656 33.9396 19.8252 33.558C20.6568 35.0376 22.2408 36 24 36C25.7592 36 27.3432 35.0376 28.1748 33.558C31.0284 33.9396 33.6 31.6548 33.6 28.8C33.6 28.5924 33.5856 28.3836 33.558 28.1748C35.0376 27.342 36 25.758 36 24C36 22.242 35.0376 20.658 33.558 19.8252ZM22.746 29.2992L18.3456 24.8424L20.0544 23.1576L22.7628 25.9008L27.9552 20.748L29.6448 22.452L22.746 29.2992Z" fill="url(#paint0_linear)"/>
<defs>
<linearGradient id="paint0_linear" x1="12" y1="12" x2="36.0271" y2="54.4076" gradientUnits="userSpaceOnUse">
<stop stop-color="#8A90F8"/>
<stop offset="1" stop-color="#3B42BD"/>
</linearGradient>
</defs>
</svg>
