<svg width="72" height="72" viewBox="0 0 72 72" fill="none" xmlns="http://www.w3.org/2000/svg">
<circle cx="36" cy="36" r="36" fill="#C3F0FF"/>
<g clip-path="url(#clip0)">
<path d="M51 33.5C51 36.9896 50.0572 40.1602 48.1717 43.0117C46.2861 45.8633 43.8218 47.9922 40.7789 49.3984C42.3654 50.0495 43.6333 50.9609 44.5826 52.1328C45.5319 53.3047 46.0065 54.5938 46.0065 56H25.9935C25.9935 54.9323 26.2861 53.9167 26.8713 52.9531C27.4564 51.9896 28.2562 51.1562 29.2705 50.4531C27.9441 50.1146 26.4356 49.4635 24.7451 48.5C24.355 48.3177 24.0494 47.9922 23.8283 47.5234C23.6073 47.0547 23.4967 46.5469 23.4967 46C22.8205 46 22.2354 45.7526 21.7412 45.2578C21.2471 44.763 21 44.1706 21 43.4805C21 42.7904 21.2471 42.2044 21.7412 41.7227C22.2354 41.2409 22.8205 41 23.4967 41H33.4837C34.186 41 34.7776 41.2409 35.2588 41.7227C35.7399 42.2044 35.9805 42.7904 35.9805 43.4805C35.9805 44.1706 35.7399 44.763 35.2588 45.2578C34.7776 45.7526 34.186 46 33.4837 46C35.7464 46 37.8401 45.4401 39.7646 44.3203C41.6892 43.2005 43.2107 41.6836 44.329 39.7695C45.4473 37.8555 46.0065 35.7656 46.0065 33.5C46.0065 31.625 45.6099 29.8607 44.8166 28.207C44.0234 26.5534 42.9376 25.1406 41.5592 23.9688L39.4135 27.3281C39.4135 27.3542 39.4005 27.3737 39.3745 27.3867L39.3355 27.4062L39.6866 27.6016C40.3108 27.9401 40.7139 28.4479 40.896 29.125C41.078 29.8021 40.987 30.4401 40.6229 31.0391L36.6437 37.25C36.2796 37.849 35.7529 38.2396 35.0637 38.4219C34.3745 38.6042 33.7178 38.513 33.0936 38.1484L28.5683 35.6484C27.9441 35.3099 27.541 34.8021 27.3589 34.125C27.1769 33.4479 27.2679 32.8099 27.632 32.2109L31.5722 26C31.9363 25.4271 32.4564 25.0495 33.1326 24.8672C33.8088 24.6849 34.459 24.75 35.0832 25.0625L40.0767 17.1328C40.4148 16.5859 40.922 16.2344 41.5982 16.0781C42.2744 15.9219 42.9116 16 43.5098 16.3125C44.1079 16.625 44.4915 17.0872 44.6606 17.6992C44.8296 18.3112 44.7451 18.8906 44.407 19.4375L44.212 19.7109C46.3186 21.3516 47.9766 23.3698 49.186 25.7656C50.3953 28.1615 51 30.7396 51 33.5Z" fill="url(#paint0_linear)"/>
</g>
<defs>
<linearGradient id="paint0_linear" x1="15.0742" y1="12.0852" x2="64.5118" y2="48.3444" gradientUnits="userSpaceOnUse">
<stop stop-color="#5AA6FF"/>
<stop offset="1" stop-color="#0874D8"/>
</linearGradient>
<clipPath id="clip0">
<rect width="30" height="40" fill="white" transform="translate(21 16)"/>
</clipPath>
</defs>
</svg>
