<svg width="72" height="72" viewBox="0 0 72 72" fill="none" xmlns="http://www.w3.org/2000/svg">
<circle cx="36" cy="36" r="36" fill="#FFDBEB"/>
<g clip-path="url(#clip0)">
<path d="M19.818 18L18 19.818L21.2026 25.3565L23.2795 25.0518L35.9571 37.7308L34.8757 38.7692C34.3218 39.3231 34.3218 40.1622 34.8757 40.716L35.4378 41.2795C35.9917 41.8334 36.8391 41.8334 37.2545 41.2795L38.8994 42.9231C38.7609 43.7538 38.8994 44.7411 39.5917 45.4334L47.0769 52.8757C48.6 54.3988 51.0923 54.3988 52.6154 52.8757C54.4154 51.2142 54.3988 48.7302 52.8757 47.2071L45.4334 39.7205C44.7411 39.0282 43.7538 38.7512 42.9231 39.0282L41.1051 37.3846C41.5205 36.8308 41.5205 35.9834 41.1051 35.5666L40.5858 35.0488C40.46 34.9175 40.3089 34.8131 40.1416 34.7417C39.9743 34.6704 39.7943 34.6336 39.6125 34.6336C39.4306 34.6336 39.2506 34.6704 39.0833 34.7417C38.9161 34.8131 38.7649 34.9175 38.6391 35.0488L37.7308 35.9571L25.0532 23.2795L25.3551 21.2026L19.8166 18L19.818 18ZM46.818 18.0429C44.0862 17.8158 40.464 19.6269 38.7692 21.2012C36.684 23.2865 37.0246 26.0128 38.682 28.6449L35.7411 31.5872L37.818 33.9231C38.9257 32.9538 40.5595 32.9538 41.6672 33.9231L42.2308 34.4852L42.3609 34.6154L43.5725 33.4038C46.0758 34.8757 48.6817 35.0875 50.6686 33.1006C52.6071 31.3006 54.7089 26.8615 53.7397 24.2308L49.8462 28.2545C49.2923 28.8083 48.4532 28.8083 47.8994 28.2545L43.8743 24.2308C43.743 24.1049 43.6386 23.9538 43.5673 23.7865C43.4959 23.6192 43.4591 23.4392 43.4591 23.2574C43.4591 23.0755 43.4959 22.8955 43.5673 22.7283C43.6386 22.561 43.743 22.4099 43.8743 22.284L47.9008 18.2603C47.5546 18.1385 47.2085 18.0762 46.818 18.0429ZM31.5872 35.3077L26.5666 40.3269C26.0271 40.2071 25.4757 40.149 24.9231 40.1538C21.0462 40.1538 18 43.2 18 47.0769C18 50.9538 21.0462 54 24.9231 54C28.8 54 31.8462 50.9538 31.8462 47.0769C31.8462 46.3666 31.734 45.684 31.5429 45.0429L34.4852 42.1006L34.0532 41.5385C32.9455 40.4308 32.9538 38.7526 33.9231 37.6435L31.5858 35.3077H31.5872ZM42.318 41.6257C42.4911 41.6257 42.6545 41.6589 42.7929 41.7988L50.9718 49.9763C51.2488 50.2532 51.2488 50.6935 50.9718 50.9705C50.6949 51.2474 50.2518 51.2474 49.9749 50.9705L41.7988 42.7929C41.5218 42.516 41.5218 42.0757 41.7988 41.7988C41.9372 41.6603 42.1449 41.6257 42.318 41.6257ZM25.8757 43.4838L28.5148 46.1243L27.5622 49.7146L23.9718 50.6672L21.3314 48.0268L22.284 44.4365L25.8757 43.4838V43.4838Z" fill="url(#paint0_linear)"/>
</g>
<defs>
<linearGradient id="paint0_linear" x1="18" y1="18" x2="54.018" y2="53.9934" gradientUnits="userSpaceOnUse">
<stop stop-color="#FF8BBE"/>
<stop offset="1" stop-color="#DA347E"/>
</linearGradient>
<clipPath id="clip0">
<rect width="36" height="36" fill="white" transform="translate(18 18)"/>
</clipPath>
</defs>
</svg>
