<svg width="72" height="72" viewBox="0 0 72 72" fill="none" xmlns="http://www.w3.org/2000/svg">
<circle cx="36" cy="36" r="36" fill="#FFEBCD"/>
<g clip-path="url(#clip0)">
<path fill-rule="evenodd" clip-rule="evenodd" d="M20 23.2C20 22.3513 20.3371 21.5374 20.9373 20.9373C21.5374 20.3371 22.3513 20 23.2 20H48.8C49.6487 20 50.4626 20.3371 51.0627 20.9373C51.6629 21.5374 52 22.3513 52 23.2V31.7333L50.2933 30.4512C48.4446 29.0647 46.1579 28.3915 43.8528 28.5554C41.5477 28.7192 39.3791 29.7089 37.7451 31.343C36.1111 32.977 35.1213 35.1456 34.9575 37.4507C34.7937 39.7557 35.4668 42.0425 36.8533 43.8912L37.0667 44.1771V52H23.2C22.3513 52 21.5374 51.6629 20.9373 51.0627C20.3371 50.4626 20 49.6487 20 48.8V23.2ZM37.0667 30.6667H26.4V28.5333H37.0667V30.6667ZM26.4 37.0667H32.8V34.9333H26.4V37.0667Z" fill="url(#paint0_linear)"/>
<path fill-rule="evenodd" clip-rule="evenodd" d="M44.5327 30.6667C43.0622 30.6665 41.6244 31.1005 40.3996 31.9142C39.1748 32.728 38.2175 33.8853 37.6479 35.241C37.0783 36.5967 36.9216 38.0904 37.1976 39.5348C37.4736 40.9791 38.17 42.3099 39.1993 43.36V50.9333C39.1993 51.1314 39.2545 51.3256 39.3587 51.4941C39.4628 51.6626 39.6118 51.7988 39.789 51.8874C39.9662 51.976 40.1645 52.0135 40.3618 51.9957C40.5591 51.9779 40.7475 51.9055 40.906 51.7867L44.5327 49.0667L48.1593 51.7867C48.3178 51.9055 48.5063 51.9779 48.7036 51.9957C48.9009 52.0135 49.0992 51.976 49.2764 51.8874C49.4536 51.7988 49.6026 51.6626 49.7067 51.4941C49.8109 51.3256 49.866 51.1314 49.866 50.9333V43.36C50.8954 42.3099 51.5917 40.9791 51.8677 39.5348C52.1437 38.0904 51.9871 36.5967 51.4175 35.241C50.8479 33.8853 49.8906 32.728 48.6658 31.9142C47.441 31.1005 46.0032 30.6665 44.5327 30.6667V30.6667ZM41.3327 48.8V44.8811C42.3033 45.3419 43.3871 45.6 44.5327 45.6C45.6783 45.6 46.762 45.344 47.7327 44.8811V48.8L45.1727 46.88C44.988 46.7415 44.7635 46.6667 44.5327 46.6667C44.3019 46.6667 44.0773 46.7415 43.8927 46.88L41.3327 48.8V48.8Z" fill="url(#paint1_linear)"/>
</g>
<defs>
<linearGradient id="paint0_linear" x1="20" y1="20" x2="52" y2="62.5455" gradientUnits="userSpaceOnUse">
<stop stop-color="#FF996D"/>
<stop offset="1" stop-color="#DB2F17"/>
</linearGradient>
<linearGradient id="paint1_linear" x1="37.0649" y1="30.6667" x2="59.2126" y2="51.2821" gradientUnits="userSpaceOnUse">
<stop stop-color="#FF996D"/>
<stop offset="1" stop-color="#DB2F17"/>
</linearGradient>
<clipPath id="clip0">
<rect width="32" height="32" fill="white" transform="translate(20 20)"/>
</clipPath>
</defs>
</svg>
