<svg width="32" height="32" viewBox="0 0 32 32" fill="none" xmlns="http://www.w3.org/2000/svg">
<path d="M30.85 18.4117L23.5667 8.16875C22.3278 6.42969 20.3556 5.5 18.3556 5.5C17.1 5.5 15.8278 5.86641 14.7167 6.63203C13.6222 7.38672 12.8444 8.42578 12.4111 9.57422C12.25 6.33125 9.55556 3.75 6.22222 3.75C2.78333 3.75 0 6.48984 0 9.875V22.125C0 25.5102 2.78333 28.25 6.22222 28.25C9.66111 28.25 12.4444 25.5102 12.4444 22.125V13.9711C12.6278 14.4414 12.85 14.9062 13.1556 15.3383L20.4444 25.5813C21.6778 27.3203 23.65 28.25 25.6556 28.25C26.9167 28.25 28.1833 27.8836 29.2944 27.118C32.1667 25.1383 32.8611 21.2391 30.85 18.4117ZM8.88889 16H3.55556V9.875C3.55556 8.42578 4.75 7.25 6.22222 7.25C7.69444 7.25 8.88889 8.42578 8.88889 9.875V16ZM19.7111 18.4555L16.0667 13.3313C15.6389 12.7297 15.4722 11.9969 15.6056 11.275C15.7333 10.5531 16.1444 9.91875 16.7556 9.49766C17.2278 9.16953 17.7833 9 18.3556 9C19.2722 9 20.1278 9.4375 20.65 10.1758L24.2944 15.3L19.7111 18.4555Z" fill="white"/>
</svg>
