<svg width="32" height="32" viewBox="0 0 32 32" fill="none" xmlns="http://www.w3.org/2000/svg">
<path fill-rule="evenodd" clip-rule="evenodd" d="M9.77778 17.5556C14.0734 17.5556 17.5556 14.0734 17.5556 9.77778C17.5556 5.48211 14.0734 2 9.77778 2C5.48211 2 2 5.48211 2 9.77778C2 14.0734 5.48211 17.5556 9.77778 17.5556ZM13.1253 9.23956C13.3137 9.15934 13.4628 9.00812 13.5403 8.81869C13.6179 8.62926 13.6176 8.41689 13.5396 8.22764C13.4616 8.03839 13.3122 7.88751 13.1237 7.80773C12.9352 7.72794 12.7228 7.72569 12.5327 7.80144L6.43022 10.316C6.33574 10.355 6.24986 10.4122 6.17749 10.4843C6.10511 10.5565 6.04766 10.6422 6.00841 10.7365C5.96915 10.8309 5.94887 10.9321 5.94871 11.0343C5.94856 11.1365 5.96853 11.2377 6.0075 11.3322C6.04647 11.4266 6.10366 11.5125 6.17582 11.5849C6.24797 11.6573 6.33368 11.7147 6.42803 11.754C6.52239 11.7932 6.62356 11.8135 6.72576 11.8137C6.82796 11.8138 6.92919 11.7939 7.02367 11.7549L13.1253 9.23956Z" fill="white"/>
<path fill-rule="evenodd" clip-rule="evenodd" d="M22.2226 30.0001C26.5183 30.0001 30.0004 26.518 30.0004 22.2224C30.0004 17.9267 26.5183 14.4446 22.2226 14.4446C17.9269 14.4446 14.4448 17.9267 14.4448 22.2224C14.4448 26.518 17.9269 30.0001 22.2226 30.0001ZM25.2637 23.7196C25.3632 23.7425 25.4663 23.7456 25.5671 23.7287C25.6678 23.7118 25.7642 23.6752 25.8508 23.6211C25.9374 23.5669 26.0125 23.4962 26.0718 23.413C26.131 23.3298 26.1733 23.2358 26.1963 23.1362C26.2192 23.0367 26.2223 22.9336 26.2054 22.8329C26.1885 22.7322 26.1519 22.6358 26.0977 22.5492C26.0436 22.4626 25.9729 22.3875 25.8897 22.3282C25.8065 22.2689 25.7125 22.2266 25.6129 22.2037L19.1807 20.7251C19.0806 20.7007 18.9767 20.6965 18.875 20.7126C18.7732 20.7286 18.6757 20.7648 18.5881 20.8189C18.5004 20.873 18.4244 20.9439 18.3644 21.0276C18.3043 21.1114 18.2616 21.2062 18.2385 21.3065C18.2154 21.4069 18.2125 21.5109 18.2299 21.6124C18.2474 21.7139 18.2848 21.811 18.34 21.8979C18.3953 21.9848 18.4672 22.0599 18.5517 22.1188C18.6362 22.1777 18.7316 22.2193 18.8323 22.241L25.2645 23.7196H25.2637Z" fill="white"/>
</svg>
